<?xml version="1.0" encoding="UTF-8"?>
<!DOCTYPE svg PUBLIC "-//W3C//DTD SVG 1.1//EN" "http://www.w3.org/Graphics/SVG/1.1/DTD/svg11.dtd">
<!-- Creator: CorelDRAW 2020 (64-Bit) -->
<svg xmlns="http://www.w3.org/2000/svg" xml:space="preserve" width="2.1in" height="1.668in" version="1.1" style="shape-rendering:geometricPrecision; text-rendering:geometricPrecision; image-rendering:optimizeQuality; fill-rule:evenodd; clip-rule:evenodd"
viewBox="0 0 2100 1668"
 xmlns:xlink="http://www.w3.org/1999/xlink"
 xmlns:xodm="http://www.corel.com/coreldraw/odm/2003">
 <defs>
  <style type="text/css">
   <![CDATA[
    .fil2 {fill:#538212}
    .fil3 {fill:#CEFF47}
    .fil1 {fill:url(#id0)}
    .fil0 {fill:url(#id1);fill-rule:nonzero}
   ]]>
  </style>
  <linearGradient id="id0" gradientUnits="objectBoundingBox" x1="26.2864%" y1="25.7582%" x2="73.7136%" y2="74.2418%">
   <stop offset="0" style="stop-opacity:1; stop-color:#8FDB25"/>
   <stop offset="1" style="stop-opacity:1; stop-color:#52820E"/>
  </linearGradient>
  <linearGradient id="id1" gradientUnits="userSpaceOnUse" xlink:href="#id0" x1="809.53" y1="630.8" x2="1332.7" y2="1747.56">
  </linearGradient>
 </defs>
 <g id="Layer_x0020_1">
  <metadata id="CorelCorpID_0Corel-Layer"/>
  <path class="fil0" d="M2072.23 1617.32c14.73,0 26.67,11.94 26.67,26.67 0,14.73 -11.94,26.67 -26.67,26.67l0 -53.34zm-1400.48 -379.41c-54.24,-23.35 -120.4,-106.91 -162.35,-148.69 -36.02,-35.87 -51.79,-61.67 -80.11,-84.38l-54.51 37.84 275.84 274.59c66.78,67.5 96.7,95.07 228.9,107.29 81.59,7.52 117.48,102.61 173.69,139.9 -29.11,31.12 -38.12,45.95 -55.89,52.86l-927.32 0 0 53.34 2002.23 0 0 -53.34 -693.43 0c26.48,-37.9 118.26,-128.7 153.75,-147.38 29.3,26.69 59,86.94 115.48,52.46 52.09,-31.81 232.74,-243.01 271.74,-300.13 57.51,-84.21 231.35,-413.59 96.33,-498.78 -98.91,-62.39 -196.28,77.18 -239.35,120.09 -66.29,66.04 -90.72,90.78 -156.93,156.88l-382.16 378c-281.31,-217.23 -18.04,-161.03 -252.92,-395.34l-246.39 -245.99c-13,-13.18 -21.87,-15.97 -34.03,-27.34l-24.11 43.29c9.54,9.24 4.33,2.8 16.52,14.53 51.71,49.71 185.85,173.76 210.62,219.99 -16.61,31.29 -19.02,33.3 -47.25,53.46 -98.86,-67.14 -157.08,-173.62 -225.13,-215.26l-42.02 42.02c43.6,52.98 190.24,195.93 217.24,223.68 -20.62,27.48 -22.46,30.44 -53.73,46.29 -44,-25.72 -142.42,-130.95 -191.69,-182.73 -10.02,-10.53 -18.05,-22.27 -27.82,-31.24l-39.12 39.12c50.41,74.54 184.85,147.91 213.67,230.07l-39.76 44.89 0 -0zm30.52 38.3c36.77,-41.73 78.72,-79.91 120.48,-121.61 40.7,-40.65 85.2,-104 140.22,-122.22 112.83,119.07 53.01,141.79 81.81,226.93 13.59,40.21 121.97,137.98 146.69,164.74l-97.65 100.57c-38.38,-40.07 -106.25,-134.29 -163.76,-151.16 -129.17,-37.89 -150.31,19.48 -227.79,-97.26l0 0.01zm386.91 341.11l366.67 -366.77c129.74,-129.74 217.91,-217.31 347.61,-346.71 22.15,-22.1 170.97,-212.26 202.11,-103.32 14.25,49.88 2.1,142.61 -69.05,281.65 -41.28,84.98 -85.9,142.12 -135.39,200.61 -37.66,44.54 -154.61,167.9 -198.96,189.48 -85.32,-117.41 -117.7,-50.04 -219.63,51.91 -46.51,46.53 -65.19,77.87 -105.47,93.15l-187.89 0zm-1019.18 53.34c-14.73,0 -26.67,-11.94 -26.67,-26.67 0,-14.73 11.94,-26.67 26.67,-26.67l0 53.34z"/>
  <path class="fil1" d="M1887.16 963.96l0 0c9.7,9.82 -3.67,38.77 -29.85,64.65l-256.06 253.04c-26.19,25.88 -55.29,38.9 -64.99,29.08l-0 -0c-9.7,-9.81 3.67,-38.76 29.85,-64.64l256.05 -253.04c26.19,-25.87 55.29,-38.9 65,-29.08z"/>
  <path class="fil2" d="M523.54 513.13c8.78,-3.46 20.33,-18.39 26.2,-29.13 22.14,-40.5 10.91,-98.29 -11.09,-133.73 -23.83,-38.41 -31.2,-91.65 -30.56,-139.28 0.14,-10.07 4.82,-42.43 7.6,-48.81 -3.42,1.54 -3.09,3.25 -4.63,7.23 -1.4,3.62 -2.34,6.28 -3.72,10.33 -18.2,53.43 -15.82,112.58 -1.89,164.11 9.57,35.42 48.21,119 23.37,161.61 -2.12,3.64 -3.67,4.2 -5.29,7.67l0.01 0z"/>
  <path class="fil2" d="M596.86 353.13c8.78,-3.46 20.33,-18.39 26.2,-29.13 22.14,-40.5 10.91,-98.29 -11.09,-133.73 -23.83,-38.41 -31.2,-91.65 -30.56,-139.28 0.14,-10.07 4.82,-42.43 7.6,-48.81 -3.42,1.54 -3.09,3.25 -4.63,7.23 -1.4,3.62 -2.34,6.28 -3.72,10.33 -18.2,53.43 -15.82,112.58 -1.89,164.11 9.57,35.42 48.21,119 23.37,161.61 -2.12,3.64 -3.67,4.2 -5.29,7.67l0.01 0z"/>
  <path class="fil1" d="M226.7 1060.95c116.41,-40.33 303.55,-139.38 446.28,-381.43 0.89,-1.65 2.13,-3.74 3.75,-6.61 13.52,-24.11 29.02,-62.51 38.57,-87.4 8.73,-22.73 16,-47.57 22.21,-69.35 9.09,-31.87 11.47,-41.34 0.66,-69.46 27.45,11.37 35.08,45.69 31.11,66.95 -9.78,52.38 -52.79,168.37 -82.28,211.2 -67.19,126.44 -193.13,227.88 -203.91,236.42 -38.1,30.17 -83.13,58.59 -124.66,79.53 -45.13,22.76 -138.8,61.44 -186.81,66.39 -12.69,1.3 -50.65,-8.24 -56.61,-30.75 10.6,1.95 16.23,5.93 28.25,5.89 18.51,-0.06 64.17,-14.71 83.43,-21.38l0.02 0zm-143.84 -49.37c-12.93,25.29 -11.38,32.79 -12.85,55.19 -12.42,-21.49 -0.07,-72.15 23.59,-96.01 31.34,-31.61 45.47,-29.39 85.59,-43.13 26.74,-9.17 51.02,-19.87 76.2,-32.51 89.37,-44.87 160.37,-103.88 222.88,-180.38 22.85,-27.96 44.9,-59.91 62.29,-91.71 24.01,-43.89 39.05,-78.6 54.05,-125 7.26,-22.47 10.08,-42.19 30.13,-62.46 16.33,-16.52 48.86,-37.61 68.63,-33.65 -13.05,7.27 -27.01,14.27 -38.61,25.92 -36.31,36.47 -39.91,92.78 -72.96,157.28 -33.79,65.93 -45.61,82.41 -88.34,138.21l-43.85 49.64 -42.26 38.25c-52.94,44.8 -103.18,79.41 -165.94,107.55 -20.18,9.05 -35.4,15.02 -55.17,22.42 -37.23,13.93 -78.29,21.33 -103.37,70.4l-0.02 -0.01zm-28.6 -31.58c-4.37,8.99 -6.81,17.23 -8.58,28.49 -4.46,28.43 4.92,64.24 27.43,86.53 42.13,41.69 72.66,40.17 120.91,28.3 114.86,-28.28 265.36,-108.37 346.36,-189.9 9.19,-9.23 20.74,-18.63 31.63,-29.58 104.54,-105.15 178.07,-237.36 215.04,-379.69 12.85,-49.47 10.74,-78.9 -31.87,-121.13 -30.93,-30.67 -100.35,-36.15 -138.03,1.57 -41.59,41.62 -32.72,70.63 -55.44,127.74l-16.34 39.94c-18.13,44.37 -63.73,118.46 -104.31,159.4 -12.59,14.64 -14.85,18.67 -31.69,34.21 -75.02,69.26 -150.85,113.19 -249.13,145.65 -35.28,11.65 -78.71,12.44 -105.96,68.47l-0.02 0z"/>
  <path class="fil3" d="M822.76 1154.6c-41.76,41.7 -83.71,79.88 -120.48,121.6 77.48,116.74 98.62,59.37 227.79,97.26 57.51,16.87 125.38,111.09 163.76,151.16l97.65 -100.57c-24.72,-26.76 -133.1,-124.53 -146.69,-164.74 -28.8,-85.14 31.02,-107.86 -81.81,-226.93 -55.02,18.22 -99.52,81.57 -140.22,122.22z"/>
  <path class="fil3" d="M1455.85 1250.55l-366.67 366.77 187.89 0c40.28,-15.28 58.96,-46.62 105.47,-93.15 101.93,-101.95 134.31,-169.32 219.63,-51.91 44.35,-21.58 161.3,-144.94 198.96,-189.48 49.49,-58.49 94.11,-115.63 135.39,-200.61 71.15,-139.04 83.3,-231.77 69.05,-281.65 -31.14,-108.94 -179.96,81.22 -202.11,103.32 -129.7,129.4 -217.87,216.97 -347.61,346.71zm145.4 31.1c-26.19,25.88 -55.29,38.9 -65,29.08 -9.7,-9.81 3.67,-38.76 29.85,-64.64l256.05 -253.04c26.19,-25.87 55.29,-38.9 65,-29.08 9.7,9.82 -3.67,38.77 -29.85,64.65l-256.06 253.04z"/>
 </g>
</svg>
