<?xml version="1.0" encoding="UTF-8"?>
<!DOCTYPE svg PUBLIC "-//W3C//DTD SVG 1.1//EN" "http://www.w3.org/Graphics/SVG/1.1/DTD/svg11.dtd">
<!-- Creator: CorelDRAW 2020 (64-Bit) -->
<svg xmlns="http://www.w3.org/2000/svg" xml:space="preserve" width="2.698in" height="2.452in" version="1.1" style="shape-rendering:geometricPrecision; text-rendering:geometricPrecision; image-rendering:optimizeQuality; fill-rule:evenodd; clip-rule:evenodd"
viewBox="0 0 2698 2452"
 xmlns:xlink="http://www.w3.org/1999/xlink"
 xmlns:xodm="http://www.corel.com/coreldraw/odm/2003"
 xmlns:rdf="http://www.w3.org/1999/02/22-rdf-syntax-ns#"
 xmlns:cc="http://creativecommons.org/ns#"
 xmlns:dc="http://purl.org/dc/elements/1.1/">
 <defs>
  <style type="text/css">
   <![CDATA[
    .fil0 {fill:url(#id0);fill-rule:nonzero}
   ]]>
  </style>
  <linearGradient id="id0" gradientUnits="userSpaceOnUse" x1="-0.99" y1="1226.85" x2="2696.52" y2="1226.85">
   <stop offset="0" style="stop-opacity:0.0980392; stop-color:black"/>
   <stop offset="1" style="stop-opacity:0.0980392; stop-color:black"/>
  </linearGradient>
 </defs>
 <g id="Layer_x0020_1">
  <metadata id="CorelCorpID_0Corel-Layer"/>
  <path id="path4190" class="fil0" d="M1878.15 2452.07c-3.82,-2.79 -0.98,-7.35 6.13,-9.86 0.54,-0.19 2.87,-6.87 5.17,-14.85 9.09,-31.5 16.98,-36.22 34.02,-20.36 12.59,11.73 16.08,19.15 11.43,24.3 -7.83,8.66 -51.47,24.63 -56.74,20.77l0 0zm34.81 -21.16c14.86,-6.26 14.46,-5.15 5.12,-14.06 -11.24,-10.72 -13.67,-9.87 -17.73,6.24 -3.95,15.69 -4.81,15.16 12.61,7.83l0 0zm603.44 14.57c-0.52,-1.35 0.27,-2.96 2.25,-4.56 7.35,-5.94 28.2,-25.84 32.66,-31.16l4.88 -5.83 -23.96 -19.5c-13.18,-10.73 -24.37,-19.65 -24.87,-19.84 -1.88,-0.7 -42.15,48 -44.43,53.72 -1.56,3.93 -7.91,3.48 -8.49,-0.61 -0.53,-3.73 17.43,-28.78 36.76,-51.26 8.59,-9.99 9.02,-8.58 -6.29,-20.71 -10.83,-8.58 -13.08,-11.8 -10.48,-14.93 2.69,-3.24 5.38,-2.02 18.24,8.26 14.62,11.69 13.32,11.24 17.7,5.99 1.88,-2.25 7.89,-8.8 13.36,-14.55 12.11,-12.74 12.71,-9.99 -5.26,-24.17 -18.92,-14.93 -20.18,-16.27 -18.78,-19.94 1.91,-4.98 5.89,-3.2 22.36,9.98 8.81,7.06 16.79,13.41 17.72,14.13 1.26,0.97 2.54,0.33 5.05,-2.51 20.1,-22.85 21.56,-24.03 25.18,-20.4 2.97,2.97 1.37,5.95 -9.83,18.22l-11.34 12.44 4.72 4.3c9.98,9.09 23.63,22.5 31.74,31.19l8.46 9.06 5.02 -6.5c4.31,-5.59 12.53,-18.67 15.58,-24.8 1.31,-2.64 5.63,-3.03 7.57,-0.69 2.3,2.78 0.27,7.13 -11.72,25.11l-9.98 14.96 2.36 2.97c27.66,34.91 32.4,43.52 24.44,44.44 -2.74,0.32 -4.9,-1.98 -16.24,-17.29 -18.45,-24.89 -15.57,-23.95 -27.74,-9.07l-10.26 12.56 6.62 5.53c3.64,3.04 11.02,9.17 16.4,13.62 9.64,7.98 11.24,10.62 8.26,13.59 -2.68,2.69 -4.39,1.74 -21.32,-11.83l-16.66 -13.35 -12.11 11.88c-21.33,20.92 -34.86,28.68 -37.59,21.56l0 0zm64.85 -68.23l5.7 -6.61 -6.54 -7.55c-32.43,-37.43 -36.54,-39.18 -52.28,-22.3 -16.32,17.5 -17.7,12.94 10.97,36.38l24.23 19.81 6.11 -6.56c3.37,-3.61 8.68,-9.54 11.81,-13.17l0 0zm-1697.56 66.37c-2.67,-2.67 -1.63,-12.83 2.9,-28.22 5.22,-17.75 5.19,-17.27 1.59,-18.85 -3.57,-1.57 -4.22,-4.74 -1.52,-7.44 4.98,-4.98 44.19,22.56 46.77,32.85 2.46,9.82 -42.15,29.25 -49.74,21.66l0 0zm29.75 -16.81c5.05,-1.95 8.99,-4.17 8.76,-4.92 -0.52,-1.69 -21.18,-17.47 -21.91,-16.74 -0.75,0.74 -8.02,26.4 -8.02,28.29 0,1.13 1.64,0.93 5.99,-0.76 3.3,-1.28 10.13,-3.92 15.18,-5.87l0 0zm390.94 9.25c-5,-7.76 -9.27,-37.54 -10.49,-73.26 -0.6,-17.45 -1.25,-24.04 -2.5,-25.07 -1.98,-1.65 -2.16,-4.04 -0.52,-7.11 0.64,-1.2 1.48,-3.19 1.85,-4.4 1.13,-3.65 8.1,-2.96 9.07,0.9 0.9,3.58 0.51,3.43 18.82,7 76.24,14.86 84.74,25.26 43.89,53.76 -24.84,17.32 -38.73,29.88 -48.23,43.6 -5.28,7.62 -9,9.06 -11.89,4.58l0 -0zm46.01 -49.9c35.85,-25.73 35.37,-24.38 11.22,-31.91 -12.78,-3.98 -56.69,-14.03 -57.95,-13.26 -1.25,0.78 1.94,52.13 4.53,72.89l0.75 5.97 9.12 -8.52c5.02,-4.68 19.56,-16.01 32.33,-25.17l0 0zm488.52 49.31c-2.24,-5.84 34.16,-101.09 47.28,-123.71 7.35,-12.67 6.72,-13 30.98,16.04 30.96,37.06 84.93,87.69 91,85.36 2.53,-0.97 8.64,-13.42 20.07,-40.87 32.17,-77.25 43.04,-82.91 69.04,-35.94 43.08,77.81 45.76,78.01 107.13,7.85 4.51,-5.16 11.04,-12.52 14.51,-16.36 3.47,-3.84 13.26,-15.01 21.76,-24.81 25.02,-28.87 23.61,-28.87 34.45,0.24 11,29.54 28.94,61.68 42.92,76.83 5.98,6.49 6.43,11.16 1.15,11.78 -8.59,1 -21.38,-19.44 -46.01,-73.55 -13.32,-29.26 -11.61,-26.68 -15.35,-23.17 -1.72,1.61 -9.76,11.13 -17.87,21.15 -50.07,61.83 -68.39,81.42 -83.13,88.92 -17.27,8.78 -38.75,-10.76 -67.07,-61.03 -13.05,-23.16 -15.12,-26.5 -16.46,-26.5 -3.5,0 -22.29,29.86 -33.06,52.52 -27.96,58.85 -25.68,55.58 -36.51,52.33 -16.87,-5.06 -59.32,-45.5 -100.8,-96.02 -3.7,-4.51 -7.08,-8.34 -7.5,-8.51 -1.39,-0.56 -35.69,80.05 -42.44,99.7 -6.83,19.89 -11.17,25.36 -14.1,17.73l0 0zm211.93 -2.51c-2.48,-1 -3.57,-9.43 -1.43,-11.05 1,-0.76 2.86,-4.21 4.15,-7.68 14.42,-38.85 30.2,-43.26 44.45,-12.41 9.8,21.2 0.78,29.44 -32.24,29.44 -4.17,0 -7.92,0.57 -8.35,1.26 -0.81,1.31 -3.92,1.52 -6.58,0.44l0 0zm36.46 -13.84c6.85,-1.29 6.64,-3.15 -1.78,-16.04 -4.35,-6.65 -8.48,-11.96 -9.17,-11.8 -1.3,0.31 -12.35,21.93 -13.89,27.17l-0.87 2.96 11.17 -0.83c6.14,-0.46 12.69,-1.12 14.55,-1.47l0 0zm112.06 2.68c-1.4,-1.68 -1.33,-2.73 0.43,-6.41 1.15,-2.42 2.1,-5.19 2.1,-6.14 0,-0.96 1.34,-2.79 2.98,-4.06 1.64,-1.27 7.24,-7.99 12.46,-14.93 27.43,-36.48 40.32,-41.76 44.43,-18.19 1.02,5.86 3.38,15.76 5.23,21.99 6.44,21.67 6.28,20.83 4.25,22.11 -2.9,1.83 -11.55,1.44 -33.45,-1.51 -23.4,-3.16 -25.52,-2.89 -28.97,3.63 -2.77,5.24 -6.79,6.74 -9.46,3.51l0 -0zm61.43 -15.45c-0.38,-1.22 -2.14,-6.24 -3.91,-11.17 -1.78,-4.93 -3.77,-12.8 -4.43,-17.48 -1.5,-10.59 -1.53,-10.61 -7.4,-6.55 -7.38,5.11 -25.5,26.25 -25.5,29.74 0,0.57 3.26,1.42 7.26,1.89 3.99,0.48 11.51,1.93 16.72,3.22 12.71,3.18 18.19,3.28 17.28,0.34l0 0zm-1499.74 10.98c-4.67,-2.82 -10.65,-8.06 -27.13,-23.74 -10.34,-9.84 -24.7,-22.59 -37.48,-33.28 -7.06,-5.89 -7.29,-5.98 -10.85,-4.14 -3.82,1.98 -9.07,0.09 -9.07,-3.25 0,-2.49 10,-11.44 11.95,-10.69 1.05,0.4 16.54,-6.76 35.09,-16.22 66.71,-34.04 70.52,-32.85 62.69,19.57 -10.87,72.83 -13.07,79.09 -25.2,71.76l0 0zm6.21 -15.93c2.69,-10.11 11.14,-85.58 9.74,-86.98 -1.13,-1.13 -73.48,31.66 -76.85,34.83 -0.54,0.5 4,4.82 10.09,9.59 10.11,7.93 37.33,31.04 50.04,42.5 2.85,2.57 5.31,4.7 5.45,4.73 0.15,0.03 0.83,-2.07 1.53,-4.68l0 0zm-531.85 -23.34c-17.74,-18.3 -37.39,-47.44 -101.83,-151.15 -18.72,-30.15 -36.22,-56.78 -44.62,-68 -2.29,-3.03 -4.16,-6.69 -4.16,-8.07 0,-10.89 59.52,-65.63 160.78,-147.87 6.84,-5.55 16.77,-13.78 22.07,-18.3 5.3,-4.51 12.13,-10.23 15.18,-12.71l5.54 -4.51 -2.2 -7.83c-2.94,-10.48 -2.45,-11.4 10.28,-19.18 31.41,-19.2 43.7,-22.87 57.15,-17.09 1.73,0.74 1.87,-0.01 1.04,-5.82 -0.52,-3.67 -1,-12.07 -1.07,-18.66 -0.07,-6.59 -1.23,-22.77 -2.59,-35.96 -3.17,-30.81 -3.28,-43.85 -0.39,-46.74 5.88,-5.88 53.07,4.13 62.88,13.35 3.74,3.52 24.57,-27.17 29.15,-42.93 4.4,-15.15 5.99,-15.8 17.67,-7.14 8.89,6.58 33.93,32.3 35.12,36.07 1.46,4.62 -3.76,12.83 -17.39,27.28 -7.16,7.6 -17.47,20.06 -22.92,27.69 -5.45,7.63 -11.57,16.01 -13.59,18.61 -4.88,6.25 -3.58,5.97 6.46,-1.41 33.09,-24.35 91.78,-63.21 95.38,-63.21 7.5,0 20.08,16.56 20.04,26.39 -0.04,11.57 -6.78,17.59 -62.79,56.05 -13.81,9.48 -24.73,17.24 -24.27,17.24 0.46,0 9.2,-4.91 19.43,-10.91 60.76,-35.66 82.35,-43.18 87.15,-30.35 9.2,24.59 5.9,29.86 -29.39,46.88 -35.35,17.05 -74.57,40.23 -116.76,69.01 -25.55,17.43 -24.39,16.43 -22.3,19.29 1.65,2.26 2.19,2.03 10.44,-4.5 59.69,-47.19 111.33,-75.57 137.58,-75.57 13.4,0 18.87,5.23 31.8,30.41l6.22 12.11 17.48 -15.7c52.26,-46.95 70.15,-56.85 81.78,-45.22 13.63,13.63 8.44,23.43 -27.98,52.81 -26.13,21.09 -28.12,23.06 -24.44,24.22 6.86,2.18 -1.4,38.96 -11,49.01l-3.4 3.56 10.72 -4.64c30.3,-13.1 34.33,-13.33 39.79,-2.26 9.56,19.4 9.14,21.25 -7.43,32.59 -11.71,8.01 -11.75,7.99 6.32,3.68 58.28,-13.9 71.87,-13.89 75.46,0.06 6.24,24.28 -2.67,33.63 -36.25,37.99 -8.49,1.11 -24.84,3.95 -36.33,6.32 -11.49,2.37 -21.82,4.31 -22.96,4.31 -1.25,0 -3.07,2.24 -4.55,5.59 -4.49,10.15 -14.84,15.92 -50.64,28.24 -17.18,5.91 -51.6,20.13 -54,22.31 -0.21,0.19 13.42,0.34 30.28,0.33 60.65,-0.04 69.48,4.37 65.37,32.67 -4.46,30.64 -4.65,30.78 -27.05,19.52 -17.8,-8.94 -34.49,-14.65 -50.47,-17.25 -6.29,-1.03 -13.13,-2.15 -15.21,-2.49l-3.79 -0.62 4.06 3.22c2.24,1.77 14.63,10.86 27.53,20.19 58.87,42.56 63.53,48.67 53.39,70.15 -9.7,20.55 -9.23,20.74 -50.5,-19.42 -36.94,-35.96 -36.39,-35.58 -36.39,-30.79 0,3.63 -2.63,6.69 -9.74,11.35 -2.63,1.72 -10.45,7.12 -17.39,12.01 -27.87,19.62 -38.72,25.22 -45.54,23.51 -1.92,-0.48 -8.3,1.4 -18.44,5.45 -25.83,10.3 -58.76,21.87 -102.56,36.02 -57.28,18.51 -98.49,32.47 -111.67,37.82 -1.27,0.52 -4.49,-1.87 -9.61,-7.13l0.03 0.13zm38.65 -14c17.69,-5.94 52.61,-17.43 77.59,-25.54 52.69,-17.1 106.5,-36.35 113.2,-40.49 0.52,-0.33 -0.79,-3.54 -2.93,-7.15 -2.13,-3.61 -8.69,-16.49 -14.56,-28.63 -25.65,-53.02 -38.16,-76.32 -66.04,-123.01 -45.13,-75.56 -71.39,-122.71 -82.56,-148.25 -5.67,-12.96 -6.22,-13.6 -9.16,-10.67 -1.26,1.26 -22.73,19.32 -47.71,40.13 -24.98,20.81 -45.7,38.17 -46.05,38.57 -0.35,0.4 -6.02,5.27 -12.61,10.82 -49.66,41.82 -84.61,73.02 -87.19,77.83 -1.07,2 -0.83,3.08 1.13,5.24 1.36,1.5 6.33,8.4 11.04,15.33 4.72,6.94 11.72,17.16 15.57,22.71 16.3,23.5 65.24,98.07 79.5,121.12 4.72,7.63 12.11,19.56 16.43,26.5 4.31,6.94 10.5,18.11 13.75,24.83 3.25,6.72 6.47,12.05 7.17,11.83 0.69,-0.21 15.74,-5.24 33.43,-11.18l0 0zm24.6 -60.12c-80.2,-21.04 -136.16,-146.54 -81.89,-183.67 23.11,-15.81 69.04,-17.9 92.28,-4.2 22.53,13.28 57.1,66.66 57.1,88.17 0,1.24 1.98,4.63 4.39,7.52 31.87,38.15 -20.73,105.62 -71.89,92.2l-0 0zm27.06 -9.55c19.51,-3.66 41.08,-30.07 42.67,-52.25l0.61 -8.45 -4.51 0.53c-5.19,0.61 -5.27,0.44 -6.43,-14.25 -5.44,-68.93 -58.18,-113.68 -116.57,-98.91 -83.16,21.04 -1.35,189.36 84.24,173.33l0 0zm301.75 11.73c6,-11.77 5.64,-14.47 -3.08,-22.58 -10.06,-9.36 -85.46,-65.18 -84.67,-62.68 4.09,12.91 7.02,16.36 45.34,53.65 42.69,41.54 38.81,38.65 42.41,31.61l0 0zm-132.91 -15.77c4.88,-3.3 17.51,-12.21 28.06,-19.8l19.19 -13.81 -0.58 -5.12c-1.73,-15.26 -35.65,-74.56 -92.87,-162.12 -43.45,-66.49 -63.65,-96.26 -65.83,-96.77 -1.61,-0.51 -2.48,-1.77 -2.48,-3.79 0,-1.69 -2.33,-6.51 -5.18,-10.7 -3.97,-5.85 -5.02,-8.43 -4.49,-11.07 0.43,-2.15 -0.16,-4.84 -1.55,-7.13 -2.43,-3.91 -22.57,-29.52 -23.29,-29.52 -3.71,0 -51.28,22.46 -51.28,24.22 0,0.54 8.43,17.6 18.73,37.91 19.78,38.99 28.47,54.74 76.08,137.86 45.91,80.14 57.1,101.11 77.35,144.87 6.53,14.12 8.06,16.48 11.97,18.47 6.32,3.21 6.34,3.21 16.18,-3.44l-0 -0.07zm142.05 -60.56c0.34,-1.22 1.25,-6.46 2.02,-11.67 0.77,-5.2 1.67,-11.22 2.01,-13.36 1.53,-9.82 -26.5,-12.33 -96.15,-8.6 -23.72,1.27 -23.77,6.17 -0.06,6.22 20.8,0.05 36.54,4.76 74.06,22.15 18.11,8.39 17.3,8.16 18.12,5.26l0 0zm-88.77 -54.25c19.96,-10.61 39.68,-18.97 64.67,-27.42 32,-10.81 38.58,-14.81 33.19,-20.2 -2.31,-2.32 -2.35,-2.54 -0.81,-5.42 2.34,-4.37 -0.22,-5.69 -7.65,-3.93 -18.48,4.36 -71.81,23.64 -92.56,33.46 -13.4,6.34 -28.58,11.94 -32.39,11.94 -3.17,0 -3.18,-0.04 4.78,14.01l7.07 12.5 5.85 -4.28c3.22,-2.36 11.25,-7.15 17.84,-10.66l0 0zm-20.54 -29.61c6.4,-3.31 18.87,-8.87 27.72,-12.38 25.18,-9.97 58.81,-29.17 106.69,-60.87 9.54,-6.32 17.31,-12.07 17.27,-12.77 -0.32,-5.43 -5.9,-16.38 -8.14,-15.98 -6.93,1.23 -103.73,49.33 -162.88,80.93 -18.96,10.13 -17.96,7.64 -8.98,22.38l7.77 12.76 4.46 -4.03c2.45,-2.21 9.69,-6.73 16.09,-10.03l0 0zm-25.66 -28.48c21.63,-12.26 46.5,-25.59 81.85,-43.85 22.54,-11.65 29.26,-15.61 25.54,-15.06 -2.78,0.4 -15.18,1.3 -27.57,2l-22.52 1.27 -17.85 13.43c-15.92,11.97 -26.87,21.12 -43.08,35.96 -2.78,2.54 -7.09,6.24 -9.57,8.21 -3.79,3 -5.33,6.72 -2.78,6.72 0.38,0 7.57,-3.9 15.98,-8.67zm171.11 -3.41c5.9,-1.08 21.8,-2.42 35.33,-2.98 34.91,-1.44 39.1,-3.85 39.11,-22.49 0.01,-8.82 -0.1,-9.15 -3.03,-9.15 -3.72,0 -68.5,11.69 -84.35,15.21 -6.3,1.41 -12.27,2.24 -13.26,1.86 -1.39,-0.5 -29.31,14.89 -29.31,16.28 0,0.17 4.97,-0.71 11.04,-1.95 17.5,-3.57 21.77,-3.2 25.46,2.22 2.34,3.44 3.68,4.32 5.68,3.77 1.44,-0.4 7.44,-1.61 13.34,-2.69l-0 -0.08zm-145.37 -41.26c6.44,-4.87 11.48,-9.08 11.2,-9.35 -0.92,-0.92 -82.36,12.57 -83.65,13.86 -0.16,0.16 5.11,8.63 11.71,18.81l12 18.52 18.51 -16.5c10.18,-9.07 23.78,-20.48 30.22,-25.35l0 0zm-44.52 -11.1c14.56,-2.81 36.42,-6.27 48.57,-7.68 12.15,-1.41 23.9,-3.33 26.09,-4.27 3.05,-1.3 4.87,-1.38 7.65,-0.33 2.61,0.99 10.13,1.02 26.32,0.11 33.52,-1.87 37.75,-4.53 44.12,-27.68 4.5,-16.37 4.14,-19.74 -1.46,-13.69 -3.54,3.81 -4.81,3.91 -8.09,0.63 -1.39,-1.39 -3.44,-2.52 -4.55,-2.52 -4.94,0 -173.46,34.48 -179.22,36.66 -1.72,0.65 -4.5,1.19 -6.19,1.19 -4.07,0 -4.26,-0.5 5.24,13.76l8.31 12.48 3.36 -1.78c1.85,-0.98 15.27,-4.08 29.83,-6.89l0 0zm-51.79 -25.11c0.2,0 18.76,-7.02 41.22,-15.59 59.14,-22.56 64.72,-24.36 92.35,-29.74 31.07,-6.06 29.53,-3.08 14.72,-28.41 -10.82,-18.52 -15.32,-19.41 -41.99,-8.28 -23.5,9.8 -114.43,69.07 -114.43,74.58 0,2.8 6.84,11.85 7.3,9.65 0.25,-1.22 0.63,-2.21 0.83,-2.21l0 0zm135.91 -32.91c22.9,-4.6 29.48,-6.21 25.44,-6.21 -2.98,0 -52.18,10.21 -54.87,11.39 -3.49,1.53 -7.05,2.15 29.42,-5.18l0 0zm-127.63 -18.67c43.04,-28.83 86.63,-54.27 110.39,-64.41 29.17,-12.45 29.82,-13.19 25.2,-28.77l-1.93 -6.5 -6.58 2.59c-14.63,5.76 -64.99,34.95 -128.97,74.74 -6.24,3.88 -18.3,11.19 -26.78,16.24 -17.94,10.67 -17.02,8.78 -9.65,19.87l5.83 8.78 7.1 -5.14c3.91,-2.83 15.33,-10.65 25.39,-17.4l0 0zm179.79 10.41l11.35 -0.83 5.68 -7.6c6.04,-8.09 17.37,-17.35 32.8,-26.81 24.71,-15.15 30.9,-23.57 23.88,-32.48 -5.23,-6.66 -18.76,2.73 -74.98,52.05 -22.38,19.64 -21.19,18.28 -15.14,17.31 2.78,-0.44 10.16,-1.18 16.4,-1.63l0 0zm-206.28 -38.86c13.69,-10.93 25.39,-19.67 46.19,-34.48 4.93,-3.52 26.51,-18.14 47.94,-32.5 50.52,-33.85 50.83,-34.17 43.02,-45.5 -6.82,-9.9 -5.43,-10.25 -31.26,7.89 -12.79,8.98 -33.76,23.34 -46.6,31.91 -41.87,27.94 -92.93,64.39 -95.08,67.87 -0.35,0.57 2.27,6.21 5.84,12.53l6.48 11.48 4.47 -3.8c2.46,-2.09 11,-9.02 18.98,-15.39l0 0zm-14.87 -32.93c8.77,-6.24 16.2,-12.29 16.51,-13.43 1.14,-4.12 40.97,-57.39 55.29,-73.95l14.66 -16.95 -15.29 -14.9 -15.29 -14.9 -1.67 5.74c-2.01,6.89 -3.47,9.31 -13.54,22.41 -10.26,13.35 -17.19,24.31 -27.87,44.16 -16.15,29.99 -19.1,36.46 -24.48,53.62 -2.94,9.37 -5.64,17.82 -6,18.78 -0.97,2.57 0.2,1.87 17.67,-10.58l0 0zm-23.61 -15.19c3.87,-6.57 9.02,-17.67 11.46,-24.67 6.7,-19.26 11.61,-31.24 16.35,-39.92l4.29 -7.86 -6.59 -1.91c-44.13,-12.82 -42.17,-14.08 -38.93,24.88 1.52,18.22 2.75,38.52 2.74,45.11 -0.02,21.12 0.66,21.39 10.68,4.37l0 0zm666.15 456.85c-113.26,-22.13 -182.65,-249.65 -105.22,-344.98l6.51 -8.02 -0.87 -9.65c-5.48,-60.78 -21.51,-98.04 -47.08,-109.42 -22.8,-10.15 -23.69,-11.44 -23.6,-34.6 0.16,-40.5 27.93,-47.42 62.35,-15.55l9.17 8.49 2.63 -3.72c19.45,-27.6 44.93,-25.43 62.1,5.27 12.21,21.83 7.94,31.94 -17.58,41.65 -24.97,9.5 -24.93,14.7 0.67,89l7.69 22.3 9.63 0.8c66.24,5.53 102.84,28.11 163.61,100.95 98.46,118 98.29,172.44 -0.68,222.62 -59.8,30.32 -98.78,40.83 -129.32,34.86l-0 0zm46.5 -12.24c23.89,-6.34 80.42,-31.1 101.04,-44.26 68.53,-43.73 61.89,-89.09 -29.04,-198.46 -60.26,-72.48 -83.57,-85.97 -155.72,-90.13 -12.84,-0.74 -27.89,-1.64 -33.44,-2l-10.09 -0.66 -6.13 5.07c-3.37,2.79 -7.35,5.08 -8.83,5.08 -6.25,0 -20.35,30.42 -25.28,54.54 -29.67,144.99 64.97,298 167.5,270.81l0 -0.01zm118.46 -95.38c-4.65,-1.88 1.65,-14.3 7.26,-14.3 3.5,0 5.5,4.31 3.66,7.89 -3.34,6.46 -6.38,8.25 -10.92,6.42l0 0zm-66.61 -4.3c-1.29,-2.08 0.59,-12.14 2.57,-13.78 5.66,-4.7 10.33,3.09 7.04,11.74 -1.36,3.57 -7.82,4.95 -9.61,2.05zm8.57 -84.02c-3.65,-1.47 -1.09,-14.39 3.32,-16.74 5.89,-3.15 8.59,1.44 5.75,9.8 -2.46,7.23 -4.5,8.8 -9.07,6.95l0 0zm-90.9 -18.3c-1.79,-1.79 -1.96,-5.22 -0.4,-8.28 0.61,-1.2 1.62,-3.89 2.24,-5.98 2.03,-6.83 8.54,-5.46 8.98,1.89 0.58,9.56 -6.05,17.13 -10.81,12.36l0 0zm-3.32 -73.64c-2.7,-2.7 -2.51,-4.02 1.29,-9.01 4.27,-5.59 9.74,-5.54 10.39,0.1 0.77,6.74 -7.52,13.07 -11.68,8.91zm-63.63 -7.8c-1.06,-2 -0.27,-10.9 1.68,-18.84 0.76,-3.11 4.26,-4.67 7.6,-3.38 2.5,0.96 2.02,16.96 -0.65,21.97 -1.65,3.07 -7.04,3.23 -8.62,0.25l0 0zm-18.15 -62.7c7.81,-0.5 14.19,-1.3 14.19,-1.76 0,-0.47 -3.7,-10.68 -8.22,-22.7 -21.17,-56.29 -22.56,-87.37 -4.1,-92.32 20.15,-5.41 27.5,-11.87 27.43,-24.15 -0.09,-17.12 -20.09,-31.18 -34.57,-24.31 -8.96,4.25 -17.88,19.7 -14.75,25.56 4.08,7.62 -0.11,14.49 -8.94,14.67 -7.9,0.16 -9.92,-3.89 -7.19,-14.39l1.99 -7.65 -8.44 -7.96c-25.96,-24.49 -45.63,-24.11 -49.3,0.95 -2.53,17.23 1.03,23.54 17.57,31.18 29.94,13.83 44.22,43.4 52.57,108.83 2.15,16.83 2.43,17.68 5.44,16.1 1.17,-0.62 8.52,-1.54 16.32,-2.04l0 0zm680.98 310.89c-47.62,-10.63 -144.21,-37.2 -175.37,-48.24 -9.24,-3.27 -5.01,-16.92 15.03,-48.56 5.37,-8.48 11.18,-18.96 12.91,-23.29 11.94,-29.88 19.21,-55.96 28.77,-103.13 11.41,-56.29 15.52,-72.95 18.98,-76.96 0.9,-1.04 2.3,-5.3 3.11,-9.46 5.76,-29.57 11.23,-36.81 26.29,-34.77 7.5,1.01 7.08,1.28 8.94,-5.68 5.11,-19.04 16.36,-23.93 40.83,-17.76l7.25 1.83 3.26 -10.93c15.91,-53.3 22.42,-66.51 30.65,-62.11 8.15,4.36 11.93,22.22 12.17,57.49 0.24,36.11 1.02,38.34 14.33,41.1 13.3,2.76 17.81,11.3 17.82,33.71l0 10.98 10.8 5.52c8.05,4.11 11.63,6.76 14.04,10.41 6.56,9.92 29.88,4.19 46.15,-11.32 39.78,-37.95 25.22,-127.92 -22.98,-142.02 -14.57,-4.26 -26.21,-2.12 -33.81,6.21 -2.93,3.22 -5.89,5.5 -6.58,5.08 -0.69,-0.43 -2.63,1.43 -4.33,4.13 -13.22,20.94 -41.39,-11.17 -30.3,-34.55 9.59,-20.22 26.24,-16.75 35.2,7.35 2.54,6.81 2.26,6.63 6.16,4.08 22.42,-14.69 61.28,2.96 77.05,35 30.67,62.31 2.91,134.43 -54.14,140.69l-8.78 0.96 -0.98 4.74c-3.19,15.36 -21.78,38.79 -30.79,38.8l-3.67 0 -7.89 41.31c-12.54,65.73 -12.27,63.22 -11.99,110.48 0.43,72.05 -2.26,76.9 -38.16,68.88l0.01 0zm23.7 -10.94c3.5,-8.74 5.16,-24.16 4.6,-42.57 -1.45,-47.09 0.15,-69.03 7.75,-106.49 5.24,-25.83 11.26,-59.24 11.26,-62.48 0,-2.2 -2.09,-3.65 -11.04,-7.62 -6.07,-2.7 -31.48,-15.1 -56.46,-27.55 -46.93,-23.34 -66.36,-32.3 -70.02,-32.3 -1.74,0 -3.25,5.7 -8.75,32.96 -16.54,81.95 -28.54,118.69 -58.09,177.72 -6.25,12.49 -11.37,23.16 -11.37,23.71 0,0.55 7.81,2.91 17.35,5.24 9.54,2.33 37.79,9.87 62.77,16.75 38.29,10.56 58.29,15.71 100.93,26.01 8.34,2.02 9.06,1.8 11.09,-3.26l-0.02 -0.11zm-29.39 -41.44c-6.72,-6.29 -8.11,-10.8 -4,-13 4.37,-2.33 17.97,9.67 16.2,14.3 -1.99,5.18 -5.7,4.79 -12.2,-1.29l0 -0zm3.93 -43.08c-8.98,-9.99 -9.91,-15.46 -2.61,-15.46 1.92,0 18.88,16.4 18.88,18.25 0,8.46 -7.28,7.2 -16.27,-2.8l0 0zm9.64 -34.13c-4.93,-4.86 -5.78,-7.53 -3.21,-10.09 4.14,-4.14 17.19,5.52 15.67,11.6 -1.24,4.96 -6.54,4.32 -12.45,-1.51l0 0zm61.47 -108.16c10.3,-12.56 16.43,-25.71 13.41,-28.73 -0.76,-0.76 -1.39,-2.96 -1.39,-4.87 0,-6.94 -6.03,-10.46 -35.33,-20.63 -11.45,-3.98 -29.9,-11.06 -41,-15.73 -39.81,-16.77 -73.94,-28.48 -80.35,-27.57 -5.2,0.74 -14.64,33.15 -10.11,34.71 17.4,5.99 31.36,12.56 66.2,31.14 74.81,39.91 80.23,41.84 88.56,31.67l0 0zm-14.72 -72.2c-0.92,-15.62 -5.14,-21.59 -16.78,-23.71 -13.74,-2.51 -15.26,-6.89 -14.73,-42.52 0.22,-15.09 0.22,-27.44 0,-27.44 -0.22,0 -4.2,-1.09 -8.84,-2.41l-8.44 -2.41 -0.67 6.51c-2.73,26.45 -3.62,32.19 -5.78,37.05 -3.62,8.19 -9.31,10.33 -19.57,7.38 -18.47,-5.32 -25.87,-3.2 -30.31,8.72l-2.78 7.44 22.85 7.74c22.96,7.78 41.99,15.2 68.91,26.87 7.98,3.46 15.01,6.35 15.62,6.42 0.61,0.07 0.85,-4.27 0.54,-9.65l-0 0zm-33.18 -107.87c-2.98,-10.56 -5.03,-11.97 -9.37,-6.45 -3.71,4.72 -3.27,6.34 2.12,7.78 7.45,1.98 8.15,1.85 7.26,-1.32zm42.79 -14.52c4.86,-14.07 -6.61,-27.21 -15.76,-18.06 -6.49,6.49 -4.13,17.33 5.56,25.59l4 3.41 2.17 -2.78c1.19,-1.53 3,-5.2 4.03,-8.16l0 0zm430.25 371.37c-19.76,-8.61 -20.96,-34.28 -2.57,-54.99 11.09,-12.5 14.65,-19.69 14.62,-29.58 -0.03,-11.85 0.12,-11.81 -17.78,-5.32 -31.35,11.36 -63.55,20.35 -75.57,21.11 -20.89,1.3 -26.81,-3.5 -20.23,-16.4 6.49,-12.73 23.06,-20.82 58.08,-28.38 9.76,-2.11 10.56,-2.37 20.3,-6.74 19.09,-8.55 -3.09,-34.39 -59.26,-69.06 -27.81,-17.17 -32.06,-51.83 -6.28,-51.25 14.91,0.34 31.56,10.07 55.84,32.66 20.95,19.49 21.2,19.26 27.93,-26.19 7.78,-52.56 14.36,-64.09 31.93,-55.89 28.17,13.14 39.89,58.57 28.74,111.4 -4.29,20.31 -2.84,19.02 16.25,-14.58 21.63,-38.07 35.25,-45.04 50.55,-25.88 20.74,25.97 -0.52,57.18 -53.4,78.42 -19.12,7.68 -19.22,7.79 -9.46,9.88 52.68,11.28 67.78,22.21 67.56,48.88 -0.25,30.37 -24.22,30.8 -57.7,1.04 -22.8,-20.28 -28.19,-16.58 -32.23,22.1 -4.8,45.95 -18.23,67.09 -37.33,58.78l0 0zm14.57 -11.88c4.99,-4.99 8.37,-17.02 10.8,-38.35 7.15,-62.88 18.06,-69.98 54.64,-35.57 23.15,21.78 31.19,23.97 36.02,9.8 7.09,-20.81 -0.12,-27.75 -39.08,-37.61 -48.24,-12.2 -48.93,-20.09 -3.78,-43 42.81,-21.71 51.5,-31.02 45.49,-48.65 -6.33,-18.59 -16.81,-16.31 -30.12,6.56 -21.41,36.79 -26.3,43.63 -36.83,51.58 -7.97,6.02 -16.96,7.2 -19.44,2.55 -1.6,-2.99 0.31,-7.57 3.15,-7.57 2.65,0 3.74,-2.73 8.06,-20.19 11.97,-48.38 7.22,-82.19 -14.87,-105.84 -9.43,-10.09 -15.5,-0.8 -20.91,32.04 -11.33,68.81 -17.57,75.09 -46.89,47.27 -25.75,-24.44 -45.3,-35.91 -52.82,-30.99 -7.8,5.11 1.19,24.46 14.51,31.23 24.34,12.36 65.13,47.2 71.46,61.03 7.72,16.87 -0.32,24.17 -38.72,35.13 -32.14,9.17 -42.11,13.42 -47.09,20.09 -6.78,9.09 1.74,7.52 54.09,-9.95 50.53,-16.86 55.63,-17.48 60.15,-7.24 5.08,11.48 1.31,26.21 -10.73,42.02 -5.69,7.46 -6.65,8.81 -13.71,19.1 -6.66,9.72 -6.93,11.99 -2.28,19.02 7.06,10.66 13.3,13.15 18.9,7.54l-0 0zm319.96 -123.77c-21.57,-13.12 -23.09,-51.85 -2.15,-51.85 4.72,0 4.74,-0.02 1.89,-2.02 -9.13,-6.39 0.33,-11.69 9.91,-5.54 12.81,8.22 16.11,14.83 14.72,29.47 -2.29,24.23 -12.72,37.02 -24.39,29.91l0.03 0.04zm9.09 -12c4.84,-7.39 7.35,-25.39 4.31,-31.06l-1.54 -2.87 -2.17 2.87c-1.78,2.37 -2.88,2.72 -6.2,1.99 -9.08,-2 -13.37,6.16 -9.76,18.57 3.46,11.91 11.03,17.09 15.35,10.49l0 0zm-506.69 -8.45c-12.9,-1.09 -19.8,-4.03 -22.04,-9.4 -11.42,-27.33 10.55,-29.6 59.58,-6.16 30.13,14.4 16.37,20.11 -37.54,15.56l0 0zm27.22 -11.03c-2.39,-3.86 -31.41,-13.58 -36.64,-12.27 -6,1.5 -5.3,11.29 0.9,12.48 5.51,1.06 36.42,0.88 35.74,-0.21l0 0zm-597.18 -24.39c-5.74,-6.93 -12.5,-27.77 -9.74,-30.06 4.9,-4.07 21.09,22.99 17.33,28.98 -1.6,2.56 -5.87,3.16 -7.6,1.08l0 0zm-107.46 -21.71c-1.78,-2.15 -0.42,-7.67 3.98,-16.14 1.33,-2.57 2.81,-7.33 3.28,-10.59 1.7,-11.86 9.85,-11 9.45,1 -0.47,14.17 -11.81,31.63 -16.71,25.72zm-1263.43 -44.67c-4.28,-4.28 2.69,-13.01 17.45,-21.86 35.03,-21.01 32.72,-34.43 -10,-58.17 -13.14,-7.31 -19.65,-13.37 -19.65,-18.42 0,-7.75 2.87,-9.68 40.17,-26.96 29.73,-13.77 26.58,-25.24 -14.6,-53.12 -23,-15.57 -28.26,-22.35 -23.78,-30.66 6.95,-12.9 78.48,-34.27 79.96,-23.89 0.58,4.05 -1.62,5.08 -19.94,9.28 -59.79,13.73 -63.63,20.81 -24.01,44.24 32.82,19.4 39.72,29.91 30.38,46.2 -8.95,15.6 -23.28,22.85 -54.61,27.62 -9.75,1.48 -7.37,4.14 21.26,23.7 40.89,27.93 41.25,41.37 1.8,67.22 -7.02,4.6 -13.98,10.01 -15.47,12.02 -2.51,3.4 -6.96,4.8 -8.95,2.81l0 -0.02zm1315.15 -19.93c-54.31,-15.2 -94.31,-68.49 -80.96,-107.85 15.86,-46.76 88.72,-83.12 119.65,-59.7 6.18,4.68 3.04,13.98 -3.22,9.56 -38.18,-26.93 -118.45,30.78 -110.07,79.14 5.92,34.15 63.07,76.88 92.97,69.51 54.83,-13.52 73.12,-75.76 27.48,-93.48 -40.46,-15.7 -85.59,33.64 -48.47,52.99 5.39,2.81 18.95,5.78 21.66,4.74 5.07,-1.95 7.88,-20.63 3.5,-23.36 -5.41,-3.38 -1.41,-10.56 4.68,-8.39 20.02,7.13 9.22,39.68 -13.51,40.71 -52.32,2.37 -53.13,-69.22 -0.87,-76.87 27.27,-3.99 58.02,10.46 67.71,31.83 16.22,35.75 -40.08,92.49 -80.54,81.17l0 0zm-166.24 -10c-1.82,-4.75 0.16,-6.38 13.83,-11.35 13.87,-5.05 17.35,-5.15 18.17,-0.57 1.06,5.94 -29.87,17.46 -32,11.93l0 0zm304.39 -50.54c-5.67,-5.66 -1.26,-7.57 17.49,-7.57 18.78,0 22.19,1.2 18.78,6.62 -1.99,3.17 -33.24,3.98 -36.27,0.94l0 0zm-1179.2 -31.16c-1.39,-2.26 -2.86,-5.35 -3.26,-6.89l-0.73 -2.79 -5.87 2.99c-12.35,6.28 -13.63,5.5 -32.93,-20.18 -26.32,-35.02 -35.21,-55.34 -27.68,-63.26 14.71,-15.45 32.19,-8.21 49.67,20.57 12.93,21.29 31.83,66.27 29.76,70.81 -1.88,4.14 -5.98,3.57 -8.96,-1.26l0 0zm-13.78 -16.11c6.16,-3.14 6.67,-0.46 -4.39,-23.06 -21.98,-44.9 -29.35,-53.08 -41.13,-45.65 -6.07,3.83 -7.55,0.24 14.31,34.67 26.33,41.48 23.24,38.11 31.22,34.04l0 0zm1856.53 -42.52c-14.12,-3.81 -22.64,-13.44 -17.74,-20.04 1,-1.35 1.56,-3.58 1.23,-4.97 -3.47,-14.98 27.56,-20.56 38.97,-7 14.91,17.71 0.51,38.22 -22.46,32.01l0 0zm10.76 -9.26c13.71,-6.99 9.54,-20.32 -6.44,-20.56 -6.25,-0.09 -10.33,1.78 -7.58,3.47 2.54,1.57 1.49,6.87 -1.78,9.02 -9.49,6.22 4.96,13.6 15.8,8.07l0 0zm280.34 3.73c-21.99,-11.19 -23.75,-48.85 -2.81,-60.02 5.31,-2.84 52.12,-3.93 55.37,-1.29 31.72,25.77 -15.09,80.37 -52.56,61.31l0 0zm38.45 -11.98c15.24,-7.46 18.53,-39.99 4.08,-40.39 -2.39,-0.07 -10.3,-0.57 -17.59,-1.11 -28.87,-2.15 -40.44,12.59 -28.31,36.05 5.06,9.78 27.11,12.65 41.81,5.46l0 0zm-2000.36 -109.39c-2.93,-2.93 -1.56,-5.93 4.29,-9.35 4.25,-2.49 6.44,-4.87 8.16,-8.89 1.29,-3.02 3.17,-5.48 4.19,-5.48 9.82,0 7.03,12.98 -4.46,20.71 -7.13,4.8 -9.73,5.44 -12.17,3.01l0 0zm1769.85 -0.78c-1.04,-0.47 -3.31,-1.8 -5.04,-2.96 -5.01,-3.34 -148.49,-6.06 -149.72,-2.83 -0.82,2.14 -10.17,2.26 -20.6,0.28 -3.93,-0.74 -37.12,-1.67 -76.33,-2.13 -84.46,-0.99 -85.24,-1.17 -102.69,-24.94 -39.72,-54.1 -39.13,-147.2 1.46,-226.69 12.75,-24.98 17.58,-27.68 58.96,-32.95 37.9,-4.83 158.91,-5.89 235.3,-2.07 13.88,0.69 39.3,1.87 56.48,2.6 58.91,2.53 69.34,10.55 79,60.78 7.04,36.63 6.79,144.88 -0.37,160.66 -0.94,2.08 -3.24,8.67 -5.1,14.64 -5.94,19.04 -20.2,37.95 -33.37,44.24 -3.19,1.52 -7,4.04 -8.49,5.61 -2.46,2.59 -3.5,2.78 -11.74,2.13 -8.24,-0.65 -9.22,-0.48 -10.94,1.98 -1.94,2.77 -3.5,3.15 -6.79,1.66l0 -0zm-18 -27c-20.19,-41.1 -25.7,-81.55 -19.11,-140.39 1.01,-9.02 2.7,-24.35 3.76,-34.07 3.64,-33.37 10.99,-62.17 18.94,-74.19 4.1,-6.2 -12.4,-8.32 -65.47,-8.43l-11.12 -0.02 1.02 5.99c5.68,33.27 -2.5,46.96 -43.57,72.91 -80.73,51.01 -98.09,137.56 -36.41,181.5l8.57 6.11 34.95 0.39c48.42,0.54 111.81,2.01 112.44,2.6 2.36,2.21 0.81,-2.57 -4.02,-12.41l0 -0.01zm26 6.91c-35.75,-46.52 -35.46,-204.93 0.47,-254.22 2.4,-3.3 3.89,-6.05 3.31,-6.13 -17.61,-2.23 -29.74,26.51 -35.73,84.67 -0.75,7.29 -2.17,20.63 -3.15,29.65 -6.11,56.19 -2.13,89.38 15.43,128.69 9.84,22.03 10.86,23.34 18.09,23.34l6.18 0 -4.61 -6 0 0zm-229.04 1.56c0.2,-0.17 -2.7,-2.04 -6.47,-4.17 -46.86,-26.44 -51.09,-88.9 -11.38,-168.35 17.89,-35.79 21.7,-49.96 17.72,-65.91 -4.46,-17.93 -5.48,-20.46 -9.79,-24.5l-4.33 -4.06 -20.94 0.69c-66.19,2.17 -74.94,5.32 -88.22,31.71 -49.03,97.47 -32.7,224.83 30.15,235.2 4.98,0.82 92.21,0.25 93.27,-0.61l0 -0.01zm260.34 -6.26c25.94,-17.17 38.07,-82.11 31.48,-168.46 -9.18,-120.2 -63.37,-116.63 -76.65,5.05 -11.1,101.72 12.02,185.35 45.17,163.41l-0 0zm-26.41 -101.28c-1.88,-3.83 0.02,-9.73 3.28,-10.19 4.47,-0.63 6.81,2.02 5.81,6.61 -1.28,5.91 -6.87,8.11 -9.09,3.59zm23.79 -2.68c-3.22,-6.02 -0.29,-12.55 4.9,-10.9 2.79,0.88 4.31,4.93 3.64,9.67 -0.57,4 -6.59,4.87 -8.54,1.23l0 0zm-9.99 -27.6c-12.42,-10.5 -20.86,-64.89 -13.4,-86.39 7.93,-22.85 33.48,-15.93 41.78,11.33 9.39,30.83 -12.43,88.54 -28.38,75.06l0 -0zm11.61 -16.96c2.02,-3.95 3.81,-9.34 4,-11.98 0.19,-2.64 1.25,-8.19 2.36,-12.32 4.79,-17.77 -1.56,-45.25 -11.49,-49.78 -8.43,-3.84 -12.41,9.63 -11.34,38.37 1.47,39.67 7.63,53.02 16.47,35.72l0 -0zm-231.52 144.33c-23.25,-25.37 -28.3,-63.55 -14.29,-108 10.51,-33.32 26.28,-50.92 68.71,-76.66 36.91,-22.39 45.75,-38.07 37.69,-66.84l-1.27 -4.53 -38.8 -0.83c-51.13,-1.09 -78.84,-1.06 -78.32,0.12 15.25,34.53 13.13,55.67 -9.85,97.84 -23.36,42.87 -24.56,46.56 -25.37,77.98 -1.39,53.51 10.77,73.15 53.11,85.76 17.09,5.09 17.35,4.94 8.39,-4.85l0 0zm-1107.94 27.3c-8.15,-2.32 -9.26,-4.68 -9.18,-19.38l0.07 -12.94 -4.04 -1.46c-20.17,-7.3 -33.88,-32.77 -26.27,-48.81 4.76,-10.03 29.31,-24.51 41.56,-24.51 2.68,0 2.78,-0.37 2.16,-8.09 -1.96,-24.43 33.58,-43.87 56.54,-30.92l5.76 3.25 9.62 -19.65c24.59,-50.22 43.56,-62.5 61.53,-39.84 11.5,14.5 10.53,21.11 -6.91,47.22 -17.71,26.51 -19.11,30.81 -10.5,32.14 39.87,6.15 58.78,40.94 35.19,64.7 -3.28,3.3 -5.04,6.38 -5.58,9.76 -4.87,30.65 -38.6,45.71 -62.14,27.74 -6.78,-5.18 -5.25,-5.28 -11.91,0.75 -15.97,14.45 -57.26,25.35 -75.91,20.04l0 0zm45.25 -13.9c15.48,-4.67 29.4,-16.65 29.4,-25.23 0,-8.33 7.32,-14.91 12.14,-10.91 1.57,1.3 1.85,3.09 1.28,8.02 -3.11,26.76 44.9,21.97 49.26,-4.91 0.62,-3.81 0.23,-4.91 -2.51,-7.06 -5.65,-4.44 -11.3,-23.66 -8.5,-28.89 3.67,-6.85 15.76,0.73 20.94,13.13 2.3,5.51 3.5,4.98 6.12,-2.72 6.79,-19.92 -5.63,-34.09 -35.61,-40.62 -4.33,-0.94 -5.59,-0.82 -6.13,0.59 -0.97,2.52 -7.6,2.24 -9.07,-0.38 -3.9,-6.98 -24.36,7.14 -25.97,17.92 -1.28,8.5 -1.68,9.18 -6.43,10.75 -9.56,3.15 -11.25,-1.09 -5.57,-14.03 4.85,-11.04 4.42,-22.26 -0.97,-25.8 -2.31,-1.52 -2.97,-2.85 -2.53,-5.15 1.55,-8.08 -17.33,-13.56 -30.02,-8.72 -6.21,2.37 -15.62,12 -15.94,16.32 -0.67,9.16 1.59,14.08 7.35,15.98 5.86,1.93 10.8,8.68 10.28,14.03 -0.67,6.98 -7.15,6.57 -16.01,-1.01 -15.26,-13.06 -51.39,8.46 -49.05,29.21 1.46,12.95 23.38,26.85 29.33,18.6 8.78,-12.16 20.39,-18.45 34.28,-18.56 31.07,-0.26 12.56,29.3 -21.26,33.94 -6.07,0.83 -8.61,5.49 -8.61,15.81 0,4.55 28.85,4.44 43.78,-0.16l0 -0.14zm-23.43 -31.44c13.09,-5.16 17.26,-10.03 8.58,-10.03 -7.1,0 -14.46,4.32 -17.74,10.41 -1.61,3 0.85,2.89 9.16,-0.38l0 0zm74.06 -78.78c6.59,-1.36 6.78,-1.52 8.85,-7.66 2.89,-8.52 7.18,-15.53 17.72,-28.94 15.61,-19.85 16.46,-25.71 5.21,-35.57 -15.16,-13.29 -28.41,0.25 -48.04,49.06l-5.42 13.48 1.69 7.33c2.26,9.83 1.96,9.58 7.96,6.45 2.91,-1.52 8.32,-3.39 12.02,-4.15l0 0zm-713.63 115.19c-2.68,-6.04 -10.88,-17.07 -26.47,-35.64 -12.42,-14.79 -13.94,-17.41 -11.67,-20.15 2.88,-3.47 5.78,-2.06 13.37,6.5 31.17,35.12 41.92,54.65 30.09,54.65 -2.25,0 -3.51,-1.27 -5.33,-5.36l0 0zm897.14 -3.63c-9.81,-16.28 -23.28,-79.68 -43.84,-206.35 -10.32,-63.6 -9.21,-59.11 -14.91,-60.04 -2.31,-0.37 -6.21,-1.52 -8.67,-2.55l-4.46 -1.86 -0.78 -14.97c-1.59,-30.53 2.54,-51.39 11.1,-55.96 1.74,-0.93 3.17,-2.03 3.16,-2.43 -0.01,-1.04 -42.88,-22.57 -62.83,-31.56 -17.9,-8.06 -31.24,-15.57 -32.15,-18.09 -2.48,-6.95 27.02,-41.77 39.87,-47.06 7.13,-2.94 7.11,-1.6 0.23,-15.54 -3.12,-6.32 -5.68,-11.74 -5.68,-12.06 0,-2.51 -10.19,-16.95 -15.89,-22.52 -11.58,-11.3 -5.87,-15.83 31.68,-25.13 27.54,-6.82 27.32,-6.97 36.51,24.24 2.56,8.67 8.37,24 12.93,34.06 4.56,10.06 8.84,19.89 9.52,21.83 2.44,6.96 2.31,1.88 -0.95,-35.89 -7.85,-90.84 -7.59,-92.24 16.45,-92.24 20.79,0 22.59,4.79 28.3,75.38 1.41,17.35 2.74,33.81 2.98,36.59 0.24,2.78 0.53,-8.01 0.65,-23.97 0.61,-78.74 3.89,-89.93 24.78,-84.48 21,5.47 21.76,8.52 16.96,67.88 -1.54,19.02 -0.39,68.13 2.65,113.12 2.07,30.7 2.26,31.75 5.43,31.3 3.25,-0.46 3.26,0.95 -0.19,-26.89 -10.97,-88.43 -4.35,-146.91 17.32,-153 1.8,-0.51 12.52,-0.92 23.83,-0.92l20.56 0 -0.81 -3.16c-14.02,-54.36 -18.04,-103.5 -9.01,-110.24 17.77,-13.27 30.74,0.6 36.85,39.39 6.26,39.79 6.85,42.12 10.35,41.24 8.22,-2.06 33.99,23.41 36.97,36.54l0.86 3.79 0.72 -4.42c0.4,-2.43 1.65,-11.19 2.79,-19.47 3.42,-24.86 4.18,-25.76 19.91,-23.46 19.3,2.82 18.46,1.79 20.78,25.71l0.96 9.91 4.9 -16.21c19.45,-64.45 25.26,-72.48 45.59,-63.07 18.34,8.5 19.52,19.79 5.54,52.82 -3.52,8.32 -9.22,23.86 -12.65,34.53l-6.24 19.39 2.57 3.48c6.3,8.56 6,23.09 -1.22,60.26 -3.32,17.11 -8.31,55.81 -7.32,56.8 0.22,0.22 3.8,-6.15 7.96,-14.17 20.85,-40.2 43.11,-66.11 53.91,-62.76 3.54,1.1 28.05,20.11 31.37,24.33 4.95,6.3 3.74,8 -14.26,19.9 -17.35,11.47 -37.47,29.97 -46.17,42.44 -4.93,7.06 -6.64,7.43 19.31,-4.08 78.87,-34.97 85.43,-35.86 100.26,-13.65 9.43,14.13 7.26,18.1 -12.58,23.07 -7.28,1.83 -25.74,6.94 -41,11.38 -15.26,4.43 -30.3,8.72 -33.41,9.52l-5.65 1.46 3.36 1.76c4.23,2.21 4.48,3.07 6.01,20.69 4.24,48.69 4.05,60.57 -1.05,66.12 -1.44,1.56 -2.77,5.47 -3.27,9.58 -3.12,25.54 -12.63,74.8 -28.96,150.14 -3.83,17.7 -9.11,43.69 -11.73,57.76l-4.75 25.59 -6.25 1.85c-22.04,6.55 -57.01,9.26 -162.22,12.61 -55.87,1.78 -80.71,2.99 -105.46,5.17l-8.95 0.79 -2.56 -4.26 0 0zm41.28 -9.33c76.76,-6.01 158.33,-9.78 200.6,-9.27l33.88 0.41 2.11 -11.99c2.47,-14.03 11.01,-55.7 22.49,-109.76 18.56,-87.35 22.63,-114.6 16.89,-113.1 -2.66,0.7 -17,-0.16 -62.76,-3.75 -22.12,-1.74 -47.28,-2.17 -136.26,-2.39 -98.8,-0.23 -138.11,-1.22 -155.5,-3.9 -6.25,-0.96 -7.76,-13.94 11.12,95.38 11.5,66.57 23.67,129.46 28.93,149.51 3.46,13.17 2.81,12.31 8.65,11.51 2.88,-0.4 16.31,-1.59 29.84,-2.65l0 0zm83.9 -58.79c-48.11,-4.11 -82.13,-30.28 -81.92,-62.99 0.44,-67.82 65.01,-105.3 143.69,-83.38 5.9,1.64 9.5,2.06 10.96,1.28 20.39,-10.91 59.24,27.47 62.43,61.67 4.47,48.12 -62.74,89.61 -135.15,83.42l0 0zm51.73 -14.2c49.36,-12.48 77.04,-39.71 72.56,-71.4 -2.32,-16.42 -15.8,-37.95 -28.27,-45.15 -3.73,-2.15 -4.17,-2.02 -5.06,1.54 -1.04,4.14 -5.47,4.17 -12.5,0.09 -26.65,-15.47 -83.8,-16.65 -112.41,-2.31 -26.11,13.08 -45.75,61.93 -34.31,85.32 14.02,28.65 71.96,44.06 120,31.92l0 0zm146.73 -183.7c0.87,-1.39 2.38,-2.52 3.36,-2.52 3.17,0 3.33,-6.51 0.75,-29.65 -1.39,-12.49 -2.55,-25.83 -2.56,-29.65 -0.04,-9.98 -1.93,-12.93 -9.49,-14.81 -22.67,-5.63 -91.88,-5.1 -209.4,1.61 -85.38,4.88 -88.13,5.09 -91.5,7.2 -1.78,1.11 -2.8,1.15 -3.83,0.12 -0.91,-0.91 -5.02,-1.17 -11.73,-0.76 -8.54,0.53 -10.63,0.29 -12.04,-1.41 -3.09,-3.72 -41.66,0 -44.3,4.28 -1.69,2.74 -3.69,19.13 -4.57,37.6l-0.84 17.63 11.86 0.85c38.13,2.72 58.78,3.29 160.11,4.41 110.33,1.22 152.8,2.54 182.31,5.67 23.91,2.54 30.01,2.43 31.88,-0.57l-0.01 0zm-283.71 -81.52c0.27,-0.24 -0.16,-7.12 -0.96,-15.29 -4.62,-47.03 -5.73,-123.77 -2.21,-152.81 3.83,-31.58 3.89,-31.44 -15.82,-36.19 -5.81,-1.4 -6.93,38.46 -4.37,155.39l1.11 50.63 10.87 -0.65c5.98,-0.35 11.1,-0.84 11.37,-1.08l0 0zm-35.7 -2.53c-4.19,-10.91 -10.7,-68.91 -15.23,-135.59 -1.81,-26.66 -3.6,-51.53 -3.98,-55.26 -1.19,-11.64 -7.66,-15.13 -21.13,-11.39l-4.89 1.36 0.84 7.15c1.5,12.72 4.38,48.05 6.4,78.43 3.35,50.44 7.54,96.98 10.19,113.24l0.67 4.1 13.95 0c12.32,0 13.87,-0.24 13.18,-2.03l0 0zm74.32 -0.46c1.76,-0.05 2.04,-0.37 0.93,-1.08 -2,-1.27 -1.39,-5.98 8.63,-66.45 7.39,-44.59 7.69,-45.9 16.63,-72.14 10.68,-31.34 11.73,-28.67 -11.53,-29.24l-18.57 -0.45 -4.15 3.49c-13.06,10.99 -15.48,53.76 -7.65,134.92 3.35,34.7 2.76,32.52 8.5,31.69 2.57,-0.37 5.82,-0.71 7.21,-0.74l0 0zm33.18 -2.06c4.44,-0.54 5.29,-1.06 4.72,-2.87 -1.28,-4.05 18.97,-61.21 30.4,-85.81 3.03,-6.52 5.51,-13.44 5.51,-15.37 0,-3.15 2.06,-6.51 4.71,-7.68 0.53,-0.23 3.7,-5.54 7.04,-11.78 21.05,-39.32 21.14,-44.72 1.11,-64.03 -10.58,-10.2 -13.73,-11.06 -10.4,-2.84 1.19,2.94 -1.66,6.94 -4.95,6.94 -1.54,0 -3.64,4.28 -7.93,16.2 -8.38,23.28 -52.31,155.24 -53.3,160.1 -0.46,2.25 -1.35,4.41 -2,4.81 -6.45,3.99 3.68,4.93 25.07,2.32l0 0zm250.99 -15.84c55.87,-15.56 56.72,-16.2 39.18,-29.22l-3.43 -2.54 -10.45 3.44c-5.74,1.89 -28.33,11 -50.19,20.24 -21.86,9.24 -42.02,17.67 -44.8,18.73 -4.71,1.8 -4.84,1.97 -1.89,2.6 9.35,1.98 19.69,2.73 21.29,1.55 0.95,-0.7 23.58,-7.37 50.29,-14.81l0 0zm-207.42 13.35c13.18,-0.75 13.65,-0.87 13,-3.49 -2.67,-10.75 -9.09,-45.95 -10.84,-59.48l-2.13 -16.4 -2.85 6.31c-2.76,6.12 -25.48,66.43 -27.23,72.32 -0.87,2.9 -0.81,2.92 7.76,2.23 4.74,-0.39 14.78,-1.05 22.3,-1.48l0 0zm-209.81 -0.13c0,-3.87 -17.56,-30.22 -29.58,-44.38 -7.85,-9.26 -16.41,-20.46 -19,-24.9 -3.43,-5.85 -5.2,-7.8 -6.47,-7.08 -2.21,1.27 -32.01,33.2 -32.01,34.34 0,0.46 12.35,6.63 27.44,13.71 15.09,7.08 34.26,16.53 42.58,21 15.07,8.08 17.03,8.93 17.03,7.33l0 -0.03zm238.24 -48.05c1.43,-45.06 3.34,-85.17 4.53,-94.94 0.5,-4.08 0.44,-4.18 -0.81,-1.26 -0.74,1.73 -6.36,13.19 -12.48,25.45l-11.12 22.3 2.56 21.68c1.41,11.92 4.78,32.69 7.49,46.16 2.71,13.46 4.61,25.33 4.21,26.36 -0.49,1.27 0.07,1.88 1.7,1.88 2.33,0 2.49,-2 3.93,-47.63l0 0zm38.52 44.16c-2.11,-4.32 -0.93,-40.51 1.9,-57.95 6.01,-37.04 2.42,-138.53 -4.97,-140.5 -11.11,-2.97 -14.67,-2.74 -15.42,1.01 -2.32,11.6 -9.9,137.86 -11.28,187.98l-0.32 11.67 15.59 0c14.42,0 15.51,-0.17 14.51,-2.21l0 0zm34.47 -4.38c-2.68,-13.57 2.01,-63.41 8.68,-92.27 7.17,-30.99 7.02,-39.38 -0.68,-37.85 -2.67,0.54 -3.96,0.04 -5.46,-2.11 -3.14,-4.48 -5.39,-2.18 -8.23,8.45 -5.75,21.48 -14.46,70.93 -16.54,93.82 -1.61,17.8 -3.51,28.43 -5.9,33.05l-1.81 3.49 15.62 0 14.32 -6.59zm18.98 -2c7.78,-16.16 24.31,-32.26 56.13,-54.66 8.82,-6.21 16.34,-11.78 16.7,-12.36 1.43,-2.31 -22.98,-20.53 -25.62,-19.12 -11.3,6.05 -62.51,94.82 -54.6,94.65 2.82,-0.06 3.93,-1.33 7.39,-8.52l0 0zm-312.37 -16.38c-1.18,-11.72 -2.68,-20.93 -3.49,-21.45 -2.46,-1.54 -30.09,-66.87 -36.4,-86.06 -7.24,-22.01 -6.19,-20.72 -14.33,-17.62 -3.66,1.39 -12.77,3.96 -20.24,5.71l-13.59 3.19 4.24 4.5c4.84,5.13 7.54,10.08 12.94,23.68 13.5,33.99 67.36,114.84 72.59,108.98 0.18,-0.2 -0.6,-9.62 -1.73,-20.93l0 0zm162.11 -131.17c-0.29,-0.29 -0.78,0.26 -1.08,1.23 -0.3,0.96 -2.81,8.29 -5.57,16.27 -7.26,20.94 -11.61,34.52 -11.52,35.96 0.04,0.69 4.26,-10.94 9.39,-25.84 5.13,-14.9 9.08,-27.33 8.79,-27.62l0 0zm122.15 9.8c2.39,-3.56 3.78,-4.35 8.11,-4.67l5.23 -0.38 3.46 -10.97c1.9,-6.04 9.13,-22.04 16.06,-35.57 14.69,-28.66 15.74,-33.35 9.04,-40.41 -4.43,-4.67 -15.65,-10.72 -17.05,-9.21 -1.15,1.24 -15.71,41.51 -25.91,71.7 -3.99,11.8 -8.03,22.09 -8.98,22.87 -1.39,1.14 -1.56,4.59 -0.88,17.39l0.85 15.97 3.59 -11.21c1.97,-6.16 4.89,-13.14 6.47,-15.5l-0 0zm-108.3 -40.35c2.17,-4.4 2.16,-4.67 -0.43,-9.74 -4.34,-8.51 -6.36,-19.76 -7.73,-43.15 -1.96,-33.23 -10.39,-48.09 -21.15,-37.27 -3.07,3.09 2.72,43.98 13.8,97.56l3.99 19.29 4.65 -11.09c2.56,-6.09 5.65,-13.12 6.87,-15.61l0 0zm-978.78 538.07c-2.11,-2.11 11.7,-39.86 17.17,-46.91 1.97,-2.54 7.73,-1.35 8.17,1.69 1.45,10.14 -20.76,49.79 -25.33,45.22l0 0zm2166.02 -25.22c-2.5,-2.5 -2.73,-1.23 3.61,-19.37 6.21,-17.75 12.41,-23.66 14.38,-13.69 1.89,9.58 -13.39,37.66 -17.99,33.06l0 0zm61.42 -7.11c-5.96,-7.24 -12.63,-25.34 -10.35,-28.09 3.72,-4.49 6.17,-2.25 12.63,11.54 7.3,15.59 6.78,13.66 4.3,16.14 -2.39,2.39 -4.82,2.54 -6.58,0.41l0 0zm-884.42 -6.31c-0.83,-0.83 -1.52,-2.07 -1.52,-2.74 0,-0.67 -1.45,-4.85 -3.22,-9.28 -4.57,-11.43 -4.41,-20.27 0.59,-31.66 5.96,-13.57 3.6,-18 -13.15,-24.74 -31.39,-12.64 -36.15,-18.89 -23.56,-31.02 6.06,-5.84 10.06,-8 52.35,-28.28 10.48,-5.02 17.24,-8.97 16.93,-9.89 -0.78,-2.36 -19.79,-11.39 -40.68,-19.33 -42.42,-16.13 -53.5,-26.15 -44.16,-39.89 9.99,-14.7 68.31,-27.19 59.16,-12.67 -1.08,1.71 -4.61,2.56 -15.76,3.8 -53.69,5.94 -49.34,16.51 19.62,47.67 44.81,20.25 44.2,24.11 -7.5,46.61 -42.98,18.71 -45.1,26.85 -9.46,36.19 18.79,4.93 21.75,13.14 13.81,38.26 -3.53,11.17 -3.43,13.72 0.79,21.28 5.7,10.18 2.39,22.34 -4.26,15.69l0 0zm-1003.9 -5.79c-13.41,-4.77 -15.18,-21.24 -5.64,-52.23 4.19,-13.57 7.37,-16.74 11.26,-11.21 1.07,1.52 6.91,8.83 12.98,16.26 22.34,27.3 23.85,37.84 6.37,44.39 -7.56,2.83 -20.74,4.31 -24.97,2.8zm21.67 -11.86c8.17,-3.84 7.43,-6.02 -9.06,-26.72 -8.81,-11.06 -8.93,-11.11 -10.69,-4.9 -8.36,29.35 -0.89,41.32 19.75,31.62l0 0zm1922.77 -17.56c-7.63,-5.65 -9.61,-8.95 -7.15,-11.91 2.33,-2.81 6.75,-2.18 10.14,1.44 1.69,1.8 5.22,4.39 7.87,5.74 4.01,2.06 4.74,3.03 4.41,5.87 -0.66,5.73 -6.59,5.29 -15.27,-1.15l0 0zm-2008.06 -8.59c-22.31,-7.7 -24.73,-24.82 -9.73,-68.68 13.17,-38.5 7.84,-45.31 -20.51,-26.19 -47.02,31.7 -68.74,26.37 -68.9,-16.89 -0.11,-31.59 7.66,-36.92 54.8,-37.59 45.09,-0.64 46.45,-5.93 8.2,-31.87 -43.95,-29.81 -51.41,-45.93 -30.02,-64.92 26.49,-23.52 62.43,-2.74 74.22,42.91 11.32,43.83 21.87,46.91 55.1,16.08 35.14,-32.59 47.16,-35.58 64.74,-16.13 22.97,25.41 16.68,39.99 -21.48,49.76 -49.71,12.73 -56.79,24.98 -19.06,32.98 35.14,7.46 51.1,22.37 52.31,48.89 1.65,36.02 -25.05,43.29 -54.63,14.87 -26.23,-25.19 -33.22,-30.41 -40.72,-30.37 -8.79,0.05 -9.69,3.22 -10.56,37.2 -0.65,25.72 -1.05,29.82 -3.48,36.04 -5.66,14.51 -15.49,19.02 -30.3,13.91l0 -0zm11.52 -9.4c8.93,-3.78 10.67,-9.31 12.3,-39.28 2.31,-42.34 5.5,-51.15 18.48,-51.07 10.7,0.06 25.82,10.45 48.34,33.22 15.87,16.04 16.82,16.49 28.33,13.3 27.68,-7.69 5.29,-48.41 -30.8,-56 -51.24,-10.78 -50.11,-34.8 2.47,-52.41 44.95,-15.06 46.09,-16.09 32.31,-29.42 -5.13,-4.96 -9.58,-9.87 -9.88,-10.9 -0.47,-1.63 -1.57,-1.67 -7.99,-0.32 -15.33,3.22 -22.81,8.69 -44.82,32.79 -25.43,27.85 -50.53,14.47 -62.8,-33.46 -10.33,-40.35 -55.39,-59.83 -60.04,-25.96 -2.2,15.95 5.82,25.7 31.95,38.85 16.78,8.45 25.89,16.23 30.31,25.86 1.13,2.48 3.09,6.03 4.35,7.91 3.23,4.8 1.89,7.23 -7.1,12.91 -11.82,7.46 -13.22,7.79 -25.16,5.91 -41.56,-6.55 -61.61,2.07 -61.52,26.44 0.1,24.95 17.56,31.54 40.11,15.14 25.87,-18.82 51.78,-22.52 57.74,-8.24 3.48,8.33 2.51,13.65 -6.43,35.25 -16.31,39.39 -11.49,68.54 9.84,59.51l0 -0zm1880.25 -0.12c-69.8,-11.68 -84.62,-97.91 -26.79,-155.85 26.66,-26.71 59.39,-37.89 80.1,-27.35 9.89,5.04 17.89,15.48 15.63,20.43 -2.15,4.71 -5.86,3.8 -10.2,-2.51 -22.83,-33.18 -93.51,9.93 -108.42,66.12 -19.06,71.85 50.39,114.7 124.07,76.55 37.99,-19.67 49.74,-65.16 20.12,-77.86 -43.71,-18.74 -84.34,1.1 -69.02,33.7l2.27 4.83 9.08 0.37c10.5,0.43 12,-1.01 13.57,-13 1.35,-10.4 1.81,-11.64 4.48,-12.33 12.45,-3.26 4.32,28.2 -9.09,35.18 -21.81,11.35 -45.58,-21.17 -32.16,-44 17.61,-29.96 93.17,-27.62 103.92,3.22 18.15,52.03 -48.07,104.13 -117.56,92.5l0 0.01zm-2373.81 -44.29c-28.28,-8.72 -49.56,-50.21 -66,-128.64 -10.39,-49.57 -6.65,-81.53 13.4,-114.55l5.77 -9.5 -11.91 -17.28c-28.59,-41.59 -30.76,-43 -50.35,-33.04 -16.63,8.45 -22.1,7.05 -28.96,-7.46 -11.17,-23.61 -4.4,-38.52 18.87,-41.58l6.31 -0.83 0 -14.75c0,-32.94 19.06,-41.16 44.03,-18.99l5.17 4.59 -0.52 8.03c-2.3,35.87 2.12,46.14 33.32,77.39l12.61 12.64 11.99 0.21c118.45,2.11 208.73,184.81 120.49,243.87 -50.54,33.82 -89.48,47.37 -114.22,39.75l0.01 0.13zm39.15 -11.48c124.5,-41.16 137.2,-140.03 29.43,-228.91 -25.04,-20.65 -74.71,-41.1 -78.13,-32.18 -0.39,1 -2.8,2.17 -5.36,2.6 -5.99,1.01 -19.11,15.9 -19.11,21.83 0,0.69 -0.9,2 -2,2.91 -17.96,14.91 -30.13,61.33 -24.51,93.48 20.41,116.74 49.04,157.04 99.69,140.28l-0 -0.01zm-35.96 -9.2c-3.2,-0.62 -3.78,-1.32 -3.78,-4.51 0,-4.48 8.76,-6.39 11.92,-2.59 3.36,4.06 -1.59,8.37 -8.14,7.1zm24.86 -40.16c-6.59,-3.28 -5.52,-9.82 1.57,-9.59 7.61,0.25 11.77,7.22 6.47,10.85 -1.91,1.31 -3.3,1.09 -8.04,-1.27l0 0zm-52.8 -31.95c-7.38,-2.14 -6.44,-9.98 1.21,-9.98 7.41,0 12.22,5.8 8.18,9.84 -1.73,1.73 -3.78,1.76 -9.39,0.14l0 -0zm27.3 -60.31c-5.5,-2.74 -6.53,-9.48 -1.56,-10.18 8.66,-1.23 16.88,5.89 11.68,10.1 -3.51,2.84 -4.59,2.85 -10.12,0.08l0 0zm-42 -32.64c-3.48,-3.48 0.36,-9.31 6.14,-9.31 9.16,0 9.61,9.24 0.48,9.84 -3.15,0.2 -6.13,-0.03 -6.62,-0.53l0 0zm22.91 -41.46c-6.45,-3.39 -8.06,-5.92 -6.1,-9.58 3.02,-5.63 19.24,1.6 18.61,8.29 -0.48,5 -4.63,5.43 -12.5,1.29l0 0zm-20.34 -38.91c1.56,-2.3 4.52,-5.78 6.57,-7.75l3.74 -3.58 -12.73 -13.33c-28.3,-29.64 -37.43,-48.3 -35.81,-73.23 1.15,-17.8 -0.09,-19.8 -14.66,-23.81 -14.93,-4.11 -21.87,32.12 -7.52,39.25 7.09,3.53 8.6,8.86 3.79,13.35 -4.12,3.84 -7.94,3.28 -13.14,-1.92 -13.4,-13.4 -33.34,2.46 -24.61,19.57 5.15,10.1 13.6,10.76 25.83,2.04 14.51,-10.35 30.18,0.41 53.72,36.87 12.24,18.96 11.11,18 14.83,12.55l0 0zm2221.03 172.09c-3.49,-3.25 -3.54,-7.02 -0.12,-8.84 6.43,-3.44 9.96,-22.8 9.99,-54.82 0.05,-57.63 10.65,-82.58 33.26,-78.34 41.96,7.87 9.28,144.57 -34.56,144.57 -4.1,0 -6.62,-0.76 -8.57,-2.57l0 0zm22.04 -15.39c28.77,-31.21 42.15,-107.27 20.33,-115.56 -15.07,-5.73 -20.18,8.28 -21.76,59.72 -1.05,34.02 -2.98,49.31 -7.81,61.92 -1.29,3.37 3.34,0.31 9.24,-6.08l-0 0zm-1867.51 -3.41c-25.8,-4.52 -16.62,-34.74 10.55,-34.74 21.9,0 48.23,26.98 29.2,29.92 -2.43,0.37 -7.26,1.51 -10.72,2.52 -7.95,2.31 -22.42,3.46 -29.02,2.31l0 -0zm21.09 -10.32c11.52,-1.98 12.7,-3.74 5.73,-8.53 -10.59,-7.29 -21.51,-7.99 -28.8,-1.85 -6.25,5.25 -4.2,10.13 4.89,11.66 5.15,0.87 5.98,0.81 18.19,-1.28zm1789.92 -12.11c-1.16,-1.4 -1.63,-4.79 -1.41,-10.28 0.63,-16.08 -6.39,-25.2 -32.8,-42.67 -29.59,-19.56 -33.25,-26.21 -26.7,-48.5 17.8,-60.58 83.71,13.19 71.94,80.52 -1.12,6.42 -2.04,13.29 -2.04,15.26 0,6.11 -5.67,9.69 -8.99,5.67l0 0zm2.22 -45.72c-4.54,-54.46 -51.33,-92.06 -54.77,-44.02 -0.83,11.54 0.12,12.69 22.18,27.07 11.33,7.39 21.23,14.94 25.48,19.44 3.83,4.05 7.18,7.38 7.45,7.41 0.28,0.03 0.13,-4.43 -0.33,-9.91l0 0zm-1630.82 16.94c-1.81,-2.94 -2.45,-5.28 -1.82,-6.69 0.54,-1.2 1.33,-14.1 1.76,-28.67 1,-33.93 3.56,-40.02 17.58,-41.91 46.2,-6.2 47.6,53.09 1.6,67.61l-8.91 2.81 -0.39 5.3c-0.54,7.49 -5.65,8.29 -9.82,1.55l0 0zm23.61 -22.09c28.04,-12.08 23.77,-50.36 -5.02,-44.96 -8.91,1.67 -11.22,8.82 -10.23,31.63 0.91,20.89 -0.15,19.96 15.25,13.33l0 0zm294.28 22.8c-11.8,-1.67 -14.19,-3.83 -15.75,-14.26 -3.8,-25.33 73.14,-38.34 117.66,-19.89 7.76,3.21 1.95,10.22 -7.58,9.15l-5.98 -0.67 -0.07 4.89c-0.14,9.43 -2.44,13.44 -8.76,15.27 -14.61,4.23 -64.21,7.67 -79.52,5.51l0 0zm44.08 -11.61c17.7,-0.79 32.33,-1.56 32.53,-1.73 0.2,-0.16 0.69,-3.13 1.1,-6.59 0.93,-7.85 2.54,-7.36 -30.39,-9.32 -43.01,-2.52 -52.44,-0.38 -52.44,12.36l0 6.74 8.52 0.01c4.69,0 23,-0.64 40.69,-1.42l-0 -0.06zm936.06 -73.4c-12.85,-3.65 -25.73,-14.77 -32.34,-27.95 -1.76,-3.5 -3.37,-6.56 -3.58,-6.8 -0.21,-0.24 -4.26,1.83 -9,4.59 -31.87,18.57 -37.94,14.59 -77.06,-50.56 -21.41,-35.65 -21.44,-35.76 -14.37,-44.7 12.7,-16.07 69.81,-55.95 109.49,-76.47 3.26,-1.69 3.79,-2.87 5.18,-11.57 5.26,-33.06 35.06,-35.09 48.23,-3.28 1.15,2.77 2.26,3.79 3.59,3.28 25.98,-9.97 57.17,14.54 41.1,32.3 -1.66,1.83 -1.16,2.76 4.82,8.89 25.85,26.53 16.19,66.66 -16.05,66.66 -2.2,0 -3.67,1.17 -5.15,4.1 -1.14,2.26 -4.91,6.75 -8.38,9.99l-6.3 5.89 7.52 11.24c27.47,41.07 -2.17,87.29 -47.69,74.37l0 0zm31.11 -12.58c22.08,-11.28 24.19,-39.02 4.66,-61.22l-4.77 -5.43 -15.94 10.47c-8.77,5.76 -21.97,14.33 -29.32,19.05l-13.37 8.58 1.81 4.33c10.02,23.98 35.87,34.97 56.95,24.21l-0 0zm-81.14 -28.56c52.18,-30.16 93.73,-58.3 96.41,-65.27 0.36,-0.94 -5.39,-8.69 -13.01,-17.52l-13.65 -15.84 -1.3 4.28c-2.6,8.56 -8.67,13.66 -32.84,27.6 -43.49,25.07 -57.68,33.46 -68.43,40.44l-11.65 7.57 2.75 3.95c20.29,29.14 18.19,28.39 41.72,14.79l-0 0zm-37.24 -35.91c12.53,-8.19 52.1,-31.23 76,-44.27 23.04,-12.56 23.82,-14.48 10.99,-27.06 -8.98,-8.8 -9.98,-9 -22,-4.5 -20.45,7.67 -94.9,56.21 -93.16,60.74 1,2.6 14.53,23.11 15.24,23.11 0.35,0 6.17,-3.61 12.93,-8.03l0 0zm12.08 -58.15c37.43,-24.41 62.26,-34.65 71.73,-29.58 3.29,1.76 3.05,1.37 -8.08,-13.19 -4.78,-6.25 -9.14,-12.17 -9.69,-13.15 -2.37,-4.24 -89.01,53.23 -104.46,69.29l-5.28 5.5 4.44 7.13 4.44 7.13 16.24 -11.87c8.94,-6.52 22.72,-16.09 30.64,-21.25l0 0zm141.28 19.3c24.96,-13.22 16.22,-54.98 -11.39,-54.35 -7.66,0.17 -10.46,-0.19 -10.46,-1.34 0,-3.15 4.15,-7.39 9.9,-10.1 9.77,-4.61 12.48,-13.69 5.47,-18.29 -6.31,-4.13 -27.93,-2.19 -33.85,3.05 -11.5,10.18 -22.18,6.4 -12.43,-4.4 9.93,-10.98 -2.11,-31.88 -15.62,-27.13 -8.72,3.07 -13.98,25.67 -8.25,35.44 9.38,16 19.91,28.77 40.88,49.56 12.25,12.14 23.3,23.64 24.54,25.55 2.46,3.77 6.52,4.5 11.21,2.01l0 0zm-1199.12 105.1c-15.55,-9.86 -24.46,-30.25 -16.99,-38.91 6.78,-7.87 49.73,-1.88 51,7.11 0.58,4.15 -2.81,6.61 -6.96,5.04 -5.3,-1.92 -5.56,-1.48 -5.56,9.47 0,20.61 -7.28,26.48 -21.59,17.4l0.1 -0.12zm11.15 -20.17c0.82,-12 0.64,-12.19 -11.89,-12.19 -13.66,0 -14.2,6.95 -1.55,19.96l7.5 7.71 2.62 -2.62c2.07,-2.07 2.77,-4.78 3.32,-12.86zm1677.25 -32.48c-1.23,-2.2 -0.56,-6.76 0.99,-6.76 0.51,0 1.31,-8.94 1.79,-19.87 4.32,-98.99 18.56,-105.68 69.43,-32.62 24.74,35.54 23.49,41.14 -9.98,44.93 -16.57,1.87 -24.81,3.99 -41.96,10.78 -15.52,6.14 -18.52,6.67 -20.27,3.55l0 0zm25.52 -16.35c13.56,-5.52 31.05,-9.29 43.26,-9.31 4.99,-0.01 9.39,-0.54 9.79,-1.18 2.7,-4.37 -19.19,-33.5 -45.86,-61.02l-9.52 -9.83 -1.66 4.78c-4.54,13.32 -11.35,81.11 -8.07,81.11 0.55,0 6.01,-2.05 12.14,-4.55l-0.07 -0zm-2109.24 -20.64c-15.56,-5.03 -22.91,-25.53 -16.57,-46.23 0.75,-2.44 0.19,-2.71 -6.96,-3.46 -46.59,-4.87 -62.83,-29.26 -36.71,-55.14 17.37,-17.2 23.77,-18.43 43.94,-8.46l13.39 6.63 12.09 -0.17c22.1,-0.3 53.57,-13.67 90.38,-38.39l8.91 -5.98 1.56 -8.43c17.19,-93.28 175.72,-186.57 280.02,-164.79 56.97,11.91 82.78,44.1 104.76,130.7 29.08,114.55 -1.25,151.21 -130.03,157.18 -111.24,5.16 -168.09,-9.62 -213.56,-55.51 -6.24,-6.3 -12.21,-11.46 -13.26,-11.46 -5.09,-0 -67.57,25.19 -80.1,32.31 -16.53,9.39 -16.69,9.97 -9.26,33.74 8.97,28.72 -16.01,47.98 -48.58,37.46l-0 0.01zm29.98 -10.62c11.05,-6.01 13.51,-18.05 6.69,-32.8 -10.99,-23.78 7.82,-39.64 73.45,-61.92 11.4,-3.87 20.93,-7.24 21.17,-7.48 0.25,-0.24 -3.55,-5.76 -8.43,-12.26 -4.88,-6.51 -8.87,-12.89 -8.87,-14.19 0,-3.04 -0.3,-2.9 -17.66,7.96 -37.72,23.58 -63.44,33.47 -87.06,33.47l-15.77 0 -10.88 -5.23c-19.99,-9.6 -32.93,-5.47 -42.85,13.69 -9.89,19.13 39.68,43.52 52.51,25.84 7.19,-9.91 14.35,-10.27 18.23,-0.91 2.32,5.61 0.17,9.48 -7.21,12.99 -10.35,4.91 -14.98,21.88 -8.91,32.68 6.34,11.28 22.87,15.07 35.58,8.16l-0 0.01zm367.56 -37.93c101.7,-11.9 118.25,-51.89 75.57,-182.62 -35.83,-109.76 -174.36,-116.03 -294.27,-13.31 -31.95,27.37 -65.1,77.8 -56.68,86.23 1.3,1.3 1.93,4.4 1.93,9.55 0,8.68 -1.31,6.76 21.33,31.27 53.69,58.13 67.93,65.17 143.96,71.17 14.95,1.18 92.55,-0.46 108.17,-2.29l0 0zm-46.77 -28.06c-3.91,-3.92 2.68,-15.88 8.44,-15.31 5.18,0.5 5.76,3.73 1.93,10.74 -2.85,5.21 -7.62,7.31 -10.37,4.57l0 0zm107.75 -14.14c-2.21,-4.13 0.99,-12.06 5.07,-12.53 5.18,-0.6 6.8,2.41 4.75,8.87 -2,6.3 -7.34,8.3 -9.82,3.66zm-234.5 -1.68c-1.87,-1.87 -1.92,-4.52 -0.17,-9.55 2.95,-8.46 10.69,-5.94 9.66,3.15 -0.82,7.27 -5.48,10.42 -9.5,6.41l0 0zm-53.78 -38.32c-3.07,-3.06 -2.48,-4.75 4.52,-13.03 6.89,-8.15 7.41,-8.44 11.24,-6.39 4.17,2.23 2.87,6.61 -4.23,14.23 -7.15,7.68 -8.45,8.27 -11.53,5.19l0 0zm108.04 -3.31c-2.18,-2.18 -1.88,-4.56 1.06,-8.38 1.42,-1.84 3.58,-4.7 4.81,-6.35 4.41,-5.93 10.5,-0.45 7.7,6.93 -2.93,7.74 -9.73,11.65 -13.57,7.8l0 0zm133.78 -3.74c-4.46,-4.46 4.19,-16.52 10.2,-14.22 3.87,1.49 3.84,5.57 -0.1,10.44 -3.99,4.94 -7.59,6.29 -10.1,3.78l0 0zm790.26 129.9c-2.99,-4.57 -5.42,-12.37 -7.11,-22.85l-1.55 -9.61 -15.15 -0.35c-12.82,-0.3 -15.37,-0.69 -16.54,-2.56 -2.91,-4.62 0.46,-6.61 11.37,-6.72 5.46,-0.06 12.14,-0.2 14.83,-0.31l4.89 -0.21 -0.77 -8.52c-0.43,-4.69 -0.78,-11.46 -0.8,-15.07l-0.02 -6.55 -4.73 -0.39c-4.33,-0.36 -4.73,-0.71 -4.73,-4.18 0,-3.33 0.57,-3.93 4.73,-4.95l4.73 -1.17 0 -16.66c0,-17.7 0.92,-20.56 6.07,-18.93 2.83,0.9 3.99,7.97 4,24.53l0.02 10.57 5.36 -0.76c2.95,-0.42 14.59,-1.44 25.86,-2.27 11.28,-0.83 20.5,-1.94 20.5,-2.48 0,-0.54 -0.89,-4.8 -1.97,-9.48 -2.39,-10.3 -1.69,-14.36 2.47,-14.36 4.2,0 5.22,1.78 7.73,13.56l2.22 10.41 4.13 0c5.94,0 8.12,1.15 8.12,4.3 0,3.78 -2.33,5.8 -6.7,5.8 -2.75,0 -3.48,0.48 -2.94,1.91 0.75,1.96 2.63,13.13 3.96,23.56 0.74,5.8 0.82,5.89 4.79,5.31 25.24,-3.73 39.7,-1.96 36.27,4.44 -1.31,2.45 -3.69,2.84 -28.17,4.65l-11.07 0.82 0.35 7.56c0.61,13.12 -7.68,14.07 -9.3,1.06 -0.45,-3.61 -1.02,-6.77 -1.26,-7 -0.24,-0.24 -9.24,0.35 -20,1.3 -10.76,0.96 -22.68,1.76 -26.5,1.8 -10.52,0.09 -10.71,0.37 -9.04,13.33 0.79,6.07 2.32,12.41 3.42,14.08 2.93,4.46 1.94,8.48 -2.19,8.96 -2.43,0.28 -3.94,-0.44 -5.31,-2.54l0 0zm37.72 -45.31c22.63,-1.74 21.31,-0.8 19.57,-13.88 -2.58,-19.29 -2.81,-19.74 -9.79,-19.26 -16.34,1.13 -39.25,3.17 -42.9,3.82l-4.1 0.72 0.01 9c0,4.96 0.38,12.06 0.82,15.78l0.81 6.77 8.32 -0.75c4.58,-0.41 16.84,-1.41 27.25,-2.2l0 -0zm684.83 -38.02c-5.42,-7.13 -6.61,-18.26 -2.07,-19.4 4.07,-1.02 5.38,0.51 8.63,10.09 2.97,8.73 -1.83,15.54 -6.57,9.31l0 0zm-80.22 -8.04c-2.35,-2.35 4.37,-26.12 8.75,-30.96 5.16,-5.7 11.68,-0.1 7.82,6.71 -0.93,1.63 -3.39,7.78 -5.47,13.68 -3.74,10.57 -7.5,14.16 -11.09,10.57l0 0zm149.74 -26.08c-12.07,-7.14 -13.3,-8.3 -12.85,-12.14 0.48,-4.19 6.29,-5.21 10.08,-1.78 1.4,1.27 6.03,4.32 10.29,6.78 8.25,4.77 9.76,7.22 6.47,10.51 -2.86,2.86 -3.86,2.61 -13.99,-3.37l0 0zm-192.86 -2.93c-2.69,-2.69 -2.42,-4.64 1.17,-8.5 3.73,-4.03 7.66,-4.3 9.61,-0.66 2.82,5.26 -6.63,13.3 -10.77,9.16zm16.69 -54.38c-10.09,-3.39 -21.91,-9.56 -39.98,-20.87 -95.81,-60 -82.4,-137.02 43.44,-249.57 57,-50.98 94.39,-66.97 137.86,-58.96l8.2 1.51 3.04 -3.72c11.23,-13.57 57.28,-81.06 57.28,-83.74 0,-0.45 -1.56,-1.75 -3.47,-2.89 -28.83,-17.17 -17.87,-57.95 14.39,-53.53 15.46,2.12 30.72,18 30.72,31.96 0,3.08 0.03,3.07 5.09,-1.26 21.57,-18.46 51.06,-10.21 51.06,14.28 0,30.86 -29.04,53.36 -50.22,38.91l-5.3 -3.61 -4.06 4.73c-3.26,3.8 -36.46,58.26 -48.11,78.91l-2.7 4.8 6.33 7.82c3.48,4.3 7.8,9.52 9.59,11.59 16.81,19.46 22.78,70.33 13.85,118.04 -11.72,62.57 -43.25,124.65 -58.41,115 -1.02,-0.65 -1.49,-5.04 -1.43,-13.54 0.13,-18.24 -2.76,-24.51 -11.31,-24.55 -5.01,-0.02 -6.71,3.22 -9.04,17.22 -2.7,16.3 -5.11,16.54 -14.44,1.45 -6.46,-10.44 -11.96,-15.06 -18.88,-15.84 -13.46,-1.52 -24.91,13.7 -18.67,24.8 4.89,8.69 2.52,14.94 -4.94,13.11 -4.38,-1.08 -5.93,-2.6 -6.83,-6.71 -1.64,-7.46 -13.13,-15.42 -22.27,-15.42 -24.38,0 -40.07,21.89 -40.15,55.98 -0.04,17.06 -3.85,19.67 -20.52,14.07l-0.1 0zm11.11 -25.28c-0.18,-42.76 36,-66.26 72.78,-47.28 0.52,0.27 1.51,-1.02 2.21,-2.87 8.7,-22.89 28.24,-28.87 44.01,-13.47 3.85,3.75 7.16,6.33 7.36,5.73 8.24,-24.58 39.48,-16.83 39.48,9.79 0,5.77 2.13,4.31 8.93,-6.11 31.33,-48 44.24,-129.02 28.47,-178.69 -7.65,-24.08 -47.24,-59.71 -63,-56.7 -2.26,0.43 -4.32,-0.06 -5.78,-1.39 -54.08,-48.94 -256.12,140.46 -235.41,220.69 9.22,35.72 66.57,87.43 97.17,87.61l3.86 0.02 -0.07 -17.35 0 0zm148.22 -112.51c-1.71,-3.2 -0.43,-6.27 2.93,-7.03 22.5,-5.08 26.04,-4.88 26.04,1.48 0,5.85 -26.13,10.86 -28.97,5.56l0 0zm-43.44 -53.81c-1.71,-4.46 0.02,-6.56 7.19,-8.72 7.08,-2.13 12.01,0.42 10.43,5.39 -1.46,4.59 -16.07,7.35 -17.61,3.33l-0 0zm61.74 -0.96c-5,-3.65 -1.68,-7.96 6.88,-8.93 8.72,-0.99 10.09,-0.48 10.09,3.69 0,5.88 -11.32,9.37 -16.98,5.24l0 0zm-79.86 -66.61c-4.94,-5 0.52,-10.44 9.7,-9.67 4.6,0.39 6.65,4.39 4.19,8.14 -1.5,2.27 -12.02,3.43 -13.89,1.53zm66.01 -0.55c-2.83,-2.83 -2.46,-5.03 1.34,-8.02 3.88,-3.05 8.35,-3.39 10.5,-0.78 4.43,5.33 -6.9,13.75 -11.85,8.8zm45.5 -86.72c25.7,-45.45 41.02,-62.17 48.57,-53.02 14.47,17.52 45.52,-7.98 39.04,-32.06 -4.83,-17.94 -34.87,-9.81 -44.54,12.06 -3.11,7.02 -3.49,6.57 -9.88,-11.74 -9.63,-27.57 -16.67,-34.79 -30.17,-30.92 -17.45,5 -15.55,26.31 3.39,38.02 9.65,5.96 -0.59,26.26 -39.94,79.14 -8.44,11.35 -15.18,20.72 -14.96,20.81 0.21,0.1 6.63,3.32 14.27,7.17l13.88 6.98 4.89 -8.87c2.69,-4.88 9.65,-17.28 15.46,-27.56l0 0zm12.86 338.88c-4.26,-0.65 -6.4,-3.18 -5.87,-6.92 0.8,-5.62 16.19,-3.65 16.19,2.08 0,2.24 -3.49,5.8 -5.45,5.55 -0.82,-0.11 -3.01,-0.43 -4.86,-0.71zm-784.46 -10.69c-10.65,-5.77 -11.64,-36.7 -2.11,-65.62 9.27,-28.12 12.67,-54.49 13.98,-108.26 0.4,-16.31 1.03,-34.9 1.41,-41.32 0.68,-11.59 0.67,-11.67 -2.26,-11.67 -8.89,0 -26.43,-35.76 -23.45,-47.82 0.23,-0.92 -2.86,-2.76 -7.48,-4.46 -33.27,-12.24 -49.46,-38.88 -47.93,-78.86 2.71,-71.15 61.69,-120.04 107.4,-89.02l4.38 2.97 5.74 -7.79c14.19,-19.25 30.15,-16.7 34.13,5.45 4.57,25.43 -32.97,49.2 -38,24.06 -0.48,-2.41 -1.55,-3.87 -2.82,-3.87 -1.16,-0 -3.43,-2.6 -5.2,-5.97 -3.8,-7.19 -9.75,-10.86 -21.09,-13 -60.25,-11.37 -102.62,101.11 -54.41,144.44 8.28,7.45 30.09,16.16 30.09,12.02 0,-2.42 11.65,-8.69 18.77,-10.09 3.9,-0.77 8,-1.66 9.11,-1.97 1.36,-0.39 2.94,-4.35 4.87,-12.22 5.44,-22.21 11.48,-28.68 26.76,-28.68 9.47,0 13.93,-4.89 16.73,-18.34 8.45,-40.57 12.07,-52.23 19.96,-64.27 12.91,-19.73 21.94,-2.69 24.16,45.61 0.39,8.44 1.07,17.67 1.53,20.5l0.82 5.15 12.93 0c20.91,0 27.01,4.76 29.98,23.39l1.5 9.42 4.74 0c6.56,0 14.85,3.56 16.13,6.91 1.9,5 4.06,27.64 3.23,33.89 -0.56,4.2 -0.3,6.73 0.82,8.09 1.28,1.54 1.81,18.26 2.44,76.53 0.98,91.03 2.48,105.98 13.64,136.39 7.13,19.41 11.81,37.76 10.96,42.95 -0.33,2.05 -0.65,4.41 -0.71,5.25 -0.15,2.22 -2.57,2.53 -43,5.39 -75.72,5.36 -162.17,7.86 -167.74,4.85l0 -0zm57.41 -9.89c17.35,-0.69 47.44,-2.07 66.87,-3.08 19.43,-1 44.31,-2.2 55.3,-2.67 19.58,-0.83 19.96,-0.91 19.22,-3.53 -20.09,-71.68 -25.63,-116.84 -24.27,-197.92 0.72,-43.15 0.66,-45.1 -1.56,-45.1 -4.83,0 -33.8,6.49 -73.31,16.43 -22.56,5.67 -48.33,11.93 -57.29,13.91 -19.81,4.37 -18,1.11 -18.87,33.87 -2.04,76.34 -4.74,100.84 -14.63,132.65 -6.09,19.59 -8.96,50.19 -5.15,54.78 1.96,2.37 8.94,2.45 53.67,0.67l0 -0zm-27.44 -35.41c-6.61,-3.85 4.88,-17.11 13.93,-16.07 7.14,0.83 5.43,7.39 -3.33,12.8 -8.48,5.23 -7.67,4.98 -10.6,3.27l0 0zm0.5 -40.52c-3.54,-3.54 -1.66,-7.17 7,-13.56 9.34,-6.9 15.9,-8.43 17.29,-4.03 2.12,6.69 -19.53,22.36 -24.3,17.59l0 0zm0.59 -38.44c-2.93,-2.93 -0.65,-7.89 5.1,-11.09 7.91,-4.42 12.22,-3.94 12.74,1.43 0.57,5.91 -13.81,13.69 -17.84,9.66l0 0zm1.23 -115.85c5.45,-1.03 24.39,-5.88 42.09,-10.77 17.7,-4.89 38.26,-10.57 45.71,-12.61 16.4,-4.54 43.28,-10.04 48.83,-10.04l4.11 0 -0.59 -16.34c-0.91,-25.16 1.49,-24.95 -97.52,-8.49 -14.57,2.42 -34.16,5.32 -43.53,6.45 -20.49,2.46 -27.74,5.37 -29.33,11.76 -0.56,2.26 -1.65,4.1 -2.42,4.1 -4.16,0 4.09,28.48 10.49,36.18 1.82,2.19 9.81,2.12 22.07,-0.21l0.1 -0.01zm27.31 -68.07c30.89,-5.54 54.28,-9 73.54,-10.88l15.24 -1.49 -1.1 -7.04c-1.95,-12.45 -7.76,-16.12 -24.62,-15.55 -21.79,0.74 -25.24,-7.39 -18.81,-44.31 1.99,-11.43 2.52,-10.79 -8.28,-10.04l-8.45 0.59 -1.89 8.37c-1.04,4.61 -2.77,13.89 -3.85,20.63 -4.49,28.11 -8.74,34.63 -23.16,35.52 -10.61,0.65 -14.34,2.61 -17.76,9.33 -1.91,3.76 -6.46,17.01 -6.46,18.82 0,0.64 0.17,0.61 25.59,-3.94l0 0zm45.04 -101.94c-0.03,-8.56 -6.99,-10.69 -10.8,-3.31 -2.52,4.88 -2.52,4.88 4.54,4.88 4.2,0 6.3,-0.52 6.3,-1.57l-0.04 0zm-40.52 -16.13c10.22,-7.41 13.4,-18.36 7.14,-24.62 -9.57,-9.57 -20.79,5.08 -16.87,22.04 1.72,7.47 2.65,7.71 9.73,2.58zm-188.87 423.7c-0.83,-0.83 -1.52,-2.57 -1.52,-3.85 0,-1.29 -1.37,-7.28 -3.04,-13.31 -1.67,-6.04 -4.89,-19.49 -7.16,-29.9 -4.88,-22.42 -3.77,-20.4 -9.63,-17.61 -19.81,9.4 -48.32,-7.19 -48.32,-28.1 0,-2.11 -1.08,-2.63 -6.77,-3.21 -48.69,-5.03 -45.62,-74.05 3.59,-80.76l10.57 -1.44 -0.72 -12.79c-2.42,-42.64 61.64,-49.62 72.86,-7.94 1.21,4.5 1.72,5.01 4.37,4.34 33.32,-8.37 74.13,39.54 53.09,62.34 -1.76,1.91 -3.48,6.14 -4.36,10.72 -3.96,20.6 -23.02,41.5 -40.39,44.28 -4.14,0.66 -5.26,1.33 -4.81,2.89 0.32,1.11 2.68,8.84 5.24,17.17 12,38.94 11.31,52.36 -2.67,52.36 -5.63,0 -7.74,0.62 -10.75,3.15 -4.09,3.44 -7.26,3.99 -9.61,1.64l0.02 0.01zm16.7 -14.89c5.87,0 5.89,-2.04 0.19,-24.23 -7.53,-29.32 -16.24,-51.52 -18.68,-47.61 -0.19,0.31 -1.62,2.93 -3.17,5.82l-2.82 5.26 5.03 17.79c2.77,9.78 5.94,23.31 7.06,30.06 2.71,16.37 2.49,15.8 5.43,14.22 1.35,-0.72 4.48,-1.31 6.96,-1.31l0 0zm-40.51 -60.18c1.96,-0.99 4.11,-3.39 4.79,-5.33 0.68,-1.94 2.6,-4.15 4.28,-4.92 3.41,-1.56 6.28,-9.92 7.39,-21.55 1.23,-12.99 7.65,-12.28 11.68,1.3 7.09,23.91 17,26.37 34.35,8.52 11.74,-12.08 16.13,-23.42 10.85,-27.98 -3.82,-3.3 -5.61,-12.46 -4.09,-20.94 2.16,-12 6.69,-12.19 14.59,-0.59 2.43,3.57 0.64,-10.17 -2.17,-16.64 -8.96,-20.67 -42.14,-29.44 -47.81,-12.65 -3.2,9.5 -9.65,11.26 -11.57,3.16l-0.71 -3 -2.16 3.08c-1.19,1.7 -2.16,4.33 -2.16,5.87 0,5.64 -5.65,8.49 -9.41,4.73 -5.12,-5.12 5.98,-25.23 15.72,-28.47 2.65,-0.89 -0.69,-8.91 -5.96,-14.33 -9.95,-10.24 -28.33,-14.42 -38.31,-8.69 -12.01,6.9 -13.46,31.48 -2.2,37.22 6.51,3.32 7.39,16.29 1.11,16.29 -0.62,0 -2.03,0.35 -3.14,0.77 -1.33,0.51 -3.48,-0.83 -6.33,-3.94 -15.54,-16.96 -48.33,6.18 -44.31,31.28 3.04,18.97 27.29,37.03 30.46,22.67 5.41,-24.5 20.3,-36.52 34.07,-27.49 14.97,9.81 4.39,28.67 -21.64,38.57 -3.08,1.17 -3.32,1.74 -2.7,6.35 2.01,15.02 21.01,23.98 35.38,16.7l0 0zm-27.79 -36.48c10.47,-5.27 16.04,-15.52 9.57,-17.57 -4.81,-1.53 -12.59,6.84 -15.57,16.77 -1.02,3.41 0.44,3.61 6,0.8zm-1504.28 106.79c-3.52,-3.52 -4.2,-7.38 -3.58,-20.28l0.54 -11.3 -3.97 0c-36.34,0 -59.83,-44.59 -48.02,-91.14 14.73,-58.06 62.13,-91.43 107.46,-75.64l11.46 3.99 5.91 -5.65c12.22,-11.72 36.78,-21.42 42.85,-16.93 1.98,1.46 3.71,2.46 3.86,2.23 2.19,-3.5 10.83,-14.4 24.83,-31.34 39.48,-47.77 49.94,-62.98 65.76,-95.69 23.99,-49.57 37.75,-61.83 54.85,-48.85 25.16,19.13 145.52,134.58 145.52,139.6 0,4.56 -17.17,17.44 -41,30.76 -8.33,4.66 -18.26,11.11 -22.08,14.33 -29,24.5 -41.24,37.41 -82.19,86.63 -23.92,28.74 -43.32,49.83 -45.85,49.83 -0.88,0 -4.07,3.02 -7.11,6.7 -6.24,7.58 -20.57,20.75 -24.58,22.6 -2.93,1.35 -7.98,-0.68 -15.28,-6.15l-4.07 -3.05 -7.23 5.89c-15.8,12.87 -23.28,12.48 -38.88,-2.03 -9.9,-9.21 -6.61,-10.64 -30.28,13.16 -46.71,46.96 -61.66,30.19 -26.93,-30.18 17.09,-29.71 17.46,-32.12 6.6,-42.97l-7.07 -7.07 0.48 -8.41c0.39,-6.87 1.56,-10.61 6.34,-20.4l5.86 -11.98 -4.75 -6.31c-6.57,-8.73 -8.83,-13.48 -9.39,-19.69 -0.94,-10.51 -24.8,-16.88 -44.26,-11.81 -53.19,13.85 -84.87,100.68 -49.6,135.94 11.08,11.08 24.64,15.45 34.45,11.11 4.23,-1.87 6.34,-2.26 6.94,-1.28 0.6,0.97 2.46,0.59 6.04,-1.24 13.8,-7.04 22.78,1.77 21.4,21.02 -1.49,20.69 -23.69,36.92 -35.02,25.59l0.02 0zm19.32 -10.19c6.14,-4.83 7.31,-19.39 2.2,-27.53 -1.28,-2.04 -11.47,4.31 -14.56,9.06 -8.24,12.68 1.4,27.09 12.36,18.47l0 0zm41.8 -4.58c5.53,-2.64 5.53,-2.63 -0.46,-8.47 -4.28,-4.19 -5,-4.5 -5.56,-2.46 -3.44,12.59 -2.2,14.86 6.02,10.94zm21.5 -24.69c18.43,-28.01 25.01,-30.46 41.15,-15.31 6.28,5.89 9.52,8.06 12.1,8.07 1.93,0.01 4.65,0.32 6.04,0.69 1.77,0.46 4.41,-1 8.83,-4.91l6.31 -5.58 -10.76 -11.19c-12.77,-13.28 -36.37,-40.71 -52.78,-61.34 -13.89,-17.47 -12.08,-16.74 -16.63,-6.72 -7.1,15.67 -6.52,20.01 3.97,29.86 10.13,9.51 8.92,16.51 -7.52,43.73 -4.24,7.02 -9,15.42 -10.57,18.66l-2.85 5.89 6.31 5.52c8,7 6.53,7.66 16.41,-7.36l-0 0zm107.92 -18.46c4.52,-4.09 9.82,-9.74 11.78,-12.56l3.56 -5.13 -5.08 -5.43c-8.73,-9.31 -20.37,-25.52 -46.87,-65.35 -35.3,-53.03 -43.41,-62.91 -50.34,-61.2 -13.06,3.2 -30.44,15.11 -30.44,20.84 0,1.99 -0.57,3.97 -1.26,4.4 -4.94,3.05 1.54,14.34 19.36,33.75 8.44,9.2 23.98,27.22 34.52,40.06 48.39,58.92 52.24,61.93 64.78,50.61l0.01 0.01zm48.14 -52.51c54.94,-65.99 85.96,-94.89 143.97,-134.14l12.4 -8.39 -12.4 -11.37c-6.81,-6.26 -23.67,-22.17 -37.46,-35.35 -61.91,-59.21 -91.9,-86.42 -95.22,-86.42 -5.07,0 -23.85,26.35 -32.2,45.17 -12.24,27.6 -28.41,52.59 -53.79,83.09 -26.33,31.65 -40.51,49.98 -39.9,51.57 0.33,0.87 4.25,6.32 8.7,12.12 4.46,5.8 19.63,27.02 33.72,47.14 35.15,50.21 47.38,66.15 49.2,64.11 0.51,-0.57 10.85,-12.95 22.98,-27.52l-0.01 0zm-41.37 -151.74c-2.1,-1.43 -6.06,-13.61 -5.17,-15.91 0.94,-2.47 6.31,-2.7 8.26,-0.36 6.88,8.29 4.4,21.35 -3.09,16.27l0 0zm25.8 -20.5c-3.08,-1.8 -8.19,-23.37 -6.13,-25.86 4.33,-5.22 7.66,-1.94 11.2,11.07 3.74,13.72 1.96,18.9 -5.07,14.79l0 0zm22.91 -39.07c-3.35,-3.35 -5.96,-15.73 -3.85,-18.27 4.03,-4.85 7.64,-2 10.61,8.36 2.9,10.1 -0.94,15.73 -6.76,9.91zm870.82 297.02c-16.97,-8.46 -30.12,-31.29 -23.48,-40.77 4.51,-6.44 20.97,-8.38 39.98,-4.7 14.49,2.8 17.25,10.42 3.64,10.06l-6.34 -0.17 1.99 6.47c7.37,23.96 0.25,37.09 -15.79,29.1l0 0zm9.79 -10.34c0,-1.93 -1.17,-7.72 -2.6,-12.88 -1.43,-5.17 -2.35,-10.37 -2.03,-11.57 1.41,-5.4 -19.01,-4.52 -21.1,0.92 -1.67,4.36 4.41,12.77 15.61,21.55 8.14,6.39 10.12,6.78 10.12,1.98l0 0zm-763.93 5.66c-11.3,-4.59 -15.19,-11.3 -14.24,-24.54 0.95,-13.25 11.39,-34.41 16.99,-34.41 1.56,0 6.41,-1.93 10.77,-4.3 20.49,-11.1 40.16,2.4 42.38,29.09 1.93,23.23 -31.92,43.91 -55.9,34.15l0 0zm23.89 -10.56c26.05,-7.97 31.5,-32.67 10.13,-45.89 -8.24,-5.09 -28.18,4.83 -33.87,16.85 -11.75,24.84 -1.9,36.88 23.74,29.03l0 0zm2182.93 -26.83c-6.24,-4.12 -8.78,-9.41 -7.93,-16.57l0.74 -6.24 -11.69 0c-13.5,0 -16.81,-1.43 -15.5,-6.68l0.83 -3.29 19.23 -0.58c10.57,-0.32 21.2,-0.78 23.61,-1.01 3.52,-0.34 4.48,0.06 4.87,2.03 0.27,1.35 1.77,3.46 3.33,4.69 14.07,11.07 -2.63,37.46 -17.5,27.65l0 0zm9.35 -11.55c1.71,-6.37 1.24,-9.21 -1.64,-9.77 -3.17,-0.61 -6.37,7.33 -4.72,11.69 1.85,4.86 4.77,3.97 6.36,-1.93zm-1297.62 -39.52c-30.28,-13.21 -25.86,-71.43 5.43,-71.43 4.64,0 2.58,-13.52 -11.77,-77.19 -3.08,-13.66 -5.59,-25.16 -5.59,-25.55 0,-0.39 -1.89,-0.72 -4.19,-0.72 -2.3,0 -7.27,-0.57 -11.04,-1.26 -3.77,-0.69 -9.38,-1.5 -12.46,-1.8 -41.62,-3.98 -106.17,-85.93 -126.3,-160.33 -8.31,-30.69 -1.92,-49.6 11.11,-32.87 9.94,12.77 20.91,17.98 26.74,12.7 4,-3.62 2.97,-6.54 -8.97,-25.53 -4.6,-7.31 -0.96,-8.28 15.37,-4.11 26.67,6.81 45.23,-24.17 19.52,-32.57 -9.28,-3.03 -11.61,-7.02 -6.74,-11.56 3.33,-3.1 8.24,-3.31 12.23,-0.52 28.96,20.28 48.82,-37.34 22.67,-65.77 -14.9,-16.2 -16.59,-20.18 -10.85,-25.57 15.41,-14.47 89.28,-26.13 119.39,-18.85 61.84,14.97 83.77,79.09 72.59,212.21 -6.37,75.87 -24.6,117.7 -60.14,137.99 -6.18,3.53 -7.25,4.67 -7.25,7.76 0,7.9 12.38,92.5 14.63,99.93 0.57,1.89 1.89,2.07 10.43,1.41 34.82,-2.69 46.25,38.35 14.69,52.74 -10.57,4.82 -27.13,2.71 -36.83,-4.69l-4.17 -3.18 0 5.5c0,19.43 -23.54,39.78 -38.48,33.26l0.01 0zm19.31 -13.78c8.15,-8.73 11.73,-23.21 8.5,-34.32 -2.87,-9.89 -2.83,-9.89 17.44,0.55 22.44,11.57 29.01,12.07 37.6,2.86 13.16,-14.1 2.18,-28.3 -21.73,-28.12l-11.24 0.09 -2.38 -4.72c-6.5,-12.87 -10.4,-35.34 -17.3,-99.56l-0.7 -6.52 -8.44 2.92c-4.64,1.61 -11.73,3.59 -15.75,4.41 -5.9,1.2 -7.18,1.9 -6.65,3.6 20.14,64.72 23.98,111.24 9.2,111.24 -17.38,0 -24.41,17.07 -15.17,36.81 7.05,15.07 18.34,19.63 26.62,10.75l-0 0zm-9.43 -173.72c9.01,-1.9 18.32,-6.26 19.18,-8.98 0.51,-1.6 1.93,-2.39 4.35,-2.39 65.67,0 93.98,-253.72 34.85,-312.31 -28.49,-28.24 -89.07,-33.23 -136.71,-11.27 -11.21,5.17 -11.37,3.72 2.02,17.57 28.22,29.17 20.57,73.23 -14.46,83.42l-6.5 1.89 1.87 6.39c6.7,22.67 -1.92,37.06 -22.14,37.06l-11 0 1.74 5.05c7.02,20.32 -15.74,31.86 -34.54,17.52 -7.05,-5.38 -6.92,-5.42 -6.05,1.72 9.93,81.26 77.33,160.54 141.16,166.01 5.65,0.49 20.57,-0.46 26.28,-1.67l-0.05 -0.01zm-33.2 -29c-2.28,-4.26 1.58,-11.66 5.82,-11.15 5.12,0.61 6.48,3.79 3.91,9.17 -2.48,5.19 -7.47,6.21 -9.73,1.99zm-59.05 -35.6c-4.89,-4.89 4.25,-17.69 11.09,-15.52 4.55,1.44 4.28,5.27 -0.8,11.34 -4.84,5.79 -7.57,6.9 -10.28,4.18l0 0zm105.31 -6.9c-3.28,-3.22 2.65,-14.3 7.7,-14.3 2.8,0 5.36,2.33 5.36,4.87 0,5.57 -9.8,12.67 -13.04,9.43l-0.02 -0zm-61.39 -36.36c-2.06,-2.48 -0.8,-7.09 3.25,-11.91 7.58,-9 13.54,-0.14 6.29,9.36 -3.59,4.7 -7,5.62 -9.54,2.55zm-75.45 -0.89c-3.84,-3.84 9.02,-24.98 15.2,-24.98 6.78,0 5.93,6.01 -2.41,17.04 -7.01,9.27 -9.75,10.97 -12.78,7.94l0 0zm-112.97 256.7c-0.37,-0.59 -4.89,-12.69 -10.06,-26.88 -14.33,-39.43 -31.21,-80.69 -33,-80.69 -11.46,0 -65.9,26.13 -95.89,46.01 -47.26,31.34 -54.26,26.81 -80.83,-52.32 -9.51,-28.31 -8.48,-28.61 -55.35,16.26 -55.44,53.11 -66.36,55.69 -91.28,21.59 -8.62,-11.79 -21.75,-42.77 -21.75,-51.31 0,-27.21 -13.27,-21.26 -56.54,25.31 -25.28,27.22 -29.42,30.15 -30.26,21.5 -0.34,-3.51 1.94,-6.26 24.1,-29.02 39.96,-41.04 54.83,-50.28 64.16,-39.84 3.37,3.77 4.39,6.72 11.69,33.62 6.33,23.31 14.8,37.64 28.82,48.72 12.01,9.49 14.56,8.03 57.7,-33.13 57.3,-54.67 63.99,-56.09 78.73,-16.73 13.89,37.1 25.3,59.96 31.94,64.01 0.93,0.57 9.66,-4.24 22.08,-12.17 67.37,-43 105.61,-59.34 118.22,-50.52 6.8,4.77 46.36,103.17 45.27,112.6 -0.39,3.3 -6.17,5.52 -7.75,2.96l0 0zm929.01 -0.25c-35.5,-10.84 -41.89,-46.04 -9.09,-50.08 3.27,-0.4 10.37,-2.09 15.78,-3.75 26.04,-7.99 37.45,-2.35 35.61,17.6 -2.72,29.45 -18.95,43.36 -42.3,36.24l-0 0zm19.79 -10.26c9.27,-3.5 13.53,-11.71 13.35,-25.72 -0.19,-14.81 -11.43,-15.38 -39.76,-1.99 -3.81,1.8 -7.12,2.55 -9.09,2.05 -2.3,-0.58 -3.45,-0.14 -4.42,1.67 -6.63,12.38 23.2,30.3 39.92,23.98l0 0zm-1108.38 -95.24c-5,-2.1 -8.44,-8.87 -12.34,-24.24 -4.52,-17.83 -3.29,-22.43 5.17,-19.21 1.82,0.7 9.95,1.27 18.06,1.27 40.02,0.03 47.24,5.8 27.99,22.39 -20.3,17.49 -31.18,23.03 -38.87,19.79l0 0zm19.81 -19.48c9.37,-6.77 14.93,-11.55 13.88,-11.92 -0.96,-0.35 -9.7,-0.78 -19.41,-0.98l-17.66 -0.35 0.27 3.74c1.58,21.56 4.55,22.79 22.93,9.5l0 0zm-192.16 7.26c-1.02,-1.56 -4.78,-11.35 -8.35,-21.76 -3.57,-10.41 -7.2,-20.06 -8.07,-21.45 -2.6,-4.16 -3.48,-9.54 -1.88,-11.48 1.87,-2.25 7.03,-2.3 8.35,-0.07 0.74,1.24 7.33,2.08 24.35,3.11 44.5,2.7 44.98,3.77 15.47,34.04 -21.66,22.21 -25.43,24.43 -29.88,17.61zm21.63 -22.39c5.63,-5.9 11.46,-12.29 12.95,-14.2l2.72 -3.47 -3.56 -0.09c-1.96,-0.06 -4.56,-0.29 -5.78,-0.52 -4.94,-0.94 -32.48,-2.17 -32.48,-1.45 0,0.43 1.39,4.33 3.09,8.68 1.7,4.35 4.04,11.31 5.2,15.47 1.16,4.17 2.36,8 2.67,8.53 0.85,1.46 3.98,-1.21 15.18,-12.94l0 0zm1349.85 -59.61c-0.98,-1.56 -3.06,-7.81 -4.63,-13.88 -1.57,-6.07 -3.45,-11.04 -4.18,-11.04 -0.73,0 -6.8,1.8 -13.5,3.99 -13.06,4.28 -16.34,4.15 -16.34,-0.65 0,-4.13 1.27,-4.91 15.45,-9.59 6.77,-2.23 12.3,-4.44 12.3,-4.9 0,-2.17 -10.4,-35.04 -11.41,-36.07 -0.99,-1.01 -7.9,2.03 -16.5,7.26 -4.09,2.49 -9.2,-2.37 -6.67,-6.35 0.63,-0.99 5.12,-3.95 9.98,-6.57 5.36,-2.89 8.69,-5.46 8.46,-6.54 -0.2,-0.98 -3.83,-10.81 -8.06,-21.86 -7.98,-20.86 -8.29,-23.61 -2.69,-24.45 3.55,-0.53 4.24,0.69 12.38,21.83 4.01,10.41 7.7,19.39 8.21,19.96 0.51,0.57 7.13,-1.8 14.72,-5.27 11.59,-5.3 49.01,-20.81 56.15,-23.28 1.88,-0.65 1.64,-1.88 -2.2,-10.99 -4.53,-10.74 -4.4,-15.15 0.44,-15.1 3.55,0.03 4.67,1.45 8.46,10.7 1.99,4.85 3.98,9.27 4.43,9.8 0.72,0.87 20.51,-6.86 40.85,-15.95 8.85,-3.96 10.39,-4.07 12.09,-0.88 2.64,4.94 -2.07,7.7 -39.06,22.89 -9.77,4.01 -9.63,3.4 -4.07,17.78 2.77,7.18 6.03,16.17 7.23,19.98 1.21,3.81 2.61,7.4 3.12,7.96 0.51,0.56 10.45,-2.8 22.09,-7.45 22.02,-8.81 24.76,-9.17 25.62,-3.42 0.54,3.55 -0.57,4.18 -23.09,13.09 -11.1,4.39 -20.4,8.14 -20.66,8.31 -0.26,0.18 0.53,4 1.74,8.5 3.85,14.24 -4.06,18.54 -8.52,4.62 -3.13,-9.78 -2.21,-9.75 -26.29,-0.93 -12.09,4.43 -29.07,10.5 -37.75,13.5 -8.67,3 -15.96,5.59 -16.19,5.76 -0.23,0.17 1.31,6.39 3.42,13.83 2.84,9.98 3.52,14.14 2.59,15.87 -1.72,3.21 -5.78,2.96 -7.94,-0.48l-0 0zm33.31 -51.06c16.31,-5.88 32.35,-11.59 35.65,-12.7 3.3,-1.11 5.99,-2.78 5.99,-3.72 0,-1.89 -7.39,-23.34 -10.76,-31.25 -1.19,-2.78 -2.63,-6.3 -3.21,-7.83 -1.13,-2.96 -28.74,7.17 -62.24,22.82l-11.89 5.56 4.87 15.21c2.68,8.37 5.25,17.24 5.72,19.73 0.73,3.89 1.22,4.41 3.54,3.69 1.48,-0.46 16.03,-5.64 32.34,-11.51zm-1657.82 35.05c-18.44,-5.63 -20.04,-11.79 -8.01,-30.77 15.21,-23.99 16.31,-40.06 4.06,-59.15 -2.13,-3.32 -4.85,-6.04 -6.02,-6.04 -3.83,0 -12.14,-6.41 -16.99,-13.1l-4.75 -6.55 -10.32 3.43c-33.72,11.21 -62.57,10.09 -71.3,-2.78 -11.2,-16.51 13.87,-64.67 35.8,-68.79l4.11 -0.77 -2.7 -5.87c-2.03,-4.43 -2.7,-8.36 -2.71,-16 -0.09,-46.19 81.11,-76.7 98.4,-36.98 1.31,3.01 2.51,5.66 2.67,5.91 0.17,0.24 3.48,-0.76 7.37,-2.21 30.87,-11.55 74.44,16.4 65.93,42.28 -1.63,4.94 -1.63,6.26 0,10.94 12.45,35.78 -15.61,53.06 -60.86,37.49l-6.67 -2.3 -0.49 3.36c-0.69,4.74 2.28,42.53 3.91,49.64 6.06,26.52 19.95,36.66 40.34,29.47 13.59,-4.8 21.71,1.15 23.61,17.3 2.37,20.15 -10.28,34.81 -33.94,39.34 -5.41,1.04 -17.72,4.46 -27.36,7.61 -17.54,5.73 -26.34,6.91 -34.07,4.55l-0 -0zm37.22 -15.62c9.71,-3.07 21.39,-6.27 25.96,-7.11 19.5,-3.59 24.3,-10.94 19.41,-29.71 -2.44,-9.38 -2.03,-9.09 -9.16,-6.52 -28.15,10.12 -53.24,-13.33 -53.24,-49.78 0,-4.63 0.56,-4.89 -8.61,4.03l-7.87 7.65 3.8 7.8c11.8,24.21 9.24,48.52 -6.78,64.55 -6.86,6.86 -7.04,8.2 -1.7,12.69 5.55,4.67 14.73,3.81 38.19,-3.6l0 0zm-37.62 -93.08c12.26,-5.93 17.04,-16.59 16.65,-37.15 -0.36,-19.33 0.56,-19.84 22.52,-12.38 32.55,11.05 48.91,5.61 48,-15.97l-0.35 -8.2 -6.52 0.42c-8.91,0.58 -11.79,-2.23 -11.75,-11.46 0.06,-14 6.81,-21 14.83,-15.38 3.83,2.68 3.52,0.66 -0.82,-5.33 -16.57,-22.87 -50.92,-24.65 -62.24,-3.23 -3.94,7.46 -11.3,2.43 -8,-5.46 6.92,-16.56 -10.78,-32.31 -31.96,-28.43 -44.58,8.15 -63.07,47.69 -34.24,73.21 17.67,15.64 15.9,26.48 -1.94,11.94 -13.83,-11.26 -35.08,-1.21 -45.49,21.52 -13.66,29.83 11.3,39.52 59.61,23.13l7.74 -2.62 -0.17 -8.12c-0.28,-13.71 8.39,-18.65 23.6,-13.47 11.92,4.06 9.17,13.78 -6.42,22.68 -11.7,6.68 4.49,20.33 16.95,14.3l0 0zm-18.71 -23.9c1.74,-1.45 2.67,-3.26 2.25,-4.37 -1.57,-4.15 -7.1,-1.02 -7.1,4.04 0,3.52 0.97,3.58 4.87,0.34l-0.01 -0zm99.77 -60.44c1.37,-0.87 1.5,-1.84 0.54,-3.99l-1.27 -2.85 -2.75 2.75c-4.45,4.44 -1.87,7.47 3.48,4.09l0 0zm212.94 158.24c-27.03,-3.27 -63.01,-12.94 -69.9,-18.79 -16.33,-13.84 -33.48,-75.17 -51.55,-184.31 -3.79,-22.9 -7.48,-45.04 -8.19,-49.2 -0.72,-4.17 -3.57,-24.32 -6.34,-44.79 -2.78,-20.47 -5.93,-43.18 -7.02,-50.46 -7.75,-52.03 -4.11,-64.13 24.25,-80.73 30.26,-17.71 94.98,-32.85 164.74,-38.54 31.6,-2.57 69.62,11.41 81.29,29.9 1.68,2.66 3.91,4.83 4.96,4.83 2.39,0 3.78,3.65 4.91,12.84 0.69,5.65 1.53,7.59 3.95,9.18 3.56,2.33 3.82,4.43 1.18,9.53 -2.15,4.17 0.49,23.85 13.91,103.45 8.2,48.62 7.78,46.68 9.93,46.68 2.14,0 3.1,5.53 4.08,23.34 0.83,15.15 10.93,75.7 17.16,102.83 9.38,40.86 4.31,61.3 -20.48,82.56 -39.61,33.96 -101.97,49.54 -166.89,41.69l0.01 0zm70.67 -11.41c83.15,-11.24 121.07,-50.97 106.48,-111.58 -3.36,-13.96 -11.24,-55.43 -11.6,-61 -0.05,-0.8 -1.15,1.52 -2.44,5.15 -6.7,18.85 -17.24,31.83 -32.2,39.65 -39.74,20.78 -69.9,22.36 -124.17,6.48 -33.51,-9.8 -36.93,-10.57 -50.05,-11.34 -24.17,-1.41 -50.96,11.58 -50.94,24.7 0.02,15.15 19.31,78.94 26.86,88.84 11.48,15.05 88.81,25.73 138.06,19.08l0 0zm13.16 -122.87c51.41,-8.82 69.5,-27.01 72.39,-72.78 0.7,-11 0.67,-11.13 -1.56,-8.09 -23.55,32.21 -51.77,43.48 -100.67,40.22 -40.34,-2.69 -58.95,-13.84 -102.99,-61.67 -23.29,-25.3 -45.6,-30.74 -67.73,-16.52 -1.83,1.18 1.02,20.72 11.91,81.56 6.83,38.16 6.11,35.74 9.66,32.55 1.54,-1.39 7.06,-4.58 12.27,-7.09 27,-13.06 40.45,-12.77 85.22,1.78 41.18,13.39 53.31,14.88 81.51,10.04l0 0zm17.67 -54.16c23.09,-6.03 35.44,-16.67 47.06,-40.55 7,-14.37 7.05,-9.83 -0.66,-54.4 -3.52,-20.35 -8.79,-52.48 -11.7,-71.41l-5.3 -34.42 -10.74 7.89c-38.65,28.39 -74.28,39.31 -145.63,44.65 -52.26,3.91 -84.08,2.65 -99.86,-3.95 -2.54,-1.06 -4.9,-1.64 -5.26,-1.28 -0.57,0.57 9.79,76.35 10.58,77.39 0.17,0.22 5.05,-1.13 10.83,-3.01 30.26,-9.82 41.98,-4.38 80.85,37.52 37.2,40.1 81.36,54.24 129.83,41.58l0 0zm-137.08 -157.83c7.63,-0.65 21.54,-1.83 30.91,-2.62 49.74,-4.21 83.31,-15.67 116.82,-39.88 18.17,-13.13 17.28,-12.07 16.28,-19.39l-0.88 -6.4 -3.34 4.46c-33.23,44.37 -209.51,75.33 -256.2,45l-3.06 -1.98 0.84 4.39c3.09,16.07 36.73,21.68 98.63,16.42l0 0zm6.32 -19.61c118.6,-13.72 183.27,-55.31 127.5,-81.98 -48.37,-23.13 -220.54,12.21 -234.17,48.07 -10.52,27.68 35.13,42.19 106.67,33.91l0 0zm-70.67 -8.11c-22.11,-5.33 -18.26,-30.75 6.57,-43.45 23.03,-11.78 77.83,-5.13 79.61,9.65 1.82,15.19 -61.07,39.86 -86.19,33.8l0 0zm40.45 -15.81c42.3,-10.65 45.9,-21.77 7.43,-22.96 -27.14,-0.84 -49,7.22 -53.33,19.67 -3.53,10.11 13.87,11.36 45.91,3.3l-0 0zm66.21 -5.04c-3.56,-4.29 2.42,-9.65 8.57,-7.7 3.15,1 3.95,3.07 2.61,6.69 -1.25,3.36 -8.67,4.03 -11.18,1.01zm-6.04 -20.45c-6.15,-2.48 1.23,-11.67 8,-9.97 5.5,1.38 4.78,7.2 -1.17,9.47 -3.78,1.44 -4.4,1.48 -6.83,0.5zm-577.91 359.19c-10.43,-6.56 -10.39,-27.66 0.09,-57.34 2.81,-7.95 7.13,-8.46 11.56,-1.37 1.3,2.08 6.25,8.39 11,14.01 22.23,26.36 23.28,38.86 3.76,44.74 -9.47,2.85 -21.84,2.84 -26.4,-0.04l0 0zm25 -10.15c8.2,-4.19 6.86,-7.93 -9.96,-27.75 -8.44,-9.96 -7.87,-10 -10.44,0.71 -6.34,26.37 1.46,36.71 20.4,27.04l0 0zm833.43 -7.11c-1.78,-4.64 5.71,-11.43 11.42,-10.34 3.39,0.65 3.66,6.17 0.46,9.59 -3.2,3.44 -10.67,3.92 -11.89,0.75l0 0zm-918.11 -18.6c-22.43,-8.01 -24.88,-23.88 -10.45,-67.49 13.98,-42.24 9.08,-47.81 -23.22,-26.41 -44.26,29.33 -64.77,23.7 -65.11,-17.9 -0.27,-31.83 7.99,-37.85 51.93,-37.85 48.33,0 49.37,-4.52 7.86,-34.06 -40.81,-29.05 -47.44,-44.19 -27.41,-62.65 25.64,-23.64 62.38,-2.56 74.21,42.57 11.55,44.09 22.63,47.76 54.11,17.88 31.15,-29.57 47.97,-36.61 58.75,-24.61 2.33,2.6 7.39,8.14 11.24,12.3 19.33,20.92 10.89,33.87 -29.56,45.38 -48.79,13.88 -53.13,24.59 -13.29,32.86 41.89,8.69 63.65,42.4 45.39,70.3 -11.39,17.4 -27.57,13.74 -55.02,-12.45 -40.15,-38.3 -46.44,-36.54 -46.46,12.97 -0.01,43.76 -9.31,57.63 -32.96,49.17l-0.01 -0zm12.15 -10.17c8.58,-3.59 11.09,-12.86 12.63,-46.76 2.49,-54.46 16.44,-57.17 62.7,-12.17l17.41 16.93 7.35 -0.67c36.78,-3.33 17.18,-47.47 -25.59,-57.63 -31.9,-7.57 -43.09,-22.06 -28.28,-36.57 5.52,-5.41 7.83,-6.41 43.04,-18.53 34.93,-12.03 35.76,-12.96 22.54,-25.2 -4.88,-4.52 -9.22,-9.32 -9.65,-10.68 -2.86,-9.02 -29.55,3.23 -45.09,20.69 -13.53,15.2 -17.74,19.09 -23.92,22.08 -19.55,9.46 -37.39,-6.67 -46.91,-42.41 -8.94,-33.58 -30.73,-51.42 -51.54,-42.22 -21.86,9.67 -12.23,35.44 19.37,51.87 21.91,11.39 28.02,16.53 33.04,27.83 1.38,3.09 3.28,6.4 4.22,7.34 3.89,3.89 1.81,6.59 -11.15,14.47 -8.78,5.34 -11.36,5.62 -25.82,2.81 -35.66,-6.93 -59.08,5.22 -56.88,29.5 1.97,21.72 17.9,29.52 35.24,17.26 48.98,-34.63 77.07,-24.82 57.85,20.19 -17.84,41.76 -13.33,71.35 9.43,61.84l-0 0zm2372.17 -36.88c-4.1,-4.1 1.08,-10.66 13.63,-17.26 16.3,-8.57 15.58,-11.42 -5.64,-22.33 -31.59,-16.25 -26.63,-24.41 17.67,-29.01 20.27,-2.11 19.84,-3.8 -5.64,-22.62 -32.93,-24.32 -24.85,-40.74 20.15,-40.94 21.13,-0.1 25.31,0.61 26.54,4.47 1.75,5.52 -1.48,6.51 -15.87,4.83 -23.14,-2.69 -39.06,0.36 -39.06,7.48 0,3.94 1.54,5.51 23.47,23.96 4.93,4.15 10.75,10.24 12.93,13.53 8.87,13.39 4.19,16.74 -27.1,19.39 -25.35,2.14 -25.69,2.87 -5.87,12.67 27.01,13.34 27.53,20.45 2.72,37.19 -5.12,3.45 -9.76,7 -10.31,7.89 -1.06,1.69 -6.17,2.21 -7.61,0.77l0 0zm-1483.21 -12.22c-4.11,-4.96 -0.13,-7.74 15.85,-11.04 9.57,-1.98 14.27,-0.91 14.27,3.22 0,3.94 -1.42,4.77 -11.35,6.66 -16.87,3.2 -17.06,3.22 -18.77,1.15zm1259.6 -19.8c-62.19,-9.53 -135.63,-53.1 -135.63,-80.46 0,-2.98 -4.63,-5.43 -19.28,-10.18 -37.47,-12.16 -56.98,-12.02 -74.06,0.56 -13.37,9.84 -17.4,9.87 -31.81,0.21 -20.81,-13.98 -7.82,-46.33 18.67,-46.33 2.22,0 2.17,-1.15 -0.3,-7.05 -7.76,-18.58 2.32,-33.17 23.78,-34.39 19.81,-1.13 23.66,2 23.66,19.22 0,23.61 2.96,25.47 50.39,31.69 21.94,2.87 20.25,3.35 27.25,-7.7 24.35,-38.45 59.97,-56.74 140,-71.88 97.6,-18.46 131.35,24.07 109.67,138.24 -9.27,48.84 -66.36,78.2 -132.39,68.08l0.04 -0.01zm64.28 -13.08c46.56,-14.06 59.93,-36.78 61.95,-105.46 2.17,-70.09 -22.14,-91.52 -90.39,-79.66 -94.47,16.41 -124.05,32.35 -148.46,80 -1.27,2.48 -4.76,8.81 -7.76,14.08 -4.61,8.09 -5.31,10.22 -4.52,13.67 0.51,2.25 0.84,5.54 0.72,7.31 -2.59,39.99 127.58,88.42 188.35,70.07l0.11 -0zm-158.02 -86.93c-6.32,-4.62 -7.34,-11.22 -1.84,-12 3.35,-0.48 13.8,6.62 14.92,10.12 2.09,6.6 -5.19,7.65 -13.07,1.88zm73.1 -16.46c-4.44,-4.58 -4.8,-7.82 -1.11,-10.14 4.81,-3.03 14.55,6.7 11.53,11.52 -2.33,3.73 -5.93,3.25 -10.42,-1.38zm95.76 -15.65c-3.11,-1.02 -7.57,-5.64 -7.57,-7.84 0,-5.42 6.83,-6.74 11.13,-2.16 4.7,5.01 2.24,11.9 -3.56,10l0 0zm-141.98 -5.41c-3.15,-6.09 -0.01,-11.22 5.76,-9.39 2.85,0.91 5.47,7.24 4.4,10.62 -1.37,4.3 -7.69,3.54 -10.16,-1.23l0 0zm86.74 -28.89c-4.39,-4.01 -4.77,-5.23 -2.76,-8.98 1.89,-3.53 5.5,-3 9.95,1.44 8.08,8.08 1.24,15.25 -7.19,7.54l0 0zm76.14 -7.1c-2.39,-2.39 -3.79,-7.4 -2.79,-10 1.1,-2.87 6.69,-2.3 8.93,0.91 4.77,6.81 -0.55,14.69 -6.14,9.09zm-330.5 75.06c20.7,-14.24 58.44,-12.92 97.32,3.43 0.87,0.36 1.58,-0.17 1.58,-1.18 0,-1.02 1.42,-5.05 3.15,-8.97 4.2,-9.51 4.42,-9.14 -5.99,-10.12 -52.75,-4.96 -70.04,-14 -65.31,-34.16 4.02,-17.18 -15.03,-26.8 -27.15,-13.71 -6.52,7.04 -1.14,24.43 7.56,24.43 5.23,0 8.61,3.67 7.83,8.48 -1.41,8.67 -6.01,10.16 -14.22,4.58l-4.91 -3.33 -6.31 2.23c-23.3,8.25 -28.28,23.22 -10.64,31.94 6.01,2.98 8.13,2.53 17.08,-3.63l0 0zm-402.84 70.74c-12.8,-5.16 -2.11,-26.31 28.89,-57.16 12.84,-12.78 16.04,-14.35 19.15,-9.39 1.03,1.64 0.95,2.89 -0.31,4.91 -0.93,1.49 -4.79,11.83 -8.57,22.98 -12.81,37.72 -21.12,45.93 -39.16,38.66l0 0zm18.09 -12.99c3.19,-6.17 11.93,-30.1 11.49,-31.43 -0.65,-1.93 -19.46,18.45 -22.46,24.34 -3.16,6.19 -2.04,10.75 2.81,11.54 4.34,0.7 5.95,-0.18 8.15,-4.44zm-599.41 -10.69c-7.27,-3.96 -9.42,-9.42 -4.36,-11.03 5.84,-1.85 19.81,7.87 17.51,12.18 -1.74,3.24 -5.74,2.9 -13.15,-1.15l0 0zm703.99 -22.22c-7.23,-3.15 -12.69,-13.56 -14.45,-27.55 -1.02,-8.17 -0.7,-14.4 2.46,-46.65 3.87,-39.54 -11.95,-37.32 -76.71,10.77 -22.76,16.89 -37.34,21.33 -51.05,15.52 -23.63,-10 -3.61,-38.59 44.12,-63 23.02,-11.77 21.55,-14.35 -20.93,-36.78 -46.4,-24.5 -54.28,-36.5 -33.14,-50.42 23.28,-15.33 53.17,-14.07 88.72,3.76 7.76,3.89 18.63,9.88 24.17,13.31 15.24,9.45 13.02,4.7 -9.88,-21.06 -30.73,-34.59 -33.05,-51.7 -7.99,-59.14 29.19,-8.67 51.5,22.41 53.65,74.74 0.99,24.26 1.2,24.56 8.81,12.63 25.4,-39.83 33.42,-46.61 55.35,-46.83 41.46,-0.41 36.63,34.35 -7.87,56.65 -17.39,8.72 -23.33,16.83 -15.79,21.58 1.91,1.2 5.14,3.54 7.19,5.2 2.04,1.66 11.56,6.92 21.13,11.68 40.89,20.33 55.5,38.71 42.53,53.48 -14.29,16.28 -39.44,9.33 -52.28,-14.43 -10.09,-18.67 -16.72,-24.49 -31.01,-27.15l-4.56 -0.85 -0.72 36.38c-1.27,63.82 -7.03,84.56 -21.73,78.15l-0 0zm6.95 -13.7c0.96,-2.59 1.93,-19.15 2.64,-45.1 1.77,-64.59 2.29,-66.87 15.09,-66.87 14.61,0 22.83,6.48 38.44,30.28 14.78,22.54 17.59,24.57 28.56,20.63 22.48,-8.09 14.76,-20.39 -24.69,-39.39 -53,-25.52 -55.43,-38.19 -11.77,-61.4 27.08,-14.4 31.28,-20.16 21.81,-29.91 -13.38,-13.78 -29.67,-7.94 -44.47,15.94 -30.8,49.68 -39.85,48.74 -46.44,-4.78 -6.04,-49.01 -12.42,-59.66 -34.28,-57.2 -17.48,1.97 -16.48,11.91 3.55,34.99 27.11,31.24 35.24,45.43 33.49,58.44 -1.31,9.8 -10.95,11 -10.95,1.35 0,-6.24 -48.31,-33.23 -68.65,-38.36 -17.67,-4.46 -41,-2.62 -53.1,4.18 -12.32,6.93 -6.16,13.21 36.59,37.37 46.44,26.24 49.43,35.35 17.06,51.86 -35.2,17.94 -54.31,35.16 -47.45,42.74 6.13,6.78 19.5,4.11 34.52,-6.91 60.74,-44.52 88.87,-55.41 98.36,-38.06 2.35,4.3 2.7,16.07 1.84,61.48 -0.35,18.3 0.46,23.65 4.53,29.97 2.47,3.83 3.54,3.58 5.32,-1.26l0 0zm-642.2 10.09c-0.02,-0.93 -6.4,-17.63 -8.89,-23.26 -3.22,-7.27 -2.09,-10.97 3.11,-10.23 5.27,0.76 16.58,28.03 13.28,32.02 -1.2,1.44 -7.47,2.69 -7.5,1.48zm-1156.3 -10.86c-23.83,-6.28 -13.32,-34.69 12.83,-34.65 10.19,0.02 18.9,4.24 28.5,13.84 9.89,9.88 10.85,15.58 2.64,15.58 -1.67,0 -6.43,1.14 -10.57,2.54 -8.2,2.76 -27.28,4.3 -33.39,2.68l0 0.01zm26.81 -11.04c7.73,-2.12 8.07,-3.08 2.52,-7.16 -9.54,-7.02 -23.1,-8.01 -29.34,-2.15 -10.57,9.93 4.94,15.31 26.82,9.31zm1171.39 -7.06c-3.77,-3.77 -1.09,-13.63 3.71,-13.63 2.95,0 4.04,2.06 3.84,7.29 -0.25,6.75 -3.99,9.89 -7.55,6.34zm-1014.06 -32.66c-1.7,-3.29 -1.81,-5.24 -0.68,-12.3 0.74,-4.62 1.26,-17.2 1.17,-27.95 -0.28,-32.59 6.26,-40.6 29.8,-36.5 35.64,6.21 28.03,54.48 -10.51,66.64 -8.39,2.65 -9.01,3.09 -9.01,6.44 0,8.67 -6.98,11.04 -10.78,3.68l0 0zm21.51 -21.48c25.29,-9.37 29.5,-41.15 6.03,-45.52 -16.24,-3.02 -19.97,3.12 -18.64,30.63 1.04,21.42 -0.41,19.72 12.61,14.89l0 -0zm1299.26 -14.58c-3.2,-1.29 -0.73,-17.37 6.04,-39.35 6.46,-20.96 3.64,-21.71 -45.47,-12.13 -59.31,11.57 -59.35,11.55 -39.07,-29.54 26.25,-53.2 23.45,-57.85 -25.28,-41.93 -43.18,14.11 -55.12,13.91 -58.74,-1 -4.75,-19.55 22.22,-88.65 31.57,-80.89 2.84,2.36 2.58,3.39 -5.13,19.74 -30.36,64.4 -23.15,75.13 35.48,52.83 54.89,-20.87 68.22,5.78 29.04,58.08 -16.04,21.41 -13.09,23.86 19.65,16.39 33.37,-7.63 38.75,-8.55 50.54,-8.7 19.39,-0.26 22.09,4.69 16.11,29.49 -1.43,5.9 -3.7,16.07 -5.05,22.6 -3,14.48 -4.39,16.56 -9.69,14.42l0 -0zm-975.15 -9.2c-33.74,-8.04 -15.63,-57.07 28,-75.78 14.68,-6.29 57.64,-12.31 65.72,-9.2 5.9,2.26 0.37,10.49 -7.06,10.49 -14.21,0 -25.14,11.52 -36.8,38.8 -14.21,33.26 -18.12,36.94 -38.95,36.72 -3.81,-0.04 -8.73,-0.5 -10.93,-1.02l0 0zm20.33 -10.11c6.68,-1.55 9.48,-5.28 16.54,-22.11 7.75,-18.46 13.27,-29.23 18.04,-35.2 5.07,-6.35 4.72,-6.52 -6.95,-3.32 -37.94,10.41 -64.62,40.4 -51.48,57.88 2.34,3.11 15.66,4.65 23.85,2.76l0 0zm448.77 0.97c-2.31,-2.31 -1.82,-5.5 1.46,-9.43 1.64,-1.96 3.94,-5.45 5.12,-7.74 2.8,-5.46 8.7,-5.46 9.33,-0.01 1,8.62 -11.25,21.84 -15.91,17.18l0 -0zm114.81 -7.57c-0.83,-0.83 -1.52,-2.47 -1.52,-3.63 0,-1.16 -0.88,-2.85 -1.96,-3.74 -3.19,-2.65 -1.82,-8.07 2.15,-8.54 2.57,-0.3 4.11,0.61 6.63,3.91 4.85,6.37 3.92,13.51 -1.78,13.51 -1.11,0 -2.7,-0.68 -3.53,-1.51l0 0zm-760.78 -13.88c-2.59,-2.59 -1.71,-4.83 4.08,-10.46 13.8,-13.41 7.28,-23.8 -25.66,-40.91 -35.34,-18.36 -36.84,-23.04 -13.15,-40.93 20.06,-15.13 16.64,-16.93 -34.92,-18.37 -35.77,-1 -39.11,-2.26 -39.11,-14.73 0,-16.06 26.5,-43.42 42.04,-43.42 7.64,0 7.7,7.47 0.07,9.39 -12.63,3.17 -34.48,26.75 -32.35,34.9 0.81,3.1 1.47,3.2 29.76,4.91 62.13,3.73 71.62,9.7 44.61,28.04 -20.6,13.99 -20.04,19.48 3.13,30.34 43.04,20.17 53.91,39.8 32.28,58.31 -5.45,4.67 -8.28,5.43 -10.79,2.92l0.01 0.01zm698.98 -21.39c-66.59,-5.94 -94.3,-55.41 -64.62,-115.33 25.2,-50.88 78.4,-72.61 104.62,-42.74 6.52,7.43 -0.5,13.65 -7.27,6.44 -29.81,-31.74 -94.65,18.22 -99.41,76.59 -5.87,72.18 118.18,92.48 151.37,24.76 24.85,-50.69 -15.68,-79.94 -67.31,-48.57 -28.96,17.59 -28.33,53.09 1,57.02 18.35,2.46 31.88,-24.67 13.9,-27.89 -8.45,-1.51 -7.54,-9.58 1.06,-9.58 20.02,0 24.19,26.35 6.67,42.18 -18.7,16.89 -53.61,-6.9 -53.52,-36.48 0.15,-46.02 92.39,-66.43 111.3,-24.63 22.38,49.48 -32.01,104.1 -97.81,98.22l0.01 0.01zm157.06 -18c-9.15,-3.32 -14.96,-8.06 -14.53,-11.84 0.53,-4.61 4.56,-5.02 10.77,-1.1 2.69,1.69 7.7,3.88 11.13,4.85 5.69,1.61 6.25,2.1 6.25,5.51 0,4.5 -5.48,5.54 -13.62,2.58l0 0zm804.42 -18.71c-0.54,-0.87 -3.11,-5.98 -5.7,-11.35 -2.6,-5.38 -5.05,-9.78 -5.44,-9.78 -0.39,0 -4.65,1.99 -9.48,4.42 -9.88,4.98 -14.59,5.6 -15.71,2.07 -1.31,-4.13 0.45,-5.92 10.71,-10.93 12.01,-5.85 11.8,-3.76 2.38,-24.63 -9.49,-21.04 -8.32,-19.98 -17.53,-15.84 -8.05,3.61 -11.97,3.5 -12.98,-0.37 -1,-3.84 1.18,-5.98 9.13,-8.96 4.18,-1.56 7.6,-3.29 7.6,-3.84 0,-1.64 -4.17,-10.87 -13.22,-29.3 -7.01,-14.28 -8.25,-17.69 -6.96,-19.24 4.59,-5.54 8.38,-1.02 22.45,26.81 4.65,9.19 8.97,16.71 9.61,16.72 1.13,0 45.15,-17.49 45.9,-18.25 0.2,-0.21 -2.24,-6.19 -5.43,-13.3 -6.69,-14.74 -6.94,-18.28 -1.39,-18.28 3.3,0 13.79,15.81 17.51,26.38 0.22,0.63 3.88,-0.03 8.13,-1.47 8.48,-2.86 12.4,-1.87 11.51,2.93 -0.37,2.02 -7.36,6.63 -12.8,8.45 -0.72,0.24 1.53,7.12 5.08,15.5 3.5,8.29 7.71,18.66 9.35,23.04 2.91,7.79 3.06,7.95 6.76,7.11 6.5,-1.48 8.45,-1.28 9.92,1 1.97,3.07 -0.26,6.25 -5.3,7.56 -4.3,1.11 -4.76,2.22 -2.63,6.21 0.75,1.41 1.02,3.96 0.59,5.67 -1.26,5.02 -7.02,3.62 -9.85,-2.4 -2.65,-5.65 -2.77,-5.66 -19.86,-1.54 -19.02,4.59 -34.06,9.68 -34.06,11.54 0,2.94 5.53,13.02 7.15,13.02 2.85,0 4.28,4.45 2.8,8.71 -1.44,4.14 -6.28,5.51 -8.25,2.33l0.02 0zm7.52 -39.26c7.07,-2.33 17.78,-5.25 23.8,-6.48 6.01,-1.23 11.57,-2.63 12.35,-3.11 1.1,-0.68 -15.7,-41.18 -18.22,-43.93 -0.37,-0.4 -31.31,11.67 -41.43,16.17 -3.42,1.52 -5.84,3.35 -5.51,4.18 0.32,0.81 3.54,9.14 7.17,18.51 6.95,17.97 7.37,18.93 8.36,18.93 0.34,0 6.41,-1.91 13.49,-4.24l0 0zm-1492.67 13.29c-14.95,-5.33 -21.49,-21.75 -12.97,-32.57 25.21,-32.05 145.17,-15.12 145.17,20.48 0,10.78 -4.07,13.78 -11.6,8.56 -6.97,-4.83 -18.12,-4.65 -51.48,0.85 -31.86,5.24 -59,6.3 -69.12,2.69l0 0zm47.67 -10.48c37.33,-5.44 46.44,-6.35 58.98,-5.9 14.98,0.54 15.17,0.36 6.13,-5.87 -33.72,-23.23 -118.1,-22.42 -118.1,1.14 0,14.52 11.07,16.74 52.99,10.63l0 0zm1759 8.76c-0.83,-0.83 -1.51,-3.03 -1.51,-4.89 0,-3.57 -5.93,-13.11 -21.88,-35.24 -32.67,-45.3 -31.69,-65.13 3.3,-66.61 32.64,-1.39 39,13.21 31.13,71.46 -1.5,11.13 -2.34,22.24 -1.92,25.46 1.13,8.65 -4.36,14.56 -9.11,9.81l0 0zm2.86 -52.77c3.78,-38.86 0,-46.02 -24.98,-46.02 -21.05,0 -18.17,14.59 12.09,61.33l9.1 14.05 0.85 -4.26c0.46,-2.34 1.79,-13.64 2.93,-25.11l0 0zm75.93 47.1c-0.43,-0.43 -2.86,-1.12 -5.39,-1.54 -9.44,-1.54 -7.6,-9.37 4.08,-17.3 2.95,-2 6.31,-5.63 7.47,-8.06 19.19,-40.11 45.73,-53.33 61.39,-30.58 12.53,18.22 4.73,26.95 -33.03,36.98 -10.76,2.85 -20.5,5.48 -21.66,5.82 -1.16,0.35 -3.3,3.4 -4.75,6.78 -2.5,5.82 -6.39,9.59 -8.11,7.87l0 0zm52.18 -35.07c11.53,-3.59 13.19,-10.5 4.58,-19.11 -6.15,-6.15 -8.74,-6.66 -15.76,-3.08 -6.19,3.15 -22.96,24.22 -22.96,28.83 0,0.98 25.65,-4.03 34.07,-6.65l0.07 0z"/>
 </g>
</svg>
