<?xml version="1.0" encoding="UTF-8"?>
<!DOCTYPE svg PUBLIC "-//W3C//DTD SVG 1.1//EN" "http://www.w3.org/Graphics/SVG/1.1/DTD/svg11.dtd">
<!-- Creator: CorelDRAW 2020 (64-Bit) -->
<svg xmlns="http://www.w3.org/2000/svg" xml:space="preserve" width="3.178in" height="2.326in" version="1.1" style="shape-rendering:geometricPrecision; text-rendering:geometricPrecision; image-rendering:optimizeQuality; fill-rule:evenodd; clip-rule:evenodd"
viewBox="0 0 3178 2326"
 xmlns:xlink="http://www.w3.org/1999/xlink"
 xmlns:xodm="http://www.corel.com/coreldraw/odm/2003">
 <defs>
  <style type="text/css">
   <![CDATA[
    .fil0 {fill:#2A8000}
    .fil1 {fill:#2A8000}
   ]]>
  </style>
 </defs>
 <g id="Layer_x0020_1">
  <metadata id="CorelCorpID_0Corel-Layer"/>
  <rect class="fil0" x="-1" y="904.08" width="700.07" height="75.95" rx="3962.68" ry="1981.34"/>
  <rect class="fil0" x="197.47" y="1103.04" width="582.69" height="75.95" rx="3298.25" ry="1981.34"/>
  <rect class="fil0" x="396.43" y="1304.47" width="463.77" height="75.95" rx="2625.09" ry="1981.34"/>
  <path class="fil1" d="M1425.07 590.49l-85.45 -101.07c-19.13,-27.6 -30.46,-40.31 -30.46,-73.89l0 -41.67c0,-56.07 22.08,-78.38 105.72,-78.38l1383.87 0c50.73,0 62.5,18.75 81.25,52.08 18.75,33.33 181.25,558.33 181.25,558.33 14.65,54.66 29.29,109.31 43.94,163.97 17.63,65.81 -32.17,121.51 -82.12,127.71l-880.96 91.48c-138.82,14.41 -192.85,-20.3 -271.52,-115.32l-311.43 -376.18c27.56,-26.43 50.21,-52.3 77.21,-79.3 30,-30 28.65,-74.25 -15.98,-78.23l-102.44 -8.75c-61.69,-5.28 -61.96,-4.2 -92.89,-40.78zm-152.85 1425.42c56.15,0 101.67,45.89 101.67,102.5 0,56.61 -45.52,102.5 -101.67,102.5 -56.15,0 -101.67,-45.89 -101.67,-102.5 0,-56.61 45.52,-102.5 101.67,-102.5zm1475.53 -2.61c56.15,0 101.67,45.89 101.67,102.5 0,56.61 -45.52,102.5 -101.67,102.5 -56.15,0 -101.67,-45.89 -101.67,-102.5 0,-56.61 45.52,-102.5 101.67,-102.5zm-1454.32 -1452.96l94.63 131.31 158.5 15.44 -100.91 107.67 46.21 139.69 -146.72 -58.87 -128.3 74.71 2.43 -147.65 -128.15 -99.68 157.04 -26.43 45.28 -136.19zm-650.65 -324.22c98.59,327.64 452.1,983.91 511.85,1323.65 5.97,33.96 -29.91,61.87 -40.51,96.69 -3.81,12.52 -14.09,24.11 -22.44,46.42 -6.62,17.69 -10.47,39.26 -16.87,54.89 -16.83,41.09 -9.51,81.48 13.49,111.33 34.13,44.32 63.97,18.48 99.48,41.89 1.5,28.19 -21.46,25.22 -38.8,38.85 -58.73,46.17 -82.2,96.42 -82.22,179.2 -0.04,93.5 53.49,138.59 112.19,176.81 28.13,18.32 80.33,23.37 121.22,17.17 53.9,-8.17 64.31,-18.78 101.2,-44.9 49.33,-34.91 91.22,-123.74 70.83,-207.8 -31.01,-127.88 -142.48,-134.81 -123.35,-160.29l1318.57 -0.22c1.21,28.75 -23.06,29.13 -41.38,41.19 -47.53,31.28 -82.96,94.3 -83.01,160.37l-0.01 17.67c-0.09,102.84 98.11,200.4 205.68,197.21 76.03,-2.25 100.88,-21.47 143.88,-58.1 41.46,-35.32 63.96,-89.25 63.96,-154.25 0,-146.02 -132.34,-177.1 -130.78,-205.48 27.54,-15.76 56.33,0.76 92.41,-26.18 23.02,-17.19 38.48,-42.61 38.37,-81.21 -0.3,-120.86 -138.33,-103.21 -240.68,-103.22l-1368.08 -4.52c-12.21,-17.14 22.91,-66.48 24.66,-99.44 2.82,-53.33 -20.14,-65.81 -14.13,-115.99 773.41,-114.24 1484.23,-185.2 1689.94,-203.02 42.29,-3.66 73.98,-10.27 95.85,-39.6 38.57,-51.72 32.04,-106.72 32.04,-170.98l-217.95 -721.63c-44.57,-126.21 -116.04,-125.87 -212.3,-125.93l-1887.65 -2c-11.19,-20.44 -22.67,-96.26 -27.02,-110.28 -2.71,-8.73 -10.22,-19.6 -14.93,-32.73 -29.69,-82.63 -109.48,-70.66 -189.87,-70.83l-292.69 0.1c-194.26,0.06 -168.55,211.75 -27.76,211.75l290.17 -0.01c30.89,0 38.76,-2.68 46.62,23.42z"/>
  <polygon class="fil1" points="2126.91,792.41 2227.82,684.74 2069.33,669.3 1974.7,537.99 1929.42,674.17 1772.38,700.61 1900.54,800.29 1898.11,947.93 2026.41,873.23 2173.12,932.09 "/>
  <polygon class="fil1" points="2417.83,678.12 2545.98,777.8 2543.55,925.44 2671.85,850.74 2818.56,909.61 2772.35,769.91 2873.27,662.25 2714.77,646.81 2620.15,515.5 2574.86,651.69 "/>
 </g>
</svg>
