<?xml version="1.0" encoding="UTF-8"?>
<!DOCTYPE svg PUBLIC "-//W3C//DTD SVG 1.1//EN" "http://www.w3.org/Graphics/SVG/1.1/DTD/svg11.dtd">
<!-- Creator: CorelDRAW 2020 (64-Bit) -->
<svg xmlns="http://www.w3.org/2000/svg" xml:space="preserve" width="4.417in" height="4.417in" version="1.1" style="shape-rendering:geometricPrecision; text-rendering:geometricPrecision; image-rendering:optimizeQuality; fill-rule:evenodd; clip-rule:evenodd"
viewBox="0 0 4417 4417"
 xmlns:xlink="http://www.w3.org/1999/xlink"
 xmlns:xodm="http://www.corel.com/coreldraw/odm/2003">
 <defs>
  <style type="text/css">
   <![CDATA[
    .fil0 {fill:#FEFEFE}
    .fil1 {fill:#373435}
   ]]>
  </style>
 </defs>
 <g id="Layer_x0020_1">
  <metadata id="CorelCorpID_0Corel-Layer"/>
  <g>
   <path class="fil0" d="M3277.34 3161.76c-144.85,199.74 -360.63,457.51 -559.81,619.71 -169.09,145.26 -588.7,379.31 -906.91,396.45 -333.8,7.49 -699.56,19.46 -920.91,-286.44 -292.18,-423.72 -259.18,-745.37 -186.8,-1197.05 56.94,-355.26 264.5,-867.76 415.82,-1204.15 31.85,-61.77 38.26,-149.08 90.81,-185.98 43.77,-30.71 86.24,-17.43 114.86,29.17 25.63,41.71 14.7,68.1 -2.85,106.78 -74.04,163.13 -272.5,740.6 -286.93,815.25 -26.2,162.3 -27.02,275.95 -23.48,438.92 3.67,168.4 75.67,331.91 172.79,466.24 124.44,137.42 291.82,238.33 482.61,242.9 378.4,11.27 726.03,-44.97 929.82,-192.72 257.43,-151.11 392.07,-246.05 610.05,-466.59 8.52,-6.27 75.14,-81.04 89.84,-96.97 102.09,-104.6 214.46,-383 236.13,-526.47 50.13,-291.25 33.6,-479.16 30.34,-769.55 -1.23,-110.04 -4.28,-241.47 25.7,-348.18 56.73,-202.13 175.93,-544.37 286.93,-706.51 37.09,-37.05 83.41,21.29 90.86,65.27 4.61,27.21 -3.19,135.88 -10.27,161.83 -33.22,121.76 -18.35,316.24 -18.21,444.25 0.17,155.35 -2.59,311.83 -14.52,463.35 -0.05,0.61 -27.07,140.81 -28.65,144.48 -7.93,18.46 -8.8,1.26 -15.79,25.84 -21.95,77.19 -31.58,135.09 -45.02,214.52 -61.18,361.11 -124.59,524 -262.78,861.99 -17.19,66.01 -222.68,400.49 -293.63,483.65zm-593.91 -1620.6c48.05,231.02 -233.3,690.57 -429.29,615.65 -25.95,-9.92 -47.88,-20.69 -60.83,-42.01 -17.08,-28.11 -25.1,-98.46 -87.64,-118.76 -20.68,-6.71 -124.37,-65.11 -132.74,-74.32 -17.92,-19.7 -21.81,-53.61 -7.28,-78.13 10.23,-17.25 355.32,-645.47 435.84,-594.07 60.12,38.37 134.52,77.7 188.13,122.59 39.81,33.33 83.07,117.44 93.81,169.05z"/>
   <path id="1" class="fil1" d="M3388.44 3244.8c-80.32,110.63 -183.44,240.28 -295.67,364.52 -92.73,102.65 -190.54,199.96 -285.2,277.37l0.02 0.03c-103.51,88.93 -291.29,207.55 -495.13,296.66 -162,70.81 -337.19,124.4 -494.79,132.89l-4.34 0 -11.84 0.27c-365.35,8.24 -762.95,17.21 -1024.09,-343.67l-1.63 -2.71c-160.89,-233.31 -232.45,-440.56 -253.98,-653.14 -20.84,-205.81 6.6,-408.43 44.39,-644.28 25.73,-160.57 80.03,-349.77 146,-540.83 87.2,-252.51 193.2,-505.34 280.13,-698.58l3.25 -6.51c6.25,-12.13 12.4,-31.09 18.51,-49.93 22.09,-68.13 43.98,-135.6 115.7,-185.96l0.54 0c6.18,-4.33 10.52,-7.26 12.93,-8.74 53.23,-32.69 109.02,-40.57 163.52,-26.44 50.47,13.08 93.53,44.09 126.17,90.61l0 0.54 9.72 13.89 0 0.54c30.67,49.93 39.1,94.41 34.3,140.79 -3.99,38.65 -15.24,64.75 -29.01,95.11 -32.92,72.53 -91.38,230.04 -146.37,386.29 -64.72,183.9 -124.04,363.09 -130.79,398.04l-0.15 -0.03c-11.72,73.56 -17.82,136.37 -20.57,199.16 -2.93,66.64 -2.28,132.98 -0.59,211.03 1.37,62.62 15.44,126.23 38.43,188.25 25.64,69.18 61.99,134.79 104.13,194.01 52.89,57.16 114.59,106.18 182.9,140.56 60.57,30.48 126.14,49.05 194.86,50.69l0.54 0c186.59,5.56 364.39,-6.02 518.12,-37.88 132.38,-27.44 245,-69.7 326.52,-128.81l11.39 -7.05c122.85,-72.1 216.61,-130.97 306.26,-198.57 88.19,-66.5 171.74,-141.25 275.04,-245.77l16.81 -14.65c3.85,-2.83 29.36,-33.94 50.65,-57.51 20.19,-22.34 0.6,-1.48 19.12,-21.56l2.71 -2.71c35.98,-36.87 76.78,-109.37 112.73,-189.53 42.56,-94.9 75.52,-195.5 85.41,-260.99l0.54 -2.71c39.02,-226.71 35.62,-389.13 31.35,-593.13 -0.98,-46.6 -2,-95.36 -2.63,-152l-0.17 -14.65 -0.01 0c-1.37,-116.4 -2.98,-251.96 30.76,-372.05 33.41,-119.03 87.42,-284.24 148.58,-434.81 48.65,-119.8 102.92,-232.89 157.34,-312.38l16.82 -20.07c28.24,-28.22 60.67,-44 95.28,-49.85 35.11,-5.95 68.61,-0.54 99.62,13.33 22.89,10.24 43.3,24.92 60.71,42.36 34.84,34.88 61.76,88.3 69.64,134.85 4.03,23.8 3.75,67.65 1.13,108.99 -2.68,42.15 -8.38,88.98 -14.65,111.98 -20.52,75.22 -17.47,203.37 -14.9,311.54 0.79,33.19 1.54,64.67 1.57,96.36 0.09,79.85 -0.56,159.32 -2.72,236.91 -2.35,84.28 -6.06,164.31 -11.8,237.3 -0.11,1.36 -13.03,72.47 -22.13,118.35 -6.05,30.52 -12.39,57.87 -17.37,69.53l0 0.54c-5.07,11.8 -10.29,21.67 -15.6,30.04 -15.96,59.98 -24.35,109.54 -35.28,174.16l-0.7 4.16c-31.54,186.16 -64.2,322.93 -107.39,458.65 -41.6,130.71 -92.29,257.01 -161.4,426.1 -17.11,50.27 -72.51,151.81 -133.89,252.9 -64.28,105.89 -137.53,216.96 -179.34,268.22zm-2204.53 -84.13c124.44,137.42 291.82,238.33 482.61,242.9 378.4,11.27 726.03,-44.97 929.82,-192.72 257.43,-151.11 392.07,-246.05 610.05,-466.59 8.52,-6.27 75.14,-81.04 89.84,-96.97 102.09,-104.6 214.46,-383 236.13,-526.47 50.13,-291.25 33.6,-479.16 30.34,-769.55 -1.23,-110.04 -4.28,-241.47 25.7,-348.18 56.73,-202.13 175.93,-544.37 286.93,-706.51 37.09,-37.05 83.41,21.29 90.86,65.27 4.61,27.21 -3.19,135.88 -10.27,161.83 -33.22,121.76 -18.35,316.24 -18.21,444.25 0.17,155.35 -2.59,311.83 -14.52,463.35 -0.05,0.61 -27.07,140.81 -28.65,144.48 -7.93,18.46 -8.8,1.26 -15.79,25.84 -21.95,77.19 -31.58,135.09 -45.02,214.52 -61.18,361.11 -124.59,524 -262.78,861.99 -17.19,66.01 -222.68,400.49 -293.63,483.65 -144.85,199.74 -360.63,457.51 -559.81,619.71 -169.09,145.26 -588.7,379.31 -906.91,396.45 -333.8,7.49 -699.56,19.46 -920.91,-286.44 -292.18,-423.72 -259.18,-745.37 -186.8,-1197.05 56.94,-355.26 264.5,-867.76 415.82,-1204.15 31.85,-61.77 38.26,-149.08 90.81,-185.98 43.77,-30.71 86.24,-17.43 114.86,29.17 25.63,41.71 14.7,68.1 -2.85,106.78 -74.04,163.13 -272.5,740.6 -286.93,815.25 -26.2,162.3 -27.02,275.95 -23.48,438.92 3.67,168.4 75.67,331.91 172.79,466.24zm1499.51 -1619.5c48.05,231.02 -233.3,690.57 -429.29,615.65 -25.95,-9.92 -47.88,-20.69 -60.83,-42.01 -17.08,-28.11 -25.1,-98.46 -87.64,-118.76 -20.68,-6.71 -124.37,-65.11 -132.74,-74.32 -17.92,-19.7 -21.81,-53.61 -7.28,-78.13 10.23,-17.25 355.32,-645.47 435.84,-594.07 60.12,38.37 134.52,77.7 188.13,122.59 39.81,33.33 83.07,117.44 93.81,169.05zm135.63 -28.21c20.4,98.08 1.32,217.34 -42.3,331.46 -38.08,99.62 -95.83,199.23 -161.87,277.91 -75.12,89.51 -165.01,155.78 -257.98,175.11 -51.42,10.7 -102.6,7.98 -152.14,-10.96 -19.48,-7.44 -38.8,-16.07 -60.25,-29.75 -27.19,-17.34 -50.77,-39.5 -69.49,-70.31 -11.65,-19.17 -17.34,-34.14 -23.73,-50.95 -0.98,-2.59 4.99,-3.26 10,-3.77l5.7 -2.15c-0.74,-0.44 -2.08,-0.98 -4.2,-1.67l0.05 -0.16c-20.17,-6.66 -59.71,-26.61 -94.34,-45.99 -40.46,-22.65 -83.9,-51.06 -98.13,-66.69 -29.42,-32.35 -47.07,-75.01 -51.12,-118.56 -3.87,-41.61 4.59,-85.59 27.02,-123.41 1.33,-2.24 1,-1.9 4.55,-8.22 22.04,-39.26 98.71,-175.79 188.85,-316.99 135.3,-211.95 302.63,-400.19 436.12,-314.97 12.18,7.77 32.48,19.97 53.16,32.39 51.26,30.79 104.66,62.87 149.62,100.51 32.39,27.12 63.33,68.95 87.57,112.64 24.65,44.41 44.63,94.78 52.9,134.53zm-757.75 618.75c4.37,-0.44 8.01,-0.77 5.7,-2.15l-5.7 2.15z"/>
  </g>
 </g>
</svg>
