<?xml version="1.0" encoding="UTF-8"?>
<!DOCTYPE svg PUBLIC "-//W3C//DTD SVG 1.1//EN" "http://www.w3.org/Graphics/SVG/1.1/DTD/svg11.dtd">
<!-- Creator: CorelDRAW 2020 (64-Bit) -->
<svg xmlns="http://www.w3.org/2000/svg" xml:space="preserve" width="3.442in" height="3.986in" version="1.1" style="shape-rendering:geometricPrecision; text-rendering:geometricPrecision; image-rendering:optimizeQuality; fill-rule:evenodd; clip-rule:evenodd"
viewBox="0 0 3442 3986"
 xmlns:xlink="http://www.w3.org/1999/xlink"
 xmlns:xodm="http://www.corel.com/coreldraw/odm/2003">
 <defs>
  <style type="text/css">
   <![CDATA[
    .fil0 {fill:url(#id1); filter:url(#id0);}
   ]]>
  </style>
  <filter id="id0" x="0" y="0" width="200%" height="200%">
    <feOffset result="offOut" in="SourceAlpha" dx="50" dy="20" />
    <feGaussianBlur result="blurOut" in="offOut" stdDeviation="25" />
    <feBlend in="SourceGraphic" in2="blurOut" mode="normal" />
  </filter>
  <linearGradient id="id1" gradientUnits="userSpaceOnUse" x1="3112.65" y1="3198.48" x2="324.47" y2="794.18">
   <stop offset="0" style="stop-opacity:1; stop-color:#D89402"/>
   <stop offset="1" style="stop-opacity:1; stop-color:#FFE08A"/>
  </linearGradient>
 </defs>
 <g id="Layer_x0020_1">
  <metadata id="CorelCorpID_0Corel-Layer"/>
  <g id="Layer_x0020_1_0">
   <path class="fil0" d="M2619.83 2872.88c-115.91,-8.2 -261.51,-61.68 -352.74,39.47 -17.49,19.39 -36.62,33.56 -54.33,54.67 -15.13,18.03 -35.53,41.92 -51.78,58.91 -31.42,32.85 -92.26,60.88 -132.76,87.07 -58.82,38.04 -227.67,50.67 -241.24,-24.67 -5.67,-31.5 -73.28,-23.61 -79.48,-28.33 6.99,-37.79 140.91,-32.44 177.5,-13.36 20.13,10.5 4.84,41.13 52.99,58.99 26.71,9.91 65.85,-0.56 88.44,-15.94 39.67,-27.01 72.2,-76.61 111.11,-113 42.17,-39.44 73.92,-71.3 126.13,-98.3 24.06,-12.44 72.98,-22.61 83.27,-28.75 29.33,-17.48 52.65,-20.54 81.83,-30.52 52.74,-18.06 145.95,-2.12 201.92,5.82 220.39,31.28 491.76,77.78 711.2,85.52 21.64,0.76 83.2,-17.71 98.11,4.38 -1.8,14.8 -72.68,34.13 -87.81,36.27 -200.09,28.25 -520.99,-63.28 -732.37,-78.23zm-589.47 -1119.67c29.35,30.66 -63.22,37.2 -85.99,6.83 -102.94,-14.5 -262.47,-32.17 -350.86,-60.35 -207.86,-66.28 -407.34,-173.79 -553.07,-338.56 -23.46,-26.53 -65.17,-76.83 -83.63,-107.15 -14.5,-23.81 -9.64,-39.61 -13.2,-45.76 -16.29,-10.75 -99.33,9.19 -127.71,9.56 -69.78,0.91 -58.68,-58.89 -16.85,-48.23 50.74,12.93 67.02,23.52 121.86,7.22 31.89,-9.48 89.08,-27.46 110.01,7.31 32.15,65.51 26.73,63.24 121.04,165.39 25.14,29.05 117.99,109.67 153.5,131.64 146.59,90.7 200.19,132.98 378.51,189.79 72.51,23.1 162.2,40.95 237.85,49.13 24.76,2.68 91.36,15.23 108.53,33.17l0.01 0zm-460.96 -1015.01c-21.33,-19.2 -70.74,-85.91 -89.38,-115.09 -15.18,-23.77 -27.97,-7.25 -41.19,-25.43 -19.25,-26.48 11.98,-64.95 -55,-81.46 -40.54,-10 -82.17,0.95 -123.88,1.05 -49,0.12 -77.99,0.7 -126.42,-6.55 -15.97,-2.39 -111.91,-22.81 -114.08,-22.85l-9.28 -5.99 -6.22 7.65c-33.26,13.79 60.5,82.38 68.13,87.08 72.78,44.85 165.89,78.41 254.51,85.66 33.79,2.76 38.32,-0.7 75.55,7.3 18.11,3.89 15.19,3.26 30.38,12.2 13.33,7.85 20.94,-1.18 31.88,3.7 21.62,22.61 -11.78,50.98 -44.41,51.5 -57.74,0.94 -14.07,-30.44 -61.62,-44.22 -90.29,-26.17 -129.52,37.79 -342.64,-81.49 -19.85,-11.11 -45.09,-34.5 -56.59,-50.53 -8.65,-12.07 -16.43,-18.96 -17.89,-36 -3.02,-35.16 2.49,-21.41 11.95,-40.7 -6.79,-15.23 -58.09,-37.26 -67.33,1.67 -6.97,29.39 4.21,55.21 18.2,79.76 70.71,124.06 223.77,159.98 355.35,168.44 72.13,4.64 68.08,-10.99 87.39,-10.93 7.79,36.85 -117.61,26.64 -142.69,25.06 -46.31,-2.93 -108.63,-12.13 -151.3,-27.86 -32.95,-12.15 -94.82,-43.04 -119.28,-61.06 -44.35,-32.68 -102.73,-85.14 -102.47,-144.84 0.18,-40.06 43.3,-81.27 83.11,-73.14 23.25,4.74 11.89,-4.67 23.22,-6.24l82.06 52.97 -4.03 -17.72c0.29,-0.13 111.55,13.1 126.3,13.82 95.86,4.67 190.03,-13.13 276.94,-3.24 16.8,1.91 40.62,4.92 58.28,13.77 36.11,18.09 40.72,3.35 55.9,9.27 10,11.7 4.84,67.12 35.53,80.39 0,0 2.69,7.07 2.69,7.07 7.82,103.92 324.13,319.34 437.89,372.15 110.44,51.27 228.8,80.09 347.96,100.24l0.64 -3.56c2.29,-2.17 -44.33,-36.26 -21.15,-67.94 10.69,-14.61 74.28,-14.59 93.3,-14.77 134.57,-1.31 63.89,113.14 24.76,54.24 -0.39,-1.83 3.4,-12.72 2.39,-22.26l-50.07 -7.29 -0.77 5.28c-21.76,84.63 111.41,73.32 97.15,104.7 -9.68,5.34 -35.68,-8.08 -47.86,-11.99 -27.48,-8.8 -128.07,-7.17 -165.67,-12.86 -388,-58.81 -476.72,-129.85 -720.23,-348.97l-0.02 0.02zm25.8 -350.25c-16.11,-6.01 -100.85,15.2 -150.49,-2.62 -28.2,-10.12 -92.67,-40.52 -90.01,-77.65 -22.7,-11.12 -12.96,-7.6 -44.93,-4.78 -12.3,1.09 -38.61,-3.08 -50.61,-6.69 -24.88,-7.47 -57.05,-21.04 -67.94,-47.54 -11.11,-27.04 -10.17,-16.41 -22.1,-36.04 -16.35,-26.93 2.42,-7.43 -23.96,-33.5 -23.71,-23.43 -43.12,-37.93 -35.15,-77.33l36.92 -16.43c-1.51,-20.67 -88.09,-48.12 -109.94,-50.35 -34.27,-3.5 -102.38,11.65 -134.96,24.29 -75.54,29.29 -135.4,75.2 -200.37,118.02 -36.51,24.07 -339.2,289.33 -348.65,286.3 -4.89,-23.83 244.73,-226.97 278.65,-257.88 85.21,-77.64 228.35,-171.26 342.5,-193.87 41.35,-8.19 80.82,-13.71 123.45,-9.98 30.43,2.67 92.18,25.54 108.99,23.46 56.89,-7.04 56.09,-31.09 84.3,29.09 25.21,53.8 -10.67,60.69 -53.02,65.94 -44.78,5.56 -81.29,-40.74 -101.2,-13.73 -16.19,21.97 43.89,60.7 61.62,66.26 48.85,15.32 66.98,0.38 102.56,-25.29 15.3,-11.04 76.18,-49.38 88.36,-22.76 -1.98,8.33 -79.56,60.5 -84.16,63.23 -10.35,6.17 -44.54,15.5 -58.91,16.07 -10.18,0.41 -26.75,2.18 -35.21,0.92 -8.38,-1.24 -23.62,-9.18 -28.23,-4.2 -3.09,28.59 127.91,83.37 156.88,71.77 11.58,-29.52 1.04,-30.29 25.36,-62.74 22.66,-30.24 94.52,-77.94 134.06,-96.94 59.13,-28.42 132.3,-41.35 149.2,-17.03 49.15,70.79 -219.96,183.09 -243.19,194.02 -12.81,46.68 87.26,65.2 118.63,65.61 23.04,0.3 59.96,-14.04 79.02,-11.06 72.17,11.26 26.71,7.63 57.8,34.34l61.12 -7.41 0.57 4.68c3.38,19.79 -30.67,41.73 -53.66,44.45 -63.5,7.5 -66.11,-28.32 -73.26,-32.64l-0.01 -0zm284.18 -117.56c-11.68,21.06 -54.06,21.39 -75.86,20.89 -7.17,-0.17 -23.12,7.22 -18.29,-27.3 2.64,-18.85 -10.74,-23.76 -6.61,-39.05 2.64,-9.77 8.48,-5.52 17.49,-7.27l61 -13.58c25.23,-8.13 30.01,52.35 22.26,66.32l0 -0zm-405.72 2745.8c-10.34,4.48 -22.34,5.63 -33.4,6.27 -56.73,3.29 -36.3,-16.84 -49.29,-54.36 -8.56,-24.73 2.53,-23.48 44.74,-26.94 12.14,-1 31.72,-11.5 45.73,-6.05 12.43,17.13 13.19,77.54 -7.78,81.08l0 0zm211.74 -1991.7c-20.11,17.33 -50.76,2.76 -80.19,10.99 -11.27,-12.72 -3.8,-25.67 -7.17,-40.73 -1.24,-5.54 -4.63,-11.58 -6.03,-18.14 -2.47,-11.59 -0.3,-8.77 4.31,-15.5 26.2,-0.3 54.86,-6.17 78.89,-6.52 18.83,-0.27 15.52,20.12 20.07,41.95 3.14,15.07 0.1,16.66 -3.41,19.25 -6.29,4.67 -1.85,4.7 -6.47,8.69l0 0zm525.39 295.26c-17.52,9.76 -51.99,2 -48.89,-24.82 4.8,-41.7 110.04,-46.28 115.79,-29.12 -10.43,12.22 -86.41,-5.68 -88.27,22.05 12.03,0.31 19.85,-8.4 29.85,5.07 6.56,8.83 0.34,21.91 -8.47,26.82l-0.01 0zm-517.64 1143.25c-25.97,19.59 -413.74,-221.59 -458.52,-252.24 -65.05,-44.55 -368.62,-266.52 -399.7,-310.83l-1.24 -1.83 -115.67 -119.95 0.51 -0.47 -76.17 -79.65 -1.13 -3.59c-0.23,0.05 -0.45,0.09 -0.67,0.15l-92.69 80.83 -5.19 -5.65 26.46 -23.52 62.82 -59.84 1.58 -1.62c-2.43,-15.33 -122,-161.58 -154.72,-275.44 -34.83,-121.2 -60.83,-228.93 16.95,-345.61 68.47,-102.71 189.82,-124.61 305.07,-122.28 45.12,1.88 332.58,65.2 333,97.44 4.78,1.85 5.17,12.6 23.41,14.02 8.88,0.69 21.46,-8.18 29.74,-3.61 13.17,22.09 -48.74,30.01 -60.79,31.95 -15.24,2.46 -29.33,3.78 -45.08,2.73 -14.21,-0.95 -25.5,-12.94 -36.41,-7.79 -10.32,24.15 49.94,38.38 66.74,39.23 48.06,2.44 72.52,-26.12 84.2,-24.33l3.54 -1.23 66.23 -26.22 1.52 4.29c9.18,12.21 -30.57,22.21 -41.25,27.37 -6.8,3.29 -34.26,25.25 -41.35,31.24 -34.76,29.38 -106.59,14.42 -121.34,20.98 10.51,21.26 92.64,37.94 116.64,38.27 56.94,0.76 75.41,-6.25 117.35,-36.02 27.94,-19.84 60.71,-43.25 95.77,-58.77 16.82,-7.45 101.6,-44 113.8,-35.31 3.74,14.75 -48.98,30.41 -63.18,39.02 -22.01,13.33 -41.56,24.13 -61.83,39.65 -51.5,39.44 -82.59,43.8 -142.59,61.85 -56.16,16.89 -113.27,7.14 -161.97,-24.5 -26.22,-17.03 -36.29,-23.27 -53,-48.83 -32.88,-50.29 7.29,-57.67 9.28,-68.99 -4.35,-9.46 -117.89,-43.21 -135.89,-49.55 -51.05,-17.94 -96.15,-29.98 -151.04,-31.35 -53.76,-1.34 -113.87,2.14 -153.29,24.41 -19.07,11.79 -39.12,22.7 -53.73,38.64 -38.64,42.15 -58.64,70.19 -71.62,128.36 -19.35,86.73 -1.56,173.53 29.92,256.29 21.3,55.99 36.05,81.67 66.52,135.14 12.48,21.9 66.15,106.86 80.58,118.71 56.19,-29.72 81.18,-39.04 124.78,-25.72 16.81,5.14 21.17,6.98 30.59,11.7l2.02 -17.61c3.8,-4.11 33.45,-17.18 38.36,-18.05 35.99,-6.38 91.7,59.02 57.83,85.39 -26.35,20.52 -60.44,16.83 -85.74,4.91 -12.32,-5.8 -25.12,-19.15 -36.32,-13.23 -20.33,10.74 -14.61,20 -18.72,34.26l4.87 13.17 -0.7 -0.21 95.18 106.07 23.26 9 1.61 -2.18 -21.5 -45.06c-10.44,-9.49 -0.39,-35.55 13.48,-45.11 10.3,-7.1 30.01,-14.77 43.02,-19.15 34.38,-11.58 69.39,-1.13 100.28,13.79 149.8,72.35 51.92,120.06 53.06,131.59 13.59,7.68 87.76,-9.39 89.53,-32.12l-27.06 -21.23 -34.41 -33.45 4 -3.26c14.85,-20.95 59.95,-31.67 86.09,-28.17 17.43,2.33 27.83,4.67 36.98,20.76 15.23,26.8 7.32,29.24 13.7,43.76 6.04,3.13 52.97,-7.59 68.05,-7.87 37.13,-0.69 31.62,9.87 53.44,24.23l49.05 -8.04 0.81 4.93c3.67,19.52 -48.44,31.95 -62.71,36.71 -51.65,17.21 -44.54,-6.87 -66.39,-21.01 -85.53,-3.62 -109.33,58.85 -193.89,58.48 -21.36,-0.09 -40.17,1.14 -61.14,-2.36 -13.03,-2.18 -41.52,-8.69 -52.52,-9.21 -20.07,-0.95 -40.66,-1.21 -60.15,-4.05 -9.89,-1.44 -47.64,-11.89 -48.72,-11.28 17.64,40.25 324.73,257.39 389.27,304.68 68.36,44.45 150.24,92.12 214.31,132.81 35.74,22.7 72.81,42.78 109.8,62.57 28.42,15.21 93.96,41.92 115.01,58.02l-0.01 -0.01zm-282.11 -320.07c-26.42,9.43 -39.85,12.35 -69.24,14.28 -19.67,1.3 -29.09,-11.96 -26.68,-30.65 -1.74,-7.82 -3.07,-11.22 -7.17,-31.38 -9.59,-3.23 -18.09,-27.32 2.28,-35.21 17.13,-6.63 27.31,-7.81 44.33,-12 9.73,-2.39 38.44,-8.85 47.74,-8.02 13.06,1.17 21.55,33.79 21.59,34.67 2.13,1.44 3.05,-2.11 1.68,4.29 4.69,7.08 2.44,51.44 2.41,51.59 -1.55,7.94 -9.45,9.74 -16.94,12.41l0 0zm538.94 799.43c-23.72,-0.77 6.47,-36.53 -71.48,-29.48 -8.89,0.8 -72.69,17.45 -61.36,33.63l40.5 7.99 3.19 8.18 -25.25 20.51 -0.65 -1.27c-5.65,4.89 -3.94,2.36 -14.78,4.84 -13.57,3.11 -35.12,1.2 -44.16,-11.2 -13.15,-18.04 4.36,-42.69 19.68,-51.39 17.29,-9.82 35.56,-18.35 56.72,-20.94 11.95,-1.46 23.12,-4.1 34.82,-4.52 34.76,-1.26 43.31,12.37 41.51,-20.88 -0.44,-8.01 -2.09,-11.48 -8.54,-16.2 -6.65,-4.87 -276.68,4.68 -294.31,4.69 -137.26,-22.76 -277.59,-43.06 -401.05,-113.45 -163.66,-93.33 -267.38,-157.56 -376.87,-312.92 -53.54,-75.97 -23.8,-75.16 -30.67,-101.19 -7.56,-2.24 -36.3,2.52 -49.46,1.57 -33.47,-2.41 -17.77,2.44 -40.84,10.13 -22.61,7.55 -67.3,13.02 -91.35,12.65 -30.04,-0.45 -49.71,-16.47 -75.22,-28.04 -11.04,-5 -53.22,-38.22 -44.97,-51.24 8.44,-6.15 73.06,23.99 88.62,28.14 19.26,5.14 94.21,18.37 106.87,3.08 0.31,-5.61 -63.99,-50.74 -28.66,-61.72 3.22,-13.96 61.81,-19.56 80.92,-13.39 48.79,15.74 21.74,49.3 26,66.31 22.35,6.11 60.41,-16.6 97.2,-7.68 30.46,7.39 37.09,34.38 51.59,58.74 129.63,217.88 426.62,405.22 679.78,445.06 61.38,9.66 110.26,16.35 172.48,16.54 38.11,0.12 155.33,-1.06 173.28,16.18 31.26,-2.15 31.75,60.85 33.21,62.77l36.44 2.57 1.59 2.82 -3.29 23.59c0.8,18.79 -51.31,34.35 -61.46,24.15l-20.06 -8.64 0.01 0.01zm-422.09 -1135.87c-14.21,5.29 -56.56,15.24 -72.47,13.89 -26.72,-2.24 -16.96,-11.46 -26.77,-32.34 -2.32,-4.94 -6.53,-16.17 -8.49,-21.62 -2.75,-7.67 -8.17,-14.47 -3.5,-21.2 8.06,-11.63 51.45,-18.94 67.57,-20.24 6.96,-0.56 6.61,-1.67 12.34,-2.63 3.88,-0.65 10.34,0.01 13.44,-0.64 26.61,-5.58 23.95,5.44 31.14,25.17 3.8,10.43 5.4,10.76 7.07,23.17 2.44,18.18 3.73,27.48 -20.32,36.43l-0 0zm-19.3 704.78c-14.06,10.41 -24.59,14.01 -41.95,18.2 -6.2,1.5 -48.11,9.14 -51.89,8.61 -18.06,-2.57 -26.32,-12.52 -28.21,-31.48 -1,-9.94 -4.49,-13.29 -7.59,-23.13 -2.93,-9.29 -2.21,-13.42 -10.43,-19.17 0.66,-19.74 22.24,-22.95 38.45,-28.46l57.59 -9.84c30.56,-1.65 23,-1.22 36.43,27.17 2.92,6.17 8,48.77 7.61,58.11l-0 0zm11.66 795.86l12.75 50.93c2.05,11.68 10.91,9.96 31.07,6.95 6.63,-0.99 10.22,-3.41 17.12,-4.04 15.15,-1.38 23.51,-11.26 29.63,4.22 9.3,23.54 13.15,46.69 -2.45,68.58 -7.73,10.85 -56.89,15.41 -73.28,11.58 -15.33,-3.58 -8.31,-17.13 -8.5,-31.16 -0.43,-30.89 -22.26,-17.95 -61.82,-22.61 -29.58,-3.49 -22.2,-25.63 -32.61,-52.7 -6.78,-17.63 -3.94,-14.26 14.03,-20.3 10.56,-3.55 65.2,-13.99 74.07,-11.47l0 -0zm-56.25 -2358.7c-37.7,-17.57 -49.81,-32.56 -68.01,-42.51 -34.94,-19.11 -60.63,-12.53 -44.26,32.12 8.71,23.76 -14.5,26.18 -27.28,27.68 -15.14,1.78 -30.49,-0.51 -41.09,-12.68 -9.13,-10.47 -4.35,-30.09 -15.21,-40.84 -12.09,-11.97 -26.29,-10.35 -41.99,-11.81 -202.2,-18.83 -414.78,-117.68 -549.25,-266.74 -47.83,-53.02 -79.31,-92.71 -106.71,-159.87 -76.59,-187.76 251.47,-243.71 273.58,-225.36 2.3,20.26 -75.38,27.39 -94.09,30.15 -24.89,3.68 -62.06,26.38 -78.7,45.27 -83.45,94.72 72.41,252.18 132.75,317.95 113.74,123.94 330.28,229.35 506.41,242.63 21.67,1.64 20.03,0.36 39.92,-1.96 48.91,-5.71 89.44,25.96 127.13,52.41 31.6,22.18 46.37,0.09 -3.29,-49.67 -7.49,-7.5 -15.18,-16.04 -26.24,-16.89 -12.65,-0.97 -33.74,5.24 -36.61,-9.09 11.39,-4.05 41.43,-2.02 53.93,-0.61 14.29,1.61 28.2,8.33 39.31,17.39 77.23,62.94 43.03,111.23 -40.3,72.41l-0 0.02zm-232.83 -531.12c-7.06,6.32 -50.2,9.61 -62.17,8.96 -25.89,-1.39 -40.11,-16.77 -48.3,-21.27 -9.12,-5.01 -12.48,-5.26 -18.98,-15.69 -4.46,-7.16 -7.09,-16.92 1.7,-22.4 7.59,-4.74 43.68,6.2 52.99,10.09 16.47,6.88 41.76,9.99 59.62,10.45 31.94,0.82 50.36,-8 62.06,-8.58 31.28,-1.56 33.17,2.85 59.94,10.43 11.33,3.2 19.33,3.97 30.97,0.71 8.2,-2.3 17.08,-9.04 20.92,2.87 -0.83,6.39 -19.58,18.09 -24.92,19.95 -10.03,3.5 -28.66,6.03 -39.82,6.58 -16.42,0.81 -24.77,-3.45 -39.57,-6.27 -36.29,-6.91 -19.57,-0.06 -38.85,-0.03l-15.59 4.19 0 0.01zm974.2 799.41c-18.55,-2.21 -53.22,-10.26 -65.98,-22.8 -6.88,-5.52 -6.88,-5.52 -6.88,-5.52 -5.39,-52 -66.94,-35.33 -68.51,-61.21 -0.49,-7.94 19.22,-9.71 27.33,-11.87 30.05,-8.01 110.65,6.89 127.41,34 16.35,26.45 8.19,29.54 45.45,38.3 33.83,7.95 39.11,-3.53 69.08,-8.58 22,-3.7 83.42,-19.79 91.68,16.87 6.46,28.69 9.41,5.29 25.26,16.04 16.72,22.08 -32.8,46.27 -55.01,30.69 -10.67,-7.48 -4.89,-28.04 -12.64,-38.69 -8.69,-11.94 -27.59,-10.19 -37.54,-1.76 -7.45,11.17 17.07,58.8 -13.03,65.2 -27.87,5.93 -46.23,-10.18 -57.15,-31.25 -17.17,-33.09 -33.76,-15.15 -69.45,-19.42l-0.01 0.01zm-907.54 1705.21c20.8,24.41 -81.69,80.65 -103.82,86.45 -35.85,9.4 -49.56,12.8 -88.64,13.52 -10.38,0.19 -74.19,-13.11 -80.44,-20.28l-1.15 -30.53c-3.85,-8.56 -282.83,-44.39 -320.94,-55.44 -164.56,-47.7 -292.09,-133.93 -374.52,-290.85 -37.2,-53.79 -9.04,-91.42 -17.09,-109.2 -16.61,-15.08 -41.74,-5.3 -49.46,15.2 -58.92,156.54 294.24,403.85 427.67,448.49 30,10.03 100.95,26.91 131.15,27.68 23.45,0.6 49.91,5.88 75.77,6.7 9.97,0.32 63.63,-7.38 65.93,3.09 -69.04,13.14 -137.68,11.16 -202.12,0.35 -153.52,-25.74 -283.22,-101.57 -337.7,-142.36 -55.7,-41.71 -164.9,-142.7 -205.56,-220.61 -62.91,-120.53 15.85,-208.7 124.62,-164.92 36.67,14.76 23.63,45.94 44.5,83.77 19.31,35 64.85,100.99 171.83,196.6 46.25,35.05 93.38,66.56 145.27,92.65 52.61,26.46 125.26,44.47 183.17,55.18 35.21,6.51 70.86,10.89 107,10.77 29.49,-0.1 53.41,-0.22 74.89,14.71 1.2,0.83 9.78,7.04 8.95,15.3l0.28 20.44c89.41,0 80.06,17.21 160.77,-40.37 9.3,-4.33 53.02,-22.26 59.64,-16.35l0.01 0zm-204.05 431.49c-79.41,-19.08 -70.85,-63.74 -83.64,-68.17l-49.02 1.39c-2.83,7.49 55.23,55.94 3.2,72.96 -17.85,5.83 -93.75,14.49 -102.68,-4.54l-1.77 -1.26c-60.53,-29.41 -129.5,-58.79 -199.07,-46.47 -5.47,1.23 -10.55,2.76 -15.08,4.61 -4.42,2.11 -8.26,4.86 -11.35,8.38 0.98,16.65 242.93,209.47 359.75,300.62 542.41,365.39 353.21,242.91 542.41,365.39 -191.08,-114.51 0,0 -554.77,-361.91 -185.55,-140.31 -275.37,-217.77 -369.49,-298.76l-2.08 1.83c-69.62,20.49 -208.59,131.01 -257.3,184.19 -34.33,37.48 -78.99,69.8 -111.59,109.69 -10.36,12.67 -108.84,110.85 -109.99,111 2.03,-19.62 185.09,-199.14 212.69,-224.98 35.42,-33.17 78.45,-76.36 117.06,-101.28 19.88,-12.83 40.82,-32.06 63.42,-45.69 17.73,-10.69 51.21,-29.8 67.33,-41.87 8.52,-3.06 9.51,-10.19 9.51,-10.19 -6.25,-8.03 -93.07,-88.85 -103.73,-98.29 -113.11,-100.07 -222.17,-218.42 -310.42,-340.2 -105.11,-125.85 -187,-311.32 -189.47,-468.35 0,-261.8 190.36,-367.28 387.75,-377.83 52.47,-2.8 117.85,-3.59 170.97,3.92 76.5,10.82 227,34.8 295.4,65.75 38.12,17.24 21.07,-0.3 58.76,-15.2 13.7,-5.42 60.65,-18.17 73.35,-15.24 0.37,0.09 51.58,33.15 55.17,35.85 21.68,16.37 38.63,24.3 21.27,53.68 -48.53,82.13 -208.83,6.77 -273.67,-11.35 -172.91,-48.33 -424.95,-129.74 -595.73,-33.5 -49.83,28.08 -143.74,95.73 -163.54,195.43 -6.26,27.85 -10.44,63.03 -9.2,97.63 1.09,30.3 6.32,66.7 10.76,95.65 14,91.17 76.83,223.31 125.76,296.06 86.85,129.11 169.83,235.05 286.51,346.7 51.45,48.97 117.33,105.5 163.07,155.13 26.37,27.06 42.82,-5.92 74.17,-8.41 57.51,-10.35 73.95,-19.19 139.46,-8.09 9.64,1.63 42.96,8.85 49.7,8.87 24.55,0.08 29.11,-15.23 36.99,-20.04l96.12 -15.08c50.54,-85.68 93.8,-152.05 199.07,-191.37 133.31,-49.8 90.56,26.96 12.69,100.34 -56.35,53.11 -136.74,101.74 -155.08,112.32l-2.86 0.59c26.96,45.97 38.31,59.21 103.62,52.58 30.23,-3.07 97.24,-42.85 97.06,-73.65 -0.28,-47.8 -38.24,-19.74 -49,-29.59 -5.47,-18.2 79.12,-39.66 84.85,13.36 -0.15,102.96 -143.33,130.36 -197.31,117.39l-0 -0zm-140.07 -1840.77c-17.67,6.91 -23,6.95 -42.17,7.8 -14.01,0.62 -33.88,2.76 -45.31,-4.77 -4.18,-10.69 6.27,-50.25 -7,-64.07 -9.2,-3.11 -10.83,-0.29 -18.71,2.11 -10.94,3.33 -48.8,0.44 -54.69,-6.22 -2.73,-5.44 -5.88,-29.08 -6.27,-36.23 -0.74,-13.51 -10.25,-20.32 -3.58,-32.5 5.03,-4.08 92.53,-15.63 99.41,-13.36 8.89,11.92 7.47,63.36 9.78,67.65 14.31,8.08 68.36,-9.41 81.12,0.56 1.94,8.8 5.26,36.98 4.47,45.76 -1.01,11.17 -0.91,12.96 -2.23,21.72 -1.41,9.39 -4.29,7.43 -14.8,11.54l-0 -0zm47.41 -1231.94c-30.75,4.2 -47.01,1.2 -78.8,-4.45 -16.92,-3 -52.79,-12.29 -62.59,-25.31 -12.98,-17.26 -53.06,-18.35 -49.77,-37.23 14.53,-7.61 81.38,33.74 139.37,36.1 15.26,0.62 24.02,3.41 40.94,3.38 37.46,-0.06 42.77,3.14 80.94,-6.86 20.77,-5.44 20.38,13.06 3.33,17.83 -41.05,11.51 -31.11,10.74 -73.42,16.53l-0 0.01zm157.3 2486.67c-14.61,20.62 -38.11,25.67 -62.08,26.23 -36.39,0.85 -23.28,-24.03 -29.01,-38.02 -1.85,-4.5 -4.74,-10.39 -5.78,-15.81 19.41,-12.69 48.83,-11.15 71.27,-16.58 15.15,-3.67 19.44,-11.24 25.74,8.98 3.3,10.59 7.47,24.48 -0.13,35.2zm-475 -579.57c-3.35,30.41 -84.08,53.58 -109.27,59.2 -42.23,9.41 -94.18,-14.58 -131.33,-33.47 -49.34,-25.09 6.2,-14.26 22.82,-9.91 24.51,6.42 49.19,8.16 74.65,8.58 51.33,0.83 71.3,-7.12 111.98,-13.8 17.61,-2.89 17.59,-9.28 31.16,-10.59l0 -0.01zm450.58 635.77c3.7,11.58 1.91,35.58 -10.26,40.82 -13.59,5.86 -33.46,8.18 -48.62,7.71l-8.15 -0.06c-5.06,3.09 -16.71,4.18 -21.02,0.21 -4.65,-2.26 -1.26,-15.71 -1.33,-21.65 -0.15,-12.14 -3.97,-13.28 -4.19,-19.69 -9.57,-7.11 -6.56,-13.35 -28.13,-7.87 -15.41,3.91 -19.08,4.24 -35.78,3.36 -18.59,-25.29 -9.77,-22.32 -15.83,-34.11 -3.89,-7.58 -4,-4.39 -3.61,-14.25 10.08,-4.65 30.56,-9.71 41.89,-7.91 6.67,-5.33 42.15,-14.79 50.3,-8.76 5.71,4.23 4.48,16.65 7.17,24.74 4.23,12.72 -0.79,22.93 2.38,27.85 6.08,4.42 11.96,-2.07 19.55,-3.87 8.46,-2 16.79,-1.33 24.59,-3.11 21.41,-4.88 23.61,-6.65 31.04,16.58l-0 0.01zm-31.72 566.54c36.41,22.22 8.17,70.55 -20.04,87.48 -33.41,20.05 -3.44,6 -45.58,24.06 -15.25,6.54 -29.33,6.81 -40,12.92 -11.31,6.48 -33.28,7.8 -45.78,7.98 -27.5,0.41 -21.73,-11.07 -54.06,-15.89 -9.74,-1.45 -24.24,-1.11 -27.45,-9.3 -5.42,-0.68 -8.32,-4.49 -8.99,-10.24 7.07,-6.07 27.09,-3.11 36.92,-1.93 17.56,2.11 129.13,6.13 134.42,-18.31 1.01,-4.65 0.65,-16.08 -0.84,-20.74 -5.81,-18.19 -13.7,-8.07 -23.73,-21.24 2.7,-16.48 29.3,-21.62 42.91,-26.78 16.43,-6.23 17.52,-9.42 24.9,-10.68 11.23,-1.93 17.06,-3.59 27.32,2.67l0.01 0zm-358.65 -825.88c11.56,13.59 13.22,66.14 -4.74,80.39 -14.35,11.39 -73.11,7.61 -83.98,-3.52l-6.08 -54.81c-24.51,-10.85 -74.51,21.26 -80.5,-31.35 -6.76,-59.36 -31.16,-54.1 37.07,-58.12 12.78,-0.75 40.06,-6.33 47.78,0.08 4.21,3.5 11.89,38.3 11.39,44.44 -1.83,22.47 -0.76,23.18 25.69,22.71 9.53,-0.17 47.43,-2.34 53.38,0.18l-0 0zm725.38 1029.82c57.94,1.4 106.87,15.08 162.22,20.08 37.27,3.37 109.23,22.65 150.94,30.5 53,9.99 101.25,18.93 154.91,27.07 104.27,15.83 211.58,38.69 318.37,45.08 26.83,1.61 58.09,7.41 84.73,2.72 15.08,-2.65 28.86,-0.24 39.39,-2.72 26.54,-6.24 19.87,10.5 3.45,13.64 -35.21,6.73 -34.64,11.74 -74.29,11.05 -143.95,-2.52 -270.98,-34.67 -408.04,-44.41 -139.84,-9.95 -337.37,-73.78 -467.93,-77.59 -94.8,-2.77 16.74,24.76 -71.52,88.65 -38.97,28.21 -97.15,34.45 -141.23,17.56 -39.18,-15.02 -23.76,-35.02 -43,-47.95 -20.61,-13.84 -56.35,-14.09 -70.87,-20.73 8,-28.44 119.52,-12.77 145.28,-4.18 32.41,10.81 15.88,30.77 44.03,43.89 20.24,9.43 47.03,14.35 64.45,-3.31 12.98,-59.16 -27.4,-49.71 -32.54,-59.58 2.61,-12.09 123.41,-40.2 141.65,-39.76l-0 0zm-147.25 -80.06l-33.46 22.72c-22,14.15 -45.39,6.48 -69.56,18.42 -6.43,3.18 -16.53,5.76 -23.65,7.06 -8.71,1.59 -13.82,4.4 -21.61,6.79 -5.59,1.72 -5.81,2.77 -10.52,4.64 -25.41,10.08 -37.55,8.22 -66.61,8.22 -16.94,0 -34.62,-1.26 -49.92,-9.9 -16.02,-9.04 -27.43,-14.06 -28.44,-34.47 13.67,-0.02 25.17,8.26 37.97,10.54 13.98,2.48 28.74,4.86 41.41,7.05 9.86,1.7 31.96,-0.84 44.49,-0.38 6.04,0.22 36.02,-4.85 40.06,-7.71 3.27,-21.33 -19.56,-10.97 -35.56,-29.62 -6.59,-7.68 -4.72,-19.14 2.3,-25.06 18.62,-15.7 58.14,-24.04 79.61,-14.78 20.56,8.87 7.38,47.47 10.64,51.78 3.94,5.2 24.55,7.52 40.84,-13.34 4.81,-6.17 5.37,-5.69 11.77,-9.76 7.44,-4.72 16.7,-11.69 23.89,-16.84 6.82,-4.9 7.82,-2.87 14.11,-5.79 8.51,-3.95 4.32,-5.93 16.97,-4.25 1.76,14.64 -3.78,7.09 -10.69,18.17 -5.08,8.14 -6.46,10.54 -14.03,16.53l-0.01 0zm-534.66 -101.72c31.47,4.17 31.53,8.94 78.94,12.13 22.33,1.5 65.44,5.32 86.39,4.29 8.35,-0.41 21.71,-3.8 28.61,-2.18 3.82,14.73 -6.42,12.24 -18.65,14.56 -28.39,5.39 -118.45,-5.76 -148.77,-13.29 -9.47,-2.35 -16.11,-5.67 -26.27,-6.89 -7.53,-0.91 -21.35,-6.39 -23.67,-13.28l2.59 -0.77c10.45,-1.3 6.05,3.46 20.83,5.42zm133.57 -2997.3c-16.34,1.39 -49.89,3.99 -60.79,-9.62 -3.94,-4.92 -2.54,-12.55 -2.2,-18.41 0.67,-11.68 -5.79,-31.83 -1.7,-38.79 5.58,-9.5 29.35,-6.56 40.28,-7.38 6.26,-0.47 12.31,-2.86 18.45,-3.51 8.17,-0.86 11.69,0.24 20.28,-2.24 19.15,-5.54 17.56,8.64 21.37,23.83 3.19,12.7 0.57,28.43 -4.09,39.56 -6.28,14.99 -20.77,15.64 -31.59,16.56l0 0zm-238.04 437.85c-11.65,3.44 -31.62,4.9 -43.07,0.42 -19.78,-7.74 -10.06,-18.52 -14.35,-34.83 -12.69,-48.21 7.2,-34.82 53.81,-40.58 7.83,-0.97 11.47,-2.56 20.34,-3.13 11.29,-1 18.7,-2.97 22.02,20.94 2.21,14.58 3.32,27.6 -5.65,40.92 -15,22.28 -9.61,9.33 -33.11,16.26l-0.01 0zm-151.63 1031.15c-17.76,5.3 -33.01,6.23 -51.61,3.47 -18.87,-2.8 -32,-3.35 -33.03,-26.17 -0.56,-12.27 -5.32,-11.31 -6.35,-22.69 -2.4,-26.65 -5.79,-12.35 -4.88,-23.39 -24.48,-33.93 93.19,-37.94 109.55,-37.06 1.87,3.56 4.78,7.11 5.89,10.83 3.09,10.33 7.45,30.22 5.63,40.88l-0.07 18.69c0.74,21.49 -6.05,29.74 -25.13,35.43l-0 0zm1049.94 -1753.9c11.55,-32.29 -44.49,-4.65 -53.62,-1.59 -32.03,10.72 -78.2,45.09 -102.26,69.03 -16.09,16 -28.23,27.26 -32.69,52.21 -5.69,31.88 20.31,9.35 46.44,-6.59 33.42,-22.69 136.01,-82.47 142.14,-113.06l-0.01 0zm-551.77 1690.78c-21.15,-17.3 -35.28,-25.24 -61.14,-37.39 -9.05,-4.25 -17.53,-4.12 -25.45,-8 -8.02,-3.93 -21.66,-3.67 -29.79,-0.49 -23.11,9.03 0.55,41.97 4.56,50.01 6.73,13.5 14.54,23.08 25.41,33.81 9.21,9.1 30.99,16.03 43.06,22.09 14.33,7.2 37.06,15.85 50.29,1.91 12.65,-13.33 23.64,-25.26 7.53,-43.04 -6,-6.63 -6.53,-12.44 -14.44,-18.9l-0 0zm-289.79 -99.78c12.46,-21.2 64.19,-35.56 5.51,-50.7 -20.38,-5.26 -72.8,-1.54 -85.85,18.67 -0.67,11.58 40.08,54.22 49.24,63.3 6.44,6.37 23.2,33.85 27.12,20.91 4,-13.19 -5.08,-36.8 3.96,-52.19l0.01 0zm377.59 1413.07c-37.03,32.4 -101.31,121.65 -53.19,105.41 4.34,-1.46 8.51,-2.07 12.27,-3.31 11.85,-3.91 73.33,-44.29 117.78,-86.54 35.53,-33.77 58.29,-70.11 49.97,-79.86 -13.61,-15.95 -89.8,31.91 -126.83,64.3z"/>
  </g>
 </g>
</svg>
