<?xml version="1.0" encoding="UTF-8"?>
<!DOCTYPE svg PUBLIC "-//W3C//DTD SVG 1.1//EN" "http://www.w3.org/Graphics/SVG/1.1/DTD/svg11.dtd">
<!-- Creator: CorelDRAW 2020 (64-Bit) -->
<svg xmlns="http://www.w3.org/2000/svg" xml:space="preserve" width="4.318in" height="5in" version="1.1" style="shape-rendering:geometricPrecision; text-rendering:geometricPrecision; image-rendering:optimizeQuality; fill-rule:evenodd; clip-rule:evenodd"
viewBox="0 0 8500 11000"
 xmlns:xlink="http://www.w3.org/1999/xlink">
 <defs>
  <filter id="shadow" x="0" y="0" width="200%" height="200%">
    <feOffset result="offOut" in="SourceAlpha" dx="30" dy="30" />
    <feGaussianBlur result="blurOut" in="offOut" stdDeviation="25" />
    <feBlend in="SourceGraphic" in2="blurOut" mode="normal" />
  </filter>
  <style type="text/css">
   <![CDATA[
    .fil0 {fill:url(#id0); filter:url(#shadow);}
   ]]>
  </style>
  <linearGradient id="id0" gradientUnits="userSpaceOnUse" x1="7738.72" y1="8039.91" x2="1604.51" y2="2741.87">
   <stop offset="0" style="stop-opacity:1; stop-color:#d89402"/>
   <stop offset="1" style="stop-opacity:1; stop-color:#ffe08a"/>
  </linearGradient>
 </defs>
 <g id="Layer_x0020_1">
  <metadata/>
  <path class="fil0" d="M6653.8 7325.47c-255,-18.03 -575.33,-135.7 -776.04,86.84 -38.48,42.67 -80.57,73.82 -119.54,120.26 -33.28,39.67 -78.17,92.22 -113.91,129.6 -69.13,72.28 -202.97,133.93 -292.08,191.56 -129.4,83.69 -500.88,111.48 -530.73,-54.26 -12.48,-69.31 -161.22,-51.93 -174.85,-62.33 15.38,-83.14 310.01,-71.38 390.5,-29.4 44.28,23.1 10.65,90.49 116.58,129.77 58.76,21.79 144.86,-1.24 194.57,-35.08 87.28,-59.43 158.83,-168.54 244.45,-248.59 92.78,-86.76 162.62,-156.85 277.48,-216.25 52.93,-27.37 160.55,-49.75 183.2,-63.25 64.52,-38.45 115.83,-45.18 180.04,-67.15 116.04,-39.72 321.09,-4.66 444.23,12.81 484.87,68.81 1081.86,171.12 1564.65,188.15 47.61,1.68 183.03,-38.96 215.85,9.63 -3.95,32.56 -159.9,75.09 -193.19,79.79 -440.2,62.15 -1146.18,-139.22 -1611.21,-172.1zm-1296.83 -2463.28c64.56,67.45 -139.09,81.85 -189.17,15.03 -226.48,-31.89 -577.44,-70.76 -771.89,-132.76 -457.3,-145.82 -896.15,-382.33 -1216.76,-744.82 -51.62,-58.37 -143.37,-169.02 -183.99,-235.74 -31.9,-52.39 -21.2,-87.15 -29.03,-100.67 -35.83,-23.65 -218.53,20.22 -280.96,21.03 -153.52,2.01 -129.09,-129.57 -37.07,-106.11 111.62,28.45 147.44,51.74 268.1,15.89 70.17,-20.85 195.98,-60.42 242.03,16.08 70.74,144.13 58.8,139.12 266.28,363.87 55.31,63.9 259.57,241.26 337.7,289.61 322.49,199.54 440.41,292.56 832.73,417.54 159.52,50.82 356.83,90.1 523.26,108.09 54.47,5.89 200.99,33.5 238.76,72.96zm-1014.1 -2233.02c-46.93,-42.24 -155.63,-189.01 -196.63,-253.2 -33.39,-52.29 -61.54,-15.95 -90.61,-55.95 -42.35,-58.26 26.35,-142.89 -121,-179.22 -89.19,-21.99 -180.76,2.09 -272.54,2.31 -107.8,0.26 -171.57,1.54 -278.13,-14.4 -35.14,-5.26 -246.21,-50.18 -250.97,-50.28l-20.41 -13.17 -13.69 16.82c-73.17,30.33 133.11,181.23 149.88,191.57 160.11,98.68 364.97,172.5 559.93,188.45 74.34,6.08 84.31,-1.53 166.2,16.07 39.85,8.57 33.42,7.17 66.83,26.84 29.34,17.27 46.07,-2.6 70.13,8.14 47.57,49.74 -25.91,112.15 -97.7,113.31 -127.02,2.06 -30.96,-66.98 -135.56,-97.29 -198.64,-57.56 -284.95,83.14 -753.81,-179.28 -43.67,-24.44 -99.21,-75.89 -124.51,-111.16 -19.04,-26.55 -36.14,-41.72 -39.36,-79.2 -6.65,-77.35 5.48,-47.11 26.3,-89.54 -14.94,-33.5 -127.8,-81.98 -148.13,3.68 -15.34,64.65 9.26,121.46 40.04,175.47 155.56,272.93 492.3,351.96 781.78,370.56 158.68,10.2 149.78,-24.17 192.26,-24.04 17.14,81.07 -258.74,58.61 -313.92,55.12 -101.88,-6.45 -238.98,-26.68 -332.86,-61.29 -72.5,-26.72 -208.61,-94.69 -262.41,-134.33 -97.56,-71.89 -226.01,-187.31 -225.44,-318.65 0.39,-88.13 95.27,-178.79 182.85,-160.91 51.15,10.44 26.17,-10.26 51.09,-13.72l180.54 116.54 -8.87 -38.98c0.63,-0.29 245.41,28.82 277.87,30.4 210.89,10.28 418.07,-28.89 609.26,-7.13 36.96,4.2 89.36,10.82 128.22,30.29 79.44,39.81 89.58,7.36 122.98,20.4 22,25.74 10.65,147.67 78.17,176.85 0,0 5.91,15.55 5.91,15.55 17.2,228.63 713.09,702.55 963.35,818.73 242.96,112.8 503.36,176.21 765.51,220.54l1.4 -7.82c5.04,-4.78 -97.54,-79.77 -46.53,-149.46 23.52,-32.13 163.42,-32.09 205.25,-32.5 296.06,-2.89 140.56,248.9 54.48,119.32 -0.87,-4.04 7.48,-27.98 5.25,-48.97l-110.15 -16.03 -1.69 11.61c-47.88,186.19 245.09,161.3 213.74,230.34 -21.3,11.75 -78.49,-17.78 -105.3,-26.37 -60.45,-19.36 -281.76,-15.76 -364.47,-28.3 -853.6,-129.39 -1048.79,-285.67 -1584.5,-767.74zm56.75 -770.54c-35.44,-13.22 -221.87,33.43 -331.08,-5.77 -62.05,-22.27 -203.87,-89.14 -198.02,-170.83 -49.94,-24.46 -28.51,-16.72 -98.85,-10.52 -27.05,2.39 -84.94,-6.78 -111.35,-14.72 -54.73,-16.44 -125.5,-46.29 -149.46,-104.59 -24.44,-59.48 -22.38,-36.09 -48.62,-79.28 -35.98,-59.24 5.32,-16.35 -52.72,-73.7 -52.17,-51.55 -94.86,-83.44 -77.33,-170.13l81.22 -36.15c-3.33,-45.48 -193.8,-105.87 -241.87,-110.78 -75.39,-7.7 -225.24,25.63 -296.92,53.43 -166.18,64.43 -297.88,165.43 -440.82,259.65 -80.33,52.95 -746.24,636.52 -767.04,629.86 -10.77,-52.42 538.41,-499.34 613.03,-567.33 187.46,-170.81 502.37,-376.78 753.49,-426.52 90.97,-18.02 177.8,-30.17 271.59,-21.96 66.95,5.86 202.79,56.19 239.78,51.61 125.16,-15.48 123.41,-68.39 185.46,64 55.47,118.36 -23.46,133.52 -116.64,145.08 -98.51,12.22 -178.83,-89.64 -222.64,-30.2 -35.62,48.33 96.57,133.54 135.56,145.78 107.47,33.71 147.36,0.84 225.63,-55.64 33.65,-24.28 167.59,-108.64 194.39,-50.07 -4.36,18.32 -175.04,133.09 -185.15,139.11 -22.76,13.56 -97.98,34.09 -129.61,35.36 -22.39,0.91 -58.85,4.8 -77.46,2.03 -18.43,-2.74 -51.96,-20.19 -62.11,-9.23 -6.81,62.91 281.41,183.42 345.14,157.9 25.48,-64.94 2.29,-66.63 55.8,-138.02 49.85,-66.52 207.94,-171.46 294.94,-213.27 130.08,-62.52 291.07,-90.98 328.23,-37.47 108.14,155.74 -483.91,402.8 -535.01,426.85 -28.18,102.7 191.96,143.45 260.99,144.33 50.68,0.65 131.91,-30.88 173.84,-24.34 158.78,24.77 58.76,16.78 127.16,75.55l134.46 -16.29 1.25 10.3c7.43,43.53 -67.46,91.81 -118.05,97.79 -139.69,16.51 -145.44,-62.3 -161.17,-71.81zm625.2 -258.64c-25.69,46.32 -118.94,47.07 -166.89,45.95 -15.76,-0.37 -50.87,15.88 -40.24,-60.07 5.8,-41.46 -23.63,-52.26 -14.53,-85.9 5.81,-21.5 18.66,-12.15 38.47,-16l134.21 -29.88c55.51,-17.89 66.02,115.18 48.98,145.91zm-892.59 6040.77c-22.75,9.85 -49.15,12.38 -73.48,13.79 -124.81,7.24 -79.87,-37.05 -108.44,-119.59 -18.82,-54.4 5.57,-51.66 98.43,-59.28 26.7,-2.19 69.79,-25.29 100.61,-13.3 27.35,37.68 29.01,170.58 -17.12,178.38zm465.82 -4381.74c-44.25,38.12 -111.67,6.07 -176.41,24.17 -24.8,-27.99 -8.37,-56.48 -15.78,-89.61 -2.72,-12.18 -10.19,-25.48 -13.27,-39.9 -5.44,-25.51 -0.65,-19.29 9.48,-34.09 57.65,-0.67 120.69,-13.57 173.56,-14.34 41.44,-0.6 34.14,44.26 44.15,92.3 6.91,33.15 0.22,36.65 -7.49,42.35 -13.83,10.26 -4.06,10.34 -14.24,19.12zm1155.85 649.57c-38.54,21.46 -114.37,4.39 -107.57,-54.6 10.57,-91.74 242.09,-101.82 254.74,-64.06 -22.95,26.89 -190.1,-12.49 -194.2,48.51 26.46,0.69 43.66,-18.48 65.67,11.15 14.42,19.42 0.75,48.2 -18.63,59zm-1138.81 2515.15c-57.14,43.1 -910.24,-487.5 -1008.74,-554.94 -143.11,-98 -810.96,-586.34 -879.33,-683.84l-2.72 -4.03 -254.47 -263.9 1.13 -1.04 -167.56 -175.22 -2.48 -7.89c-0.5,0.1 -0.99,0.21 -1.48,0.33l-203.92 177.83 -11.41 -12.42 58.21 -51.74 138.21 -131.65 3.48 -3.57c-5.35,-33.72 -268.4,-355.48 -340.39,-605.96 -76.64,-266.64 -133.83,-503.64 37.29,-760.33 150.63,-225.96 417.6,-274.14 671.15,-269.02 99.27,4.13 731.67,143.44 732.61,214.36 10.52,4.06 11.36,27.72 51.51,30.85 19.53,1.52 47.21,-17.99 65.42,-7.95 28.98,48.59 -107.23,66.02 -133.74,70.3 -33.52,5.41 -64.53,8.32 -99.17,6 -31.26,-2.09 -56.11,-28.46 -80.11,-17.13 -22.71,53.13 109.86,84.43 146.82,86.31 105.73,5.38 159.55,-57.46 185.24,-53.52l7.78 -2.7 145.7 -57.68 3.34 9.43c20.2,26.87 -67.26,48.87 -90.75,60.22 -14.96,7.23 -75.36,55.55 -90.96,68.74 -76.48,64.63 -234.5,31.72 -266.95,46.15 23.13,46.78 203.8,83.48 256.61,84.19 125.27,1.68 165.91,-13.75 258.17,-79.24 61.48,-43.65 133.57,-95.15 210.7,-129.3 37,-16.39 223.52,-96.79 250.35,-77.69 8.24,32.45 -107.75,66.91 -138.99,85.84 -48.42,29.34 -91.43,53.09 -136.02,87.24 -113.29,86.76 -181.71,96.35 -313.71,136.06 -123.55,37.16 -249.19,15.71 -356.34,-53.9 -57.68,-37.47 -79.83,-51.19 -116.6,-107.42 -72.34,-110.63 16.04,-126.88 20.41,-151.78 -9.56,-20.82 -259.35,-95.07 -298.96,-109 -112.3,-39.48 -211.52,-65.96 -332.28,-68.96 -118.27,-2.95 -250.52,4.7 -337.24,53.71 -41.95,25.93 -86.06,49.94 -118.2,85.01 -85.01,92.73 -129,154.41 -157.56,282.39 -42.57,190.81 -3.43,381.76 65.83,563.84 46.85,123.18 79.31,179.67 146.34,297.31 27.45,48.18 145.52,235.1 177.27,261.16 123.61,-65.39 178.6,-85.88 274.52,-56.58 36.98,11.3 46.58,15.35 67.31,25.73l4.44 -38.75c8.35,-9.04 73.59,-37.79 84.39,-39.71 79.17,-14.03 201.74,129.84 127.24,187.86 -57.96,45.14 -132.96,37.03 -188.64,10.8 -27.1,-12.77 -55.26,-42.13 -79.9,-29.11 -44.73,23.64 -32.14,44.01 -41.18,75.37l10.72 28.96 -1.54 -0.46 209.39 233.35 51.16 19.81 3.55 -4.79 -47.29 -99.12c-22.98,-20.88 -0.87,-78.21 29.65,-99.24 22.67,-15.62 66.03,-32.49 94.64,-42.13 75.63,-25.48 152.67,-2.49 220.62,30.33 329.55,159.18 114.22,264.13 116.72,289.49 29.89,16.89 193.08,-20.67 196.96,-70.67l-59.54 -46.71 -75.69 -73.59 8.8 -7.17c32.67,-46.1 131.89,-69.67 189.41,-61.98 38.35,5.12 61.23,10.26 81.35,45.67 33.5,58.96 16.1,64.33 30.15,96.28 13.29,6.88 116.54,-16.7 149.71,-17.32 81.68,-1.52 69.56,21.71 117.58,53.31l107.91 -17.68 1.78 10.84c8.07,42.94 -106.56,70.29 -137.96,80.76 -113.63,37.86 -97.99,-15.11 -146.05,-46.22 -188.17,-7.96 -240.53,129.47 -426.55,128.65 -47,-0.21 -88.36,2.51 -134.51,-5.2 -28.67,-4.79 -91.34,-19.12 -115.55,-20.27 -44.16,-2.09 -89.45,-2.66 -132.33,-8.91 -21.75,-3.17 -104.8,-26.17 -107.19,-24.81 38.81,88.55 714.41,566.26 856.39,670.29 150.39,97.79 330.52,202.67 471.48,292.19 78.64,49.95 160.18,94.11 241.56,137.65 62.53,33.46 206.72,92.23 253.02,127.65zm-620.65 -704.16c-58.13,20.75 -87.68,27.17 -152.32,31.42 -43.26,2.85 -63.99,-26.32 -58.69,-67.43 -3.83,-17.21 -6.75,-24.68 -15.76,-69.03 -21.09,-7.11 -39.81,-60.11 5.02,-77.46 37.69,-14.59 60.08,-17.19 97.52,-26.39 21.4,-5.26 84.57,-19.46 105.02,-17.64 28.74,2.57 47.4,74.34 47.49,76.28 4.69,3.18 6.71,-4.64 3.69,9.43 10.31,15.58 5.38,113.17 5.31,113.5 -3.4,17.46 -20.8,21.43 -37.28,27.31zm1185.67 1758.76c-52.19,-1.7 14.24,-80.37 -157.26,-64.85 -19.57,1.77 -159.91,38.4 -134.99,73.99l89.11 17.57 7.02 18 -55.55 45.13 -1.44 -2.8c-12.42,10.75 -8.68,5.19 -32.51,10.65 -29.85,6.83 -77.26,2.63 -97.15,-24.65 -28.93,-39.68 9.59,-93.91 43.29,-113.06 38.04,-21.6 78.23,-40.36 124.78,-46.06 26.3,-3.22 50.86,-9.02 76.6,-9.95 76.46,-2.77 95.29,27.22 91.32,-45.94 -0.96,-17.63 -4.6,-25.26 -18.78,-35.65 -14.63,-10.72 -608.69,10.29 -647.48,10.31 -301.96,-50.06 -610.7,-94.73 -882.3,-249.59 -360.05,-205.34 -588.23,-346.63 -829.11,-688.42 -117.78,-167.13 -52.35,-165.35 -67.46,-222.61 -16.64,-4.92 -79.87,5.54 -108.81,3.46 -73.63,-5.3 -39.1,5.36 -89.85,22.29 -49.74,16.6 -148.06,28.64 -200.96,27.84 -66.09,-1 -109.36,-36.24 -165.48,-61.69 -24.28,-11.01 -117.09,-84.09 -98.93,-112.73 18.58,-13.54 160.73,52.78 194.96,61.91 42.36,11.3 207.26,40.41 235.12,6.77 0.69,-12.33 -140.78,-111.63 -63.05,-135.78 7.09,-30.71 135.99,-43.03 178.02,-29.46 107.33,34.63 47.83,108.45 57.2,145.88 49.16,13.43 132.89,-36.52 213.83,-16.89 67.01,16.25 81.61,75.63 113.5,129.22 285.18,479.33 938.57,891.48 1495.52,979.13 135.03,21.25 242.56,35.97 379.46,36.39 83.83,0.26 341.72,-2.33 381.22,35.6 68.78,-4.72 69.85,133.86 73.07,138.09l80.18 5.65 3.5 6.2 -7.24 51.91c1.76,41.34 -112.89,75.58 -135.22,53.13l-44.13 -19.01zm-928.6 -2498.92c-31.26,11.63 -124.43,33.52 -159.44,30.57 -58.78,-4.94 -37.31,-25.21 -58.9,-71.15 -5.11,-10.88 -14.37,-35.56 -18.67,-47.56 -6.05,-16.87 -17.98,-31.83 -7.71,-46.65 17.74,-25.58 113.19,-41.66 148.66,-44.54 15.31,-1.24 14.55,-3.68 27.15,-5.78 8.54,-1.42 22.75,0.03 29.57,-1.4 58.55,-12.27 52.69,11.97 68.5,55.38 8.35,22.94 11.88,23.67 15.56,50.97 5.38,39.99 8.2,60.46 -44.71,80.15zm-42.45 1550.52c-30.94,22.91 -54.09,30.83 -92.3,40.05 -13.65,3.29 -105.85,20.11 -114.17,18.93 -39.74,-5.65 -57.9,-27.54 -62.06,-69.26 -2.19,-21.87 -9.88,-29.24 -16.7,-50.88 -6.44,-20.43 -4.86,-29.52 -22.94,-42.18 1.45,-43.42 48.93,-50.5 84.6,-62.62l126.69 -21.65c67.22,-3.63 50.59,-2.68 80.15,59.77 6.42,13.56 17.61,107.29 16.73,127.83zm25.64 1750.89l28.05 112.04c4.51,25.69 24,21.91 68.35,15.3 14.59,-2.17 22.48,-7.49 37.67,-8.88 33.34,-3.04 51.72,-24.78 65.18,9.29 20.45,51.78 28.93,102.72 -5.39,150.88 -17.01,23.86 -125.17,33.9 -161.22,25.48 -33.73,-7.88 -18.28,-37.69 -18.71,-68.55 -0.94,-67.96 -48.97,-39.5 -136.01,-49.75 -65.07,-7.67 -48.83,-56.39 -71.73,-115.93 -14.92,-38.79 -8.68,-31.36 30.87,-44.65 23.23,-7.8 143.45,-30.77 162.95,-25.23zm-123.75 -5189.15c-82.94,-38.65 -109.59,-71.63 -149.63,-93.53 -76.88,-42.04 -133.38,-27.56 -97.37,70.66 19.16,52.27 -31.91,57.59 -60.01,60.89 -33.3,3.91 -67.07,-1.12 -90.4,-27.89 -20.08,-23.04 -9.58,-66.21 -33.46,-89.85 -26.61,-26.34 -57.83,-22.76 -92.37,-25.98 -444.83,-41.44 -912.52,-258.89 -1208.35,-586.83 -105.22,-116.65 -174.48,-203.96 -234.76,-351.72 -168.49,-413.07 553.24,-536.17 601.87,-495.8 5.06,44.56 -165.83,60.27 -206.99,66.34 -54.77,8.09 -136.54,58.04 -173.15,99.59 -183.6,208.38 159.3,554.8 292.05,699.5 250.22,272.66 726.62,504.56 1114.09,533.79 47.67,3.6 44.07,0.8 87.82,-4.31 107.61,-12.57 196.76,57.11 279.69,115.31 69.52,48.8 102.02,0.19 -7.23,-109.27 -16.47,-16.5 -33.39,-35.28 -57.74,-37.15 -27.84,-2.13 -74.24,11.53 -80.55,-20 25.07,-8.91 91.14,-4.44 118.65,-1.33 31.43,3.55 62.04,18.33 86.48,38.25 169.91,138.48 94.66,244.7 -88.65,159.3zm-512.23 -1168.46c-15.53,13.9 -110.45,21.13 -136.78,19.72 -56.97,-3.06 -88.23,-36.89 -106.26,-46.79 -20.07,-11.02 -27.45,-11.57 -41.75,-34.52 -9.81,-15.75 -15.59,-37.22 3.73,-49.28 16.7,-10.42 96.1,13.65 116.57,22.2 36.23,15.14 91.87,21.97 131.17,22.99 70.27,1.81 110.8,-17.6 136.52,-18.88 68.82,-3.43 72.97,6.26 131.86,22.94 24.92,7.05 42.54,8.73 68.13,1.56 18.05,-5.05 37.57,-19.88 46.02,6.32 -1.84,14.06 -43.07,39.8 -54.82,43.9 -22.06,7.71 -63.05,13.26 -87.6,14.47 -36.13,1.79 -54.5,-7.59 -87.05,-13.8 -79.83,-15.2 -43.05,-0.14 -85.46,-0.07l-34.29 9.22zm2143.24 1758.69c-40.81,-4.87 -117.09,-22.56 -145.16,-50.17 -15.13,-12.15 -15.13,-12.15 -15.13,-12.15 -11.86,-114.41 -147.26,-77.72 -150.73,-134.66 -1.07,-17.48 42.28,-21.36 60.12,-26.11 66.11,-17.62 243.43,15.16 280.29,74.8 35.98,58.2 18.01,64.98 100,84.26 74.42,17.5 86.05,-7.76 151.97,-18.87 48.41,-8.15 183.53,-43.54 201.7,37.11 14.22,63.11 20.7,11.64 55.56,35.29 36.79,48.57 -72.16,101.8 -121.02,67.51 -23.46,-16.46 -10.76,-61.69 -27.81,-85.11 -19.12,-26.27 -60.69,-22.42 -82.59,-3.87 -16.39,24.57 37.55,129.35 -28.67,143.43 -61.31,13.04 -101.7,-22.39 -125.74,-68.75 -37.76,-72.8 -74.26,-33.33 -152.79,-42.72zm-1996.59 3751.46c45.76,53.7 -179.72,177.43 -228.41,190.2 -78.86,20.68 -109.04,28.17 -195.01,29.75 -22.83,0.42 -163.21,-28.84 -176.98,-44.62l-2.53 -67.17c-8.48,-18.83 -622.24,-97.67 -706.06,-121.96 -362.02,-104.94 -642.6,-294.65 -823.94,-639.88 -81.85,-118.34 -19.89,-201.12 -37.61,-240.24 -36.55,-33.17 -91.84,-11.65 -108.81,33.43 -129.63,344.38 647.33,888.48 940.87,986.67 65.99,22.07 222.09,59.19 288.52,60.9 51.59,1.32 109.8,12.93 166.7,14.74 21.94,0.7 139.98,-16.24 145.04,6.8 -151.88,28.91 -302.9,24.55 -444.67,0.78 -337.74,-56.63 -623.08,-223.46 -742.94,-313.19 -122.54,-91.77 -362.78,-313.93 -452.24,-485.34 -138.39,-265.17 34.86,-459.15 274.16,-362.82 80.68,32.48 51.99,101.07 97.91,184.29 42.48,77 142.67,222.18 378.04,432.52 101.75,77.11 205.44,146.43 319.6,203.84 115.75,58.22 275.58,97.84 402.98,121.4 77.46,14.32 155.9,23.97 235.4,23.7 64.87,-0.22 117.5,-0.48 164.77,32.37 2.63,1.83 21.51,15.48 19.69,33.66l0.61 44.97c196.69,0 176.12,37.87 353.69,-88.82 20.46,-9.54 116.64,-48.98 131.21,-35.97zm-448.91 949.27c-174.7,-41.98 -155.87,-140.23 -184.01,-149.96l-107.85 3.06c-6.22,16.48 121.5,123.08 7.05,160.52 -39.26,12.84 -206.25,31.88 -225.89,-9.98l-3.9 -2.78c-133.16,-64.71 -284.89,-129.33 -437.96,-102.23 -12.03,2.71 -23.2,6.07 -33.17,10.14 -9.73,4.65 -18.18,10.7 -24.98,18.43 2.15,36.63 534.44,460.83 791.45,661.36 1193.29,803.87 777.06,534.41 1193.29,803.87 -420.38,-251.93 0,0 -1220.49,-796.2 -408.21,-308.69 -605.82,-479.09 -812.87,-657.28l-4.57 4.04c-153.16,45.07 -458.91,288.22 -566.07,405.21 -75.52,82.45 -173.78,153.57 -245.51,241.32 -22.79,27.88 -239.45,243.86 -241.98,244.21 4.46,-43.16 407.2,-438.1 467.91,-494.95 77.92,-72.97 172.6,-167.99 257.52,-222.81 43.73,-28.24 89.8,-70.54 139.53,-100.52 39,-23.51 112.67,-65.56 148.14,-92.12 18.75,-6.74 20.92,-22.42 20.92,-22.42 -13.75,-17.66 -204.75,-195.48 -228.21,-216.24 -248.85,-220.15 -488.78,-480.53 -682.92,-748.43 -231.23,-276.87 -411.39,-684.9 -416.84,-1030.38 0,-575.97 418.79,-808.01 853.05,-831.24 115.44,-6.17 259.28,-7.9 376.13,8.63 168.29,23.8 499.41,76.57 649.88,144.65 83.86,37.94 46.35,-0.65 129.26,-33.45 30.15,-11.93 133.44,-39.97 161.38,-33.52 0.82,0.19 113.48,72.92 121.37,78.88 47.69,36.02 84.98,53.47 46.8,118.09 -106.77,180.68 -459.42,14.9 -602.06,-24.97 -380.41,-106.34 -934.9,-285.44 -1310.6,-73.71 -109.62,61.77 -316.22,210.6 -359.78,429.94 -13.76,61.28 -22.97,138.66 -20.24,214.78 2.39,66.65 13.9,146.74 23.68,210.43 30.81,200.58 169.03,491.28 276.68,651.32 191.06,284.04 373.63,517.11 630.32,762.73 113.2,107.74 258.13,232.09 358.76,341.28 58.02,59.53 94.21,-13.03 163.17,-18.5 126.53,-22.77 162.7,-42.21 306.81,-17.8 21.21,3.59 94.51,19.46 109.33,19.51 54,0.17 64.03,-33.5 81.37,-44.08l211.46 -33.17c111.18,-188.5 206.36,-334.5 437.95,-421.02 293.29,-109.56 199.23,59.31 27.92,220.75 -123.97,116.83 -300.82,223.82 -341.18,247.1l-6.3 1.31c59.31,101.14 84.29,130.26 227.96,115.68 66.51,-6.75 213.92,-94.28 213.52,-162.04 -0.61,-105.15 -84.14,-43.44 -107.79,-65.09 -12.04,-40.04 174.07,-87.25 186.66,29.39 -0.32,226.52 -315.33,286.8 -434.09,258.27zm-308.16 -4049.69c-38.88,15.19 -50.6,15.3 -92.76,17.17 -30.83,1.37 -74.54,6.06 -99.68,-10.49 -9.2,-23.51 13.79,-110.55 -15.41,-140.96 -20.24,-6.83 -23.83,-0.63 -41.17,4.65 -24.06,7.34 -107.36,0.98 -120.31,-13.69 -6,-11.97 -12.94,-63.98 -13.8,-79.7 -1.63,-29.73 -22.55,-44.71 -7.88,-71.49 11.07,-8.98 203.56,-34.39 218.69,-29.39 19.56,26.22 16.43,139.4 21.51,148.83 31.48,17.78 150.39,-20.7 178.46,1.24 4.28,19.35 11.57,81.36 9.83,100.66 -2.22,24.58 -2.01,28.51 -4.9,47.79 -3.1,20.66 -9.43,16.35 -32.57,25.39zm104.31 -2710.28c-67.65,9.25 -103.43,2.63 -173.37,-9.79 -37.22,-6.61 -116.13,-27.03 -137.69,-55.68 -28.56,-37.96 -116.74,-40.37 -109.49,-81.91 31.96,-16.75 179.03,74.22 306.61,79.42 33.57,1.37 52.85,7.5 90.07,7.43 82.41,-0.14 94.09,6.91 178.08,-15.09 45.7,-11.97 44.83,28.72 7.32,39.24 -90.31,25.33 -68.44,23.64 -161.53,36.37zm346.05 5470.68c-32.15,45.36 -83.83,56.48 -136.58,57.7 -80.07,1.86 -51.21,-52.87 -63.83,-83.64 -4.06,-9.9 -10.43,-22.85 -12.72,-34.78 42.71,-27.92 107.44,-24.52 156.79,-36.48 33.34,-8.08 42.78,-24.74 56.62,19.76 7.25,23.31 16.43,53.86 -0.28,77.45zm-1045.01 -1275.05c-7.38,66.91 -184.98,117.88 -240.4,130.24 -92.9,20.71 -207.19,-32.07 -288.93,-73.63 -108.55,-55.19 13.64,-31.38 50.21,-21.8 53.92,14.13 108.22,17.95 164.22,18.87 112.93,1.84 156.87,-15.67 246.35,-30.37 38.75,-6.36 38.69,-20.41 68.55,-23.3zm991.28 1398.69c8.15,25.48 4.2,78.28 -22.56,89.81 -29.91,12.9 -73.61,18 -106.96,16.97l-17.93 -0.14c-11.14,6.81 -36.76,9.19 -46.25,0.46 -10.24,-4.96 -2.78,-34.56 -2.94,-47.64 -0.33,-26.71 -8.73,-29.22 -9.22,-43.31 -21.06,-15.65 -14.42,-29.38 -61.88,-17.32 -33.9,8.61 -41.98,9.32 -78.72,7.39 -40.91,-55.63 -21.5,-49.1 -34.82,-75.04 -8.56,-16.67 -8.79,-9.67 -7.93,-31.35 22.18,-10.22 67.24,-21.36 92.16,-17.41 14.66,-11.73 92.73,-32.54 110.65,-19.27 12.56,9.3 9.85,36.62 15.78,54.43 9.31,27.99 -1.74,50.44 5.24,61.28 13.37,9.73 26.31,-4.56 43,-8.51 18.62,-4.41 36.93,-2.92 54.11,-6.83 47.1,-10.74 51.94,-14.64 68.28,36.48zm-69.79 1246.39c80.11,48.89 17.98,155.2 -44.09,192.45 -73.49,44.11 -7.57,13.19 -100.27,52.94 -33.55,14.39 -64.52,14.98 -88,28.43 -24.89,14.25 -73.22,17.15 -100.72,17.55 -60.49,0.89 -47.81,-24.35 -118.93,-34.97 -21.42,-3.2 -53.33,-2.44 -60.4,-20.46 -11.93,-1.5 -18.3,-9.87 -19.78,-22.52 15.56,-13.35 59.61,-6.85 81.23,-4.24 38.64,4.65 284.09,13.48 295.72,-40.29 2.22,-10.24 1.43,-35.37 -1.85,-45.63 -12.79,-40.01 -30.14,-17.76 -52.2,-46.72 5.93,-36.26 64.46,-47.57 94.39,-58.92 36.15,-13.71 38.54,-20.72 54.78,-23.5 24.7,-4.24 37.52,-7.91 60.11,5.88zm-789.04 -1816.93c25.44,29.91 29.08,145.5 -10.43,176.87 -31.58,25.07 -160.83,16.74 -184.75,-7.74l-13.37 -120.58c-53.92,-23.86 -163.93,46.78 -177.11,-68.98 -14.87,-130.59 -68.55,-119.02 81.55,-127.86 28.12,-1.65 88.13,-13.94 105.12,0.18 9.27,7.71 26.15,84.25 25.05,97.76 -4.02,49.43 -1.67,51 56.51,49.96 20.96,-0.37 104.34,-5.15 117.44,0.4zm1595.83 2265.61c127.46,3.08 235.11,33.17 356.89,44.17 81.99,7.41 240.31,49.82 332.07,67.11 116.59,21.98 222.75,41.64 340.8,59.56 229.4,34.83 465.48,85.11 700.42,99.17 59.04,3.54 127.8,16.29 186.41,5.98 33.18,-5.83 63.5,-0.54 86.65,-5.98 58.39,-13.73 43.72,23.11 7.6,30.01 -77.46,14.8 -76.2,25.83 -163.44,24.3 -316.69,-5.55 -596.15,-76.28 -897.69,-97.71 -307.65,-21.89 -742.22,-162.31 -1029.45,-170.7 -208.57,-6.09 36.83,54.48 -157.35,195.04 -85.74,62.06 -213.72,75.8 -310.7,38.62 -86.19,-33.04 -52.26,-77.04 -94.61,-105.5 -45.33,-30.45 -123.98,-31 -155.91,-45.6 17.59,-62.57 262.95,-28.09 319.61,-9.19 71.29,23.78 34.93,67.7 96.87,96.55 44.54,20.74 103.47,31.57 141.79,-7.28 28.56,-130.15 -60.28,-109.37 -71.58,-131.07 5.73,-26.61 271.51,-88.45 311.64,-87.48zm-323.95 -176.13l-73.61 49.98c-48.4,31.13 -99.85,14.26 -153.04,40.52 -14.15,6.99 -36.37,12.67 -52.03,15.52 -19.17,3.49 -30.41,9.68 -47.54,14.94 -12.3,3.78 -12.78,6.1 -23.15,10.21 -55.91,22.17 -82.6,18.09 -146.54,18.09 -37.27,0 -76.16,-2.78 -109.82,-21.78 -35.24,-19.89 -60.35,-30.94 -62.58,-75.83 30.07,-0.04 55.37,18.18 83.54,23.18 30.75,5.46 63.24,10.69 91.1,15.5 21.69,3.74 70.31,-1.85 97.88,-0.84 13.29,0.49 79.24,-10.66 88.14,-16.96 7.19,-46.93 -43.02,-24.13 -78.24,-65.17 -14.5,-16.9 -10.39,-42.11 5.05,-55.13 40.96,-34.55 127.91,-52.89 175.14,-32.51 45.23,19.51 16.24,104.44 23.41,113.91 8.67,11.45 54,16.54 89.85,-29.35 10.59,-13.56 11.81,-12.52 25.9,-21.47 16.36,-10.39 36.74,-25.71 52.55,-37.05 15.01,-10.78 17.2,-6.32 31.05,-12.74 18.73,-8.69 9.5,-13.05 37.34,-9.35 3.86,32.2 -8.31,15.61 -23.52,39.96 -11.17,17.9 -14.22,23.19 -30.87,36.37zm-1176.26 -223.78c69.24,9.18 69.37,19.67 173.67,26.69 49.13,3.31 143.96,11.7 190.05,9.43 18.37,-0.9 47.76,-8.37 62.93,-4.79 8.4,32.4 -14.12,26.93 -41.02,32.03 -62.45,11.85 -260.6,-12.67 -327.3,-29.23 -20.84,-5.17 -35.44,-12.46 -57.8,-15.16 -16.56,-2 -46.96,-14.07 -52.08,-29.21l5.71 -1.69c22.99,-2.87 13.31,7.61 45.84,11.93zm293.85 -6594.07c-35.95,3.07 -109.77,8.77 -133.74,-21.17 -8.67,-10.83 -5.58,-27.6 -4.84,-40.49 1.48,-25.69 -12.73,-70.04 -3.75,-85.33 12.27,-20.89 64.58,-14.42 88.61,-16.24 13.76,-1.04 27.08,-6.3 40.59,-7.72 17.96,-1.89 25.71,0.54 44.61,-4.93 42.13,-12.19 38.62,19.01 47.02,52.42 7.02,27.95 1.26,62.54 -8.99,87.02 -13.81,32.98 -45.69,34.4 -69.51,36.43zm-523.68 963.28c-25.62,7.56 -69.56,10.78 -94.75,0.93 -43.52,-17.02 -22.12,-40.75 -31.56,-76.63 -27.92,-106.07 15.85,-76.6 118.39,-89.28 17.22,-2.13 25.24,-5.64 44.75,-6.89 24.84,-2.19 41.14,-6.54 48.44,46.08 4.86,32.07 7.3,60.72 -12.43,90.02 -33,49.01 -21.14,20.53 -72.83,35.77zm-333.58 2268.54c-39.08,11.66 -72.62,13.7 -113.54,7.63 -41.51,-6.17 -70.4,-7.36 -72.66,-57.57 -1.22,-26.99 -11.7,-24.89 -13.96,-49.92 -5.28,-58.63 -12.73,-27.17 -10.74,-51.47 -53.85,-74.65 205.02,-83.48 241,-81.52 4.12,7.84 10.51,15.65 12.96,23.84 6.8,22.74 16.39,66.49 12.39,89.94l-0.15 41.12c1.64,47.28 -13.31,65.42 -55.29,77.94zm2309.87 -3858.58c25.4,-71.04 -97.87,-10.22 -117.97,-3.49 -70.47,23.58 -172.04,99.2 -224.98,151.86 -35.39,35.21 -62.11,59.96 -71.91,114.87 -12.52,70.13 44.69,20.56 102.17,-14.5 73.53,-49.91 299.22,-181.43 312.7,-248.74zm-1213.9 3719.71c-46.54,-38.05 -77.61,-55.54 -134.51,-82.26 -19.91,-9.35 -38.57,-9.07 -56,-17.61 -17.65,-8.65 -47.65,-8.06 -65.54,-1.07 -50.83,19.87 1.2,92.33 10.02,110.02 14.8,29.7 31.98,50.78 55.89,74.39 20.27,20.02 68.18,35.26 94.72,48.59 31.52,15.83 81.53,34.88 110.63,4.2 27.82,-29.34 52,-55.58 16.56,-94.69 -13.21,-14.59 -14.37,-27.36 -31.77,-41.58zm-637.54 -219.51c27.42,-46.64 141.21,-78.24 12.12,-111.53 -44.83,-11.56 -160.15,-3.39 -188.86,41.07 -1.47,25.48 88.17,119.29 108.34,139.26 14.17,14.02 51.04,74.48 59.67,46.01 8.8,-29.02 -11.17,-80.97 8.72,-114.81zm830.69 3108.76c-81.46,71.28 -222.89,267.62 -117.02,231.9 9.55,-3.22 18.72,-4.56 27,-7.29 26.08,-8.59 161.34,-97.43 259.11,-190.38 78.16,-74.3 128.24,-154.24 109.93,-175.7 -29.94,-35.09 -197.57,70.19 -279.02,141.47z"/>
 </g>
</svg>
