<?xml version="1.0" encoding="UTF-8"?>
<!DOCTYPE svg PUBLIC "-//W3C//DTD SVG 1.1//EN" "http://www.w3.org/Graphics/SVG/1.1/DTD/svg11.dtd">
<!-- Creator: CorelDRAW 2020 (64-Bit) -->
<svg xmlns="http://www.w3.org/2000/svg" xml:space="preserve" width="1.2in" height="1in" version="1.1" style="shape-rendering:geometricPrecision; text-rendering:geometricPrecision; image-rendering:optimizeQuality; fill-rule:evenodd; clip-rule:evenodd"
viewBox="0 0 1200 1000"
 xmlns:xlink="http://www.w3.org/1999/xlink"
 xmlns:xodm="http://www.corel.com/coreldraw/odm/2003">
 <defs>
  <style type="text/css">
   <![CDATA[
    .fil0 {fill:#FEFEFE}
   ]]>
  </style>
 </defs>
 <g id="Layer_x0020_1">
  <metadata id="CorelCorpID_0Corel-Layer"/>
  <path class="fil0" d="M358.56 586.04c-68.78,-6.65 -115.19,-35.33 -97.81,55.85 33.21,8.93 61.4,14.78 98.64,10.41l5.58 -12.4 17.67 -2.79c4.87,13.61 13.35,26.15 19.31,37.52l44.86 5.68c4.72,-17.18 23.57,-41.49 31.26,-60.44l-15.37 2.39c-4.15,-0.44 -2.97,-0.33 -5.15,-1.46 1.26,-12.33 2.15,-7.63 15.44,-10.6 7.95,-1.78 11.78,-2.57 21.73,-3.63 -3.9,-7.49 -6.17,-6.28 -12.49,-10.45 35.16,2.99 50.61,5.31 87.24,-1.72 31.33,-6.02 81.09,8.61 130.68,8.61 70.37,0 109.21,-3.9 177.17,-12.87 40.94,-5.41 22.96,8.45 45.87,15.93 8.23,2.69 23.65,3.7 32.34,1.71l0.3 -28.83c12.94,-1.33 26.82,-3.58 39.7,-5.96 15.62,-2.88 23.98,-3.69 22.11,-22.33 -9.58,-7.46 -31.38,-11.32 -45.5,-13.39 9.7,-13.72 44.85,-38.6 46.7,-49.07 -32.4,-0.05 -25.11,3.81 -50.78,11.84 5.29,-19.34 38.79,-120.7 36.52,-129.57 -10.33,-4.7 -35.8,-6.72 -48.73,-5.42 -5.87,2.6 -90.74,91.08 -99.6,99.7 -9.63,9.37 -24.8,22.85 -37.79,30.9 -18.17,11.26 -35.17,6.94 -56.93,3.2 -31.88,-5.48 -173.72,-20.83 -179.43,-23.73 6.19,-3.21 26.89,-0.86 36,-0.86l-8.46 -6.64c-4.02,-2.24 -5.26,-2.24 -9.37,-4.99 5.19,-6.57 21.12,-16.37 28.11,-21.82 14.33,-11.19 16.41,-8.34 45.24,-7.31 -4.24,-7.76 -10.93,-6.85 -17.35,-12.49 41.6,-37.7 53.58,-25.99 82.89,-79.61 5.75,-10.53 17.04,-26.08 19.83,-37.87 -13.96,0.5 -13.75,1.21 -26.09,17.05 -27.08,34.74 -31.07,38.21 -71.32,57.77l-170.43 85.63c-27.39,7.52 -329.59,-51.12 -387.59,-21.5 -10.28,5.25 -17.69,11.34 -24.69,17.04 -8.19,6.67 -77.98,29.52 1.93,60.6 81.33,31.63 168.2,25.8 217.88,38.12 9.81,2.43 22.34,7.74 32.68,10.99 15.34,4.82 23.46,1.84 27.18,16.8z"/>
 </g>
</svg>
