<?xml version="1.0" encoding="UTF-8"?>
<!DOCTYPE svg PUBLIC "-//W3C//DTD SVG 1.1//EN" "http://www.w3.org/Graphics/SVG/1.1/DTD/svg11.dtd">
<!-- Creator: CorelDRAW 2020 (64-Bit) -->
<svg xmlns="http://www.w3.org/2000/svg" xml:space="preserve" width="8.5in" height="11in" version="1.1" style="shape-rendering:geometricPrecision; text-rendering:geometricPrecision; image-rendering:optimizeQuality; fill-rule:evenodd; clip-rule:evenodd"
viewBox="0 0 8500 11000"
 xmlns:xlink="http://www.w3.org/1999/xlink"
 xmlns:xodm="http://www.corel.com/coreldraw/odm/2003">
 <defs>
  <style type="text/css">
   <![CDATA[
    .fil2 {fill:#FFF383}
    .fil3 {fill:#FCD5A6}
    .fil1 {fill:#E2AE1A}
    .fil0 {fill:#EFC824}
   ]]>
  </style>
 </defs>
 <g id="Layer_x0020_1">
  <metadata id="CorelCorpID_0Corel-Layer"/>
  <path class="fil0" d="M1581.8 5143.28c0,1.53 -0.01,3.06 0,4.59 0,-1.53 -0.01,-3.06 0,-4.59zm1008.33 -853.74c220.91,0 400,179.09 400,400 0,58.04 -12.38,113.18 -34.61,162.96l-0.03 0.11c-252.16,933.57 436.07,828.39 492.97,824.02 58.67,-4.52 842.48,-78.92 347,-1277.67 -105.21,-103.28 -164.49,-244.52 -164.49,-391.94 0,-303.31 245.89,-549.2 549.2,-549.2l11.45 3932.5c-383.21,7.99 -807,22.34 -1001.61,34.98 -355.69,23.11 -557.98,69.44 -652.22,85.42 -94.24,15.98 -385.91,77.19 -385.91,77.19l-100.65 22.93c0,0 -28.88,-121.56 -97.93,-393.27 -69.04,-271.71 -195,-636.11 -195,-636.11l-245.15 -561.87c0,0 -169,-328.23 -454.66,-491.06 -160.58,-51.98 -276.71,-202.74 -276.71,-380.64 0,-220.91 179.09,-400 400,-400 219.38,0 397.52,176.61 399.97,395.41 125.03,825 450.03,700 583.36,683.33 132.75,-16.59 626.46,-98.94 171.47,-827.67l-0.02 -0.04c-89.4,-73.36 -146.44,-184.7 -146.44,-309.37 0,-220.91 179.09,-400 400,-400z"/>
  <path class="fil1" d="M6774.83 5143.28c0,1.53 0.01,3.06 0,4.59 0,-1.53 0.01,-3.06 0,-4.59zm-1008.33 -853.74c-220.91,0 -400,179.09 -400,400 0,58.04 12.38,113.18 34.61,162.96l0.03 0.11c252.16,933.57 -436.07,828.39 -492.97,824.02 -58.67,-4.52 -842.48,-78.92 -347,-1277.67 105.21,-103.28 164.49,-244.52 164.49,-391.94 0,-303.31 -245.89,-549.2 -549.2,-549.2l-11.45 3932.5c383.21,7.99 807,22.34 1001.61,34.98 355.69,23.11 557.98,69.44 652.22,85.42 94.24,15.98 385.91,77.19 385.91,77.19l100.65 22.93c0,0 28.88,-121.56 97.93,-393.27 69.04,-271.71 195,-636.11 195,-636.11l245.15 -561.87c0,0 169,-328.23 454.66,-491.06 160.58,-51.98 276.71,-202.74 276.71,-380.64 0,-220.91 -179.09,-400 -400,-400 -219.38,0 -397.52,176.61 -399.97,395.41 -125.03,825 -450.03,700 -583.36,683.33 -132.75,-16.59 -626.46,-98.94 -171.47,-827.67l0.02 -0.04c89.4,-73.36 146.44,-184.7 146.44,-309.37 0,-220.91 -179.09,-400 -400,-400z"/>
  <path class="fil2" d="M1290.09 4834.12c-259.39,-104.83 -576.96,181.33 -352.54,518.04 58.06,87.1 107.82,100.39 116.36,90.83 15.32,-17.15 -7.94,-63.65 -7.94,-63.65 -210.2,-276.97 -16.5,-567.41 244.12,-545.22z"/>
  <path class="fil2" d="M2769.04 4413.15c-224.05,-167.55 -604.13,28.13 -473.04,410.95 33.91,99.03 78.64,124.58 89.33,117.51 19.19,-12.67 8.56,-63.57 8.56,-63.57 -132.57,-321.43 128.81,-552.84 375.14,-464.89z"/>
  <path class="fil3" d="M6027.25 4488.23c-92.25,-178.89 -541.09,-195.65 -578.5,181.43 -9.67,97.54 18.47,136.72 30.33,134.86 21.28,-3.32 32.05,-50.81 32.05,-50.81 12.24,-325.37 346.83,-404.02 516.13,-265.49z"/>
  <path class="fil3" d="M7442.47 4931.6c-92.25,-178.89 -541.09,-195.65 -578.5,181.43 -9.67,97.54 18.47,136.72 30.33,134.86 21.28,-3.32 32.05,-50.81 32.05,-50.81 12.24,-325.37 346.83,-404.02 516.13,-265.49z"/>
  <path class="fil2" d="M4478.58 3626.85c-267.8,-230.05 -889.01,-89.05 -728.77,552.09 25.38,101.54 60.67,130.91 73.19,133.66 26.85,5.89 115.7,3.99 80.96,-79.72 -162.55,-391.68 86.63,-797.11 574.62,-606.04z"/>
 </g>
</svg>
