<?xml version="1.0" encoding="UTF-8"?>
<!DOCTYPE svg PUBLIC "-//W3C//DTD SVG 1.1//EN" "http://www.w3.org/Graphics/SVG/1.1/DTD/svg11.dtd">
<!-- Creator: CorelDRAW 2020 (64-Bit) -->
<svg xmlns="http://www.w3.org/2000/svg" xml:space="preserve" width="4in" height="4in" version="1.1" style="shape-rendering:geometricPrecision; text-rendering:geometricPrecision; image-rendering:optimizeQuality; fill-rule:evenodd; clip-rule:evenodd"
viewBox="0 0 4000 4000"
 xmlns:xlink="http://www.w3.org/1999/xlink"
 xmlns:xodm="http://www.corel.com/coreldraw/odm/2003">
 <defs>
  <style type="text/css">
   <![CDATA[
    .fil0 {fill:#4DC0EB}
   ]]>
  </style>
 </defs>
 <g id="Layer_x0020_1">
  <metadata id="CorelCorpID_0Corel-Layer"/>
  <path class="fil0" d="M1939.13 1732.94c-363.57,85.6 -234.2,620.74 119.76,540.86 129.05,-29.13 245.4,-168.31 208.25,-332.68 -28.93,-127.99 -168.58,-245.71 -328,-208.18z"/>
  <path class="fil0" d="M2940.39 728.95c-363.57,85.6 -234.2,620.74 119.76,540.86 129.05,-29.13 245.4,-168.31 208.25,-332.68 -28.93,-127.99 -168.58,-245.71 -328,-208.18z"/>
  <path class="fil0" d="M944.61 2724.73c-363.57,85.6 -234.2,620.74 119.76,540.86 129.05,-29.13 245.4,-168.31 208.25,-332.68 -28.93,-127.99 -168.58,-245.71 -328,-208.18z"/>
  <path class="fil0" d="M1055.75 728.95c363.57,85.6 234.2,620.74 -119.76,540.86 -129.05,-29.13 -245.4,-168.31 -208.25,-332.68 28.93,-127.99 168.58,-245.71 328,-208.18z"/>
  <path class="fil0" d="M3051.53 2724.73c363.57,85.6 234.2,620.74 -119.76,540.86 -129.05,-29.13 -245.4,-168.31 -208.25,-332.68 28.93,-127.99 168.58,-245.71 328,-208.18z"/>
 </g>
</svg>
